<svg width="36" height="35" viewBox="0 0 36 35" fill="none" xmlns="http://www.w3.org/2000/svg">
<g clip-path="url(#clip0_2680_2015)">
<path d="M33.517 0H2.48304C1.11169 0 0 1.13597 0 2.53726V32.4627C0 33.864 1.11169 35 2.48304 35H33.517C34.8883 35 36 33.864 36 32.4627V2.53726C36 1.13597 34.8883 0 33.517 0Z" fill="white"/>
<path d="M25.6135 30.7265V17.9454H25.3559L25.1792 18.6701C25.0722 19.1084 24.6871 19.4156 24.2451 19.4156H11.8215C11.3798 19.4156 10.9944 19.108 10.8878 18.6701L10.711 17.9454H10.465V30.7265H4.71387L4.82321 17.9454L4.94142 4.11572H10.2232C10.4885 4.11572 10.7195 4.30024 10.7838 4.56306L13.2749 14.7735C13.3389 15.0363 13.5699 15.2208 13.8352 15.2208H22.2426C22.5079 15.2208 22.7389 15.0363 22.8032 14.7735L25.2943 4.56306C25.3586 4.30024 25.5896 4.11572 25.8549 4.11572H31.1105L31.2287 17.9454L31.3381 30.7265H25.6135Z" fill="#031F62"/>
</g>
<defs>
<clipPath id="clip0_2680_2015">
<rect width="36" height="35" fill="white"/>
</clipPath>
</defs>
</svg>
