<svg width="25" height="53" viewBox="0 0 25 53" fill="none" xmlns="http://www.w3.org/2000/svg">
<g clip-path="url(#clip0_2680_2029)">
<path d="M5.48463 17.1736L12.0539 10.9683C14.4749 8.65336 15.3532 7.57354 15.3532 6.28663C15.3532 4.38585 14.0689 3.24686 11.9948 3.24686C9.68452 3.24686 8.40019 4.80003 8.40019 6.98925V7.22593H5.07129V6.98925C5.07867 2.45548 7.75803 0 11.8472 0C15.9364 0 18.6822 2.48507 18.6822 6.32361C18.6822 8.52023 17.575 10.3323 13.7146 13.7566L9.92071 17.499H18.5641V20.7755H5.48463V17.1736Z" fill="#6FCFEE"/>
<path d="M10.6144 32.2097H14.674L23.2731 53.0074H19.6563L17.5231 47.7784H7.74309L5.63946 53.0074H1.99316L10.6217 32.2097H10.6144ZM16.2536 44.5685L12.6368 35.6859L9.04956 44.5685H16.2536Z" fill="#6FCFEE"/>
<path d="M25 24.799H0V28.0088H25V24.799Z" fill="#6FCFEE"/>
</g>
<defs>
<clipPath id="clip0_2680_2029">
<rect width="25" height="53" fill="white"/>
</clipPath>
</defs>
</svg>
