<svg width="11" height="15" viewBox="0 0 11 15" fill="none" xmlns="http://www.w3.org/2000/svg">
<g clip-path="url(#clip0_2680_1990)">
<path d="M10.364 2.03093C10.5685 1.93174 10.7817 1.84432 11 1.77034V0.727976C10.7937 0.630464 10.5823 0.54304 10.364 0.465703C9.51821 0.16308 8.59165 0 7.60494 0C3.23863 0 0 3.16745 0 7.47983C0 11.7922 3.23863 15 7.60494 15C8.59165 15 9.51821 14.8352 10.364 14.5309C10.5823 14.4536 10.7937 14.3645 11 14.2687V13.2263C10.78 13.1506 10.5685 13.0615 10.364 12.9623C8.35615 11.9923 7.04454 9.95629 7.04454 7.45124C7.04454 4.9462 8.35615 2.98924 10.364 2.03093ZM5.53008 7.47983C5.53008 10.0319 6.6526 12.1856 8.46789 13.5256C8.18769 13.5625 7.90061 13.581 7.60666 13.581C4.12221 13.581 1.51446 10.9818 1.51446 7.45124C1.51446 3.92065 4.12221 1.41896 7.60666 1.41896C7.89717 1.41896 8.18081 1.43746 8.45757 1.47276C6.64916 2.80599 5.53008 4.94452 5.53008 7.47983Z" fill="black"/>
</g>
<defs>
<clipPath id="clip0_2680_1990">
<rect width="11" height="15" fill="white"/>
</clipPath>
</defs>
</svg>
