<svg width="268" height="114" viewBox="0 0 268 114" fill="none" xmlns="http://www.w3.org/2000/svg">
<rect width="268" height="114" rx="10" fill="#8CC63F"/>
<g clip-path="url(#clip0_2703_64)">
<path d="M56.9656 24.9903L56.9066 24.8696L55.6622 22.1948L53.0259 16.5536L52.3374 15.0804L52.3029 15H47.0304V15.0151H40.0315V15H34.7541V15.0151H26.6928V15H21.4154V15.0151H13.0295V17.0312H13V40.2246H18.0266V40.1392H19.6743C19.7579 41.7632 21.0219 43.005 22.6745 43.005C24.3271 43.005 25.5518 41.7682 25.6354 40.1392H43.863C43.9466 41.7632 45.2106 43.005 46.8632 43.005C48.5158 43.005 49.7404 41.7682 49.8241 40.1392H56.9902L56.9557 24.9903H56.9656ZM51.7324 25.0758L51.939 25.5182L52.2193 26.1165V27.4389H44.6892V24.9903L44.6302 24.8696L43.3859 22.1948L42.4612 20.2189H49.4601L51.7275 25.0758H51.7324ZM39.4561 25.0758L39.6626 25.5182L40.061 26.373L40.5578 27.4389H31.3456V24.9903L31.2866 24.8696L30.0423 22.1948L29.1176 20.2189H37.1838L39.4512 25.0758H39.4561ZM26.1174 25.0758L26.3239 25.5182L26.7223 26.373L27.2191 27.4389H18.0266V20.2189H23.8451L26.1125 25.0758H26.1174Z" fill="white"/>
</g>
<path d="M18.32 71.14C15.52 71.14 13.504 69.068 13.504 66.086C13.504 63.118 15.534 61.06 18.32 61.06C21.12 61.06 23.136 63.132 23.136 66.086C23.136 69.054 21.12 71.14 18.32 71.14ZM18.32 69.614C20.21 69.614 21.554 68.186 21.554 66.086C21.554 63.986 20.21 62.586 18.32 62.586C16.444 62.586 15.086 63.986 15.086 66.086C15.086 68.186 16.416 69.614 18.32 69.614ZM25.4842 71V62.768H23.6222V61.2H27.0942V71H25.4842ZM28.6737 73.1V69.04H30.2837V73.1H28.6737ZM35.2469 71V69.278L38.3969 66.31C39.5589 65.204 39.9789 64.686 39.9789 64.07C39.9789 63.16 39.3629 62.614 38.3689 62.614C37.2629 62.614 36.6469 63.356 36.6469 64.406V64.518H35.0509V64.406C35.0509 62.236 36.3389 61.06 38.2989 61.06C40.3149 61.06 41.5749 62.25 41.5749 64.084C41.5749 65.134 41.0429 66.002 39.1949 67.64L37.3749 69.432H41.5189V71H35.2469ZM44.4197 71V62.768H42.5577V61.2H46.0297V71H44.4197ZM46.6292 71L50.7032 61.2H52.6212L56.6812 71H54.9732L53.9652 68.536H49.3452L48.3512 71H46.6292ZM49.9612 67.024H53.3632L51.6552 62.838L49.9612 67.024ZM57.9178 73.1V69.04H59.5278V73.1H57.9178ZM67.543 71C65.611 71 64.295 69.684 64.295 67.738H65.905C65.905 68.788 66.577 69.474 67.543 69.474C68.621 69.474 69.251 68.774 69.251 67.808C69.251 66.814 68.537 66.086 67.403 66.086H66.815V65.05L68.775 62.712H64.435V61.2H70.637V62.614L68.691 65.022C69.979 65.316 70.847 66.408 70.847 67.892C70.847 69.67 69.559 71 67.543 71ZM74.9942 71C73.0622 71 71.7462 69.684 71.7462 67.738H73.3562C73.3562 68.788 74.0282 69.474 74.9942 69.474C76.0722 69.474 76.7022 68.774 76.7022 67.808C76.7022 66.814 75.9882 66.086 74.8542 66.086H74.2662V65.05L76.2262 62.712H71.8862V61.2H78.0882V62.614L76.1422 65.022C77.4302 65.316 78.2982 66.408 78.2982 67.892C78.2982 69.67 77.0102 71 74.9942 71ZM79.6287 73.1V69.04H81.2387V73.1H79.6287ZM89.254 71C87.322 71 86.006 69.684 86.006 67.738H87.616C87.616 68.788 88.288 69.474 89.254 69.474C90.332 69.474 90.962 68.774 90.962 67.808C90.962 66.814 90.248 66.086 89.114 66.086H88.526V65.05L90.486 62.712H86.146V61.2H92.348V62.614L90.402 65.022C91.69 65.316 92.558 66.408 92.558 67.892C92.558 69.67 91.27 71 89.254 71ZM94.0145 71L97.9345 62.768H93.4825V61.2H100.329L95.7505 71H94.0145ZM99.7127 73.1V69.04H101.323V73.1H99.7127ZM109.324 71.14C107.714 71.14 106.58 70.202 106.118 68.844L107.476 68.466C107.826 69.166 108.442 69.67 109.31 69.67C110.472 69.67 111.172 68.732 111.172 67.808C111.172 66.828 110.444 66.044 109.31 66.044C108.61 66.044 107.924 66.436 107.518 66.716L106.174 66.296V61.2H112.18V62.754H107.756L107.77 65.204C108.148 65.05 108.778 64.756 109.436 64.756C111.256 64.756 112.67 65.932 112.67 67.836C112.67 69.586 111.368 71.14 109.324 71.14ZM113.948 71L117.868 62.768H113.416V61.2H120.262L115.684 71H113.948ZM119.646 73.1V69.04H121.256V73.1H119.646ZM129.524 71.14C127.536 71.14 126.08 69.754 126.08 67.92C126.08 67.15 126.262 66.422 126.85 65.442L129.384 61.2H131.19L129.216 64.49L129.496 64.476C131.456 64.476 132.828 65.89 132.828 67.822C132.828 69.74 131.414 71.14 129.524 71.14ZM129.482 69.614C130.518 69.614 131.316 68.83 131.316 67.78C131.316 66.744 130.532 65.96 129.454 65.96C128.39 65.96 127.606 66.772 127.606 67.808C127.606 68.844 128.418 69.614 129.482 69.614ZM133.807 71V69.278L136.957 66.31C138.119 65.204 138.539 64.686 138.539 64.07C138.539 63.16 137.923 62.614 136.929 62.614C135.823 62.614 135.207 63.356 135.207 64.406V64.518H133.611V64.406C133.611 62.236 134.899 61.06 136.859 61.06C138.875 61.06 140.135 62.25 140.135 64.084C140.135 65.134 139.603 66.002 137.755 67.64L135.935 69.432H140.079V71H133.807ZM141.549 73.1V69.04H143.159V73.1H141.549ZM151.426 71.14C149.438 71.14 147.982 69.754 147.982 67.92C147.982 67.15 148.164 66.422 148.752 65.442L151.286 61.2H153.092L151.118 64.49L151.398 64.476C153.358 64.476 154.73 65.89 154.73 67.822C154.73 69.74 153.316 71.14 151.426 71.14ZM151.384 69.614C152.42 69.614 153.218 68.83 153.218 67.78C153.218 66.744 152.434 65.96 151.356 65.96C150.292 65.96 149.508 66.772 149.508 67.808C149.508 68.844 150.32 69.614 151.384 69.614ZM159.287 71.14C157.299 71.14 155.843 69.754 155.843 67.92C155.843 67.15 156.025 66.422 156.613 65.442L159.147 61.2H160.953L158.979 64.49L159.259 64.476C161.219 64.476 162.591 65.89 162.591 67.822C162.591 69.74 161.177 71.14 159.287 71.14ZM159.245 69.614C160.281 69.614 161.079 68.83 161.079 67.78C161.079 66.744 160.295 65.96 159.217 65.96C158.153 65.96 157.369 66.772 157.369 67.808C157.369 68.844 158.181 69.614 159.245 69.614ZM163.971 73.1V69.04H165.581V73.1H163.971ZM173.736 71.14C171.678 71.14 170.348 69.95 170.348 68.172C170.348 67.15 170.894 66.352 171.79 65.946C171.006 65.554 170.53 64.812 170.53 63.86C170.53 62.236 171.79 61.06 173.736 61.06C175.626 61.06 176.872 62.222 176.872 63.86C176.872 64.812 176.41 65.554 175.654 65.946C176.522 66.352 177.054 67.15 177.054 68.172C177.054 69.964 175.738 71.14 173.736 71.14ZM173.736 69.67C174.8 69.67 175.472 69.11 175.472 68.13C175.472 67.22 174.772 66.576 173.736 66.576C172.672 66.576 171.944 67.22 171.944 68.13C171.944 69.096 172.658 69.67 173.736 69.67ZM173.736 65.358C174.674 65.358 175.304 64.784 175.304 63.944C175.304 63.118 174.66 62.544 173.722 62.544C172.756 62.544 172.098 63.118 172.098 63.944C172.098 64.784 172.756 65.358 173.736 65.358ZM181.255 61.06C183.243 61.06 184.699 62.446 184.699 64.28C184.699 65.05 184.517 65.778 183.929 66.758L181.395 71H179.589L181.563 67.71L181.283 67.724C179.323 67.724 177.951 66.31 177.951 64.378C177.951 62.46 179.365 61.06 181.255 61.06ZM181.297 62.586C180.261 62.586 179.463 63.37 179.463 64.42C179.463 65.456 180.247 66.24 181.325 66.24C182.389 66.24 183.173 65.428 183.173 64.392C183.173 63.356 182.361 62.586 181.297 62.586ZM184.67 73.1V69.04H186.28V73.1H184.67ZM16.864 79.06C18.852 79.06 20.308 80.446 20.308 82.28C20.308 83.05 20.126 83.778 19.538 84.758L17.004 89H15.198L17.172 85.71L16.892 85.724C14.932 85.724 13.56 84.31 13.56 82.378C13.56 80.46 14.974 79.06 16.864 79.06ZM16.906 80.586C15.87 80.586 15.072 81.37 15.072 82.42C15.072 83.456 15.856 84.24 16.934 84.24C17.998 84.24 18.782 83.428 18.782 82.392C18.782 81.356 17.97 80.586 16.906 80.586ZM23.0643 89V80.768H21.2023V79.2H24.6743V89H23.0643ZM26.2537 91.1V87.04H27.8637V91.1H26.2537ZM34.535 89V80.768H32.673V79.2H36.145V89H34.535ZM40.6364 89.14C39.0264 89.14 37.8924 88.202 37.4304 86.844L38.7884 86.466C39.1384 87.166 39.7544 87.67 40.6224 87.67C41.7844 87.67 42.4844 86.732 42.4844 85.808C42.4844 84.828 41.7564 84.044 40.6224 84.044C39.9224 84.044 39.2364 84.436 38.8304 84.716L37.4864 84.296V79.2H43.4924V80.754H39.0684L39.0824 83.204C39.4604 83.05 40.0904 82.756 40.7484 82.756C42.5684 82.756 43.9824 83.932 43.9824 85.836C43.9824 87.586 42.6804 89.14 40.6364 89.14ZM48.1733 89.14C46.1153 89.14 44.7853 87.95 44.7853 86.172C44.7853 85.15 45.3313 84.352 46.2273 83.946C45.4433 83.554 44.9673 82.812 44.9673 81.86C44.9673 80.236 46.2273 79.06 48.1733 79.06C50.0633 79.06 51.3093 80.222 51.3093 81.86C51.3093 82.812 50.8473 83.554 50.0913 83.946C50.9593 84.352 51.4913 85.15 51.4913 86.172C51.4913 87.964 50.1753 89.14 48.1733 89.14ZM48.1733 87.67C49.2373 87.67 49.9093 87.11 49.9093 86.13C49.9093 85.22 49.2093 84.576 48.1733 84.576C47.1093 84.576 46.3813 85.22 46.3813 86.13C46.3813 87.096 47.0953 87.67 48.1733 87.67ZM48.1733 83.358C49.1113 83.358 49.7413 82.784 49.7413 81.944C49.7413 81.118 49.0973 80.544 48.1593 80.544C47.1933 80.544 46.5353 81.118 46.5353 81.944C46.5353 82.784 47.1933 83.358 48.1733 83.358ZM59.2038 92.78C57.2298 90.638 56.1798 88.188 56.1798 85.5C56.1798 82.812 57.2298 80.362 59.2038 78.22L60.4358 79.214C58.7278 81.16 57.7898 83.19 57.7898 85.5C57.7898 87.852 58.7978 89.91 60.4358 91.786L59.2038 92.78ZM66.0801 89.14C63.2521 89.14 61.1101 86.97 61.1101 84.086C61.1101 81.216 63.2521 79.06 66.0801 79.06C68.0961 79.06 69.7061 80.166 70.4901 81.734L69.1181 82.434C68.5161 81.37 67.4101 80.614 66.0801 80.614C64.1621 80.614 62.6781 82.098 62.6781 84.072C62.6781 86.074 64.1621 87.586 66.0801 87.586C67.3961 87.586 68.5021 86.83 69.1041 85.78L70.4761 86.48C69.7201 88.048 68.0961 89.14 66.0801 89.14ZM71.8341 89V79.2H73.4301L78.5401 86.256V79.2H80.1501V89H78.5401L73.4441 81.958V89H71.8341ZM86.5082 89.14C83.6102 89.14 81.4402 86.97 81.4402 84.086C81.4402 81.216 83.6102 79.06 86.5082 79.06C88.3002 79.06 89.8402 79.9 90.7222 81.244L89.4622 82.14C88.8462 81.202 87.7682 80.6 86.5082 80.6C84.5342 80.6 83.0502 82.098 83.0502 84.072C83.0502 86.074 84.5342 87.6 86.5082 87.6C88.2442 87.6 89.7142 86.466 89.8822 84.856H85.6822V83.316H91.5202C91.5482 83.596 91.5762 83.904 91.5762 84.128C91.5342 87.012 89.3782 89.14 86.5082 89.14ZM97.3024 89.14C94.5024 89.14 92.4864 87.068 92.4864 84.086C92.4864 81.118 94.5164 79.06 97.3024 79.06C100.102 79.06 102.118 81.132 102.118 84.086C102.118 87.054 100.102 89.14 97.3024 89.14ZM97.3024 87.614C99.1924 87.614 100.536 86.186 100.536 84.086C100.536 81.986 99.1924 80.586 97.3024 80.586C95.4264 80.586 94.0684 81.986 94.0684 84.086C94.0684 86.186 95.3984 87.614 97.3024 87.614ZM103.223 89V87.278L106.373 84.31C107.535 83.204 107.955 82.686 107.955 82.07C107.955 81.16 107.339 80.614 106.345 80.614C105.239 80.614 104.623 81.356 104.623 82.406V82.518H103.027V82.406C103.027 80.236 104.315 79.06 106.275 79.06C108.291 79.06 109.551 80.25 109.551 82.084C109.551 83.134 109.019 84.002 107.171 85.64L105.351 87.432H109.495V89H103.223ZM110.669 91.786C112.307 89.91 113.315 87.852 113.315 85.5C113.315 83.19 112.377 81.16 110.669 79.214L111.901 78.22C113.875 80.362 114.925 82.812 114.925 85.5C114.925 88.188 113.875 90.638 111.901 92.78L110.669 91.786ZM116.502 91.1V87.04H118.112V91.1H116.502ZM126.549 89V79.2H129.517C131.659 79.2 132.807 80.264 132.807 81.846C132.807 82.728 132.443 83.47 131.729 83.96C132.583 84.45 133.031 85.248 133.031 86.214C133.031 87.866 131.855 89 129.601 89H126.549ZM129.643 87.474C130.791 87.474 131.449 86.942 131.449 86.116C131.449 85.276 130.791 84.73 129.643 84.73H128.159V87.474H129.643ZM129.545 83.26C130.623 83.26 131.225 82.756 131.225 81.986C131.225 81.216 130.623 80.726 129.545 80.726H128.159V83.26H129.545ZM134.287 89V79.2H137.325C139.327 79.2 140.657 80.152 140.657 82.07C140.657 83.694 139.677 84.688 138.053 84.912L141.441 89H139.411L135.897 84.716V89H134.287ZM137.241 83.484C138.375 83.484 139.075 82.994 139.075 82.084C139.075 81.118 138.361 80.726 137.241 80.726H135.897V83.484H137.241ZM143.66 89V80.684H141.322V79.2H147.594V80.684H145.27V89H143.66ZM152.646 89.14C149.846 89.14 147.83 87.068 147.83 84.086C147.83 81.118 149.86 79.06 152.646 79.06C155.446 79.06 157.462 81.132 157.462 84.086C157.462 87.054 155.446 89.14 152.646 89.14ZM152.646 87.614C154.536 87.614 155.88 86.186 155.88 84.086C155.88 81.986 154.536 80.586 152.646 80.586C150.77 80.586 149.412 81.986 149.412 84.086C149.412 86.186 150.742 87.614 152.646 87.614ZM159.81 89V80.768H157.948V79.2H161.42V89H159.81Z" fill="white"/>
<path d="M133.545 91.1H165.604V91.8H133.545V91.1Z" fill="white"/>
<a href="https://vi.m.wikipedia.org/wiki/Xe_bu%C3%BDt_nhanh_H%C3%A0_N%E1%BB%99i">
<rect fill="black" fill-opacity="0" x="120.545" y="18.25" width="32.0589" height="17.5"/>
</a>
<path d="M87.828 37V28.684H85.49V27.2H91.762V28.684H89.438V37H87.828ZM95.3168 37.07C93.3848 37.07 92.2228 35.936 92.2228 33.682V30H93.8328V33.654C93.8328 34.942 94.3928 35.502 95.3028 35.502C96.1988 35.502 96.7448 34.942 96.7448 33.654V30H98.3548V33.682C98.3548 35.936 97.2348 37.07 95.3168 37.07ZM100.173 39.1L101.881 35.516L99.1514 30H100.915L102.763 33.668L104.513 30H106.277L101.937 39.1H100.173ZM110.158 37.154C108.1 37.154 106.476 35.586 106.476 33.5C106.476 31.568 108.002 29.86 110.144 29.86C112.412 29.86 113.994 31.764 113.686 33.99H108.086C108.296 34.928 109.108 35.67 110.158 35.67C110.914 35.67 111.53 35.334 112.02 34.76L113.252 35.53C112.664 36.454 111.53 37.154 110.158 37.154ZM108.156 29.664L107.456 28.698L109.318 27.312H110.928L112.818 28.726L112.076 29.664L110.116 28.25L108.156 29.664ZM108.478 26.738L108.142 25.534L111.74 24.568L112.076 25.772L108.478 26.738ZM108.142 32.744H112.09C111.852 31.862 111.124 31.33 110.158 31.33C109.164 31.33 108.408 31.862 108.142 32.744ZM114.973 37V30H116.401V30.91C116.849 30.224 117.563 29.874 118.529 29.874C120.237 29.874 121.105 31.008 121.105 33.164V37H119.495V33.248C119.495 32.072 119.005 31.442 118.039 31.442C117.087 31.442 116.583 32.072 116.583 33.248V37H114.973ZM125.361 37L127.769 33.5L125.403 30H127.293L128.945 32.464L130.583 30H132.459L130.107 33.5L132.501 37H130.597L128.945 34.536L127.279 37H125.361ZM136.422 37.154C134.364 37.154 132.74 35.586 132.74 33.5C132.74 31.568 134.266 29.86 136.408 29.86C138.676 29.86 140.258 31.764 139.95 33.99H134.35C134.56 34.928 135.372 35.67 136.422 35.67C137.178 35.67 137.794 35.334 138.284 34.76L139.516 35.53C138.928 36.454 137.794 37.154 136.422 37.154ZM134.406 32.744H138.354C138.116 31.862 137.388 31.33 136.422 31.33C135.428 31.33 134.672 31.862 134.406 32.744ZM148.504 37.098C147.37 37.098 146.656 36.58 146.222 35.852L146.194 37H144.668V27.2H146.278V31.092C146.726 30.392 147.44 29.902 148.504 29.902C150.716 29.902 151.892 31.736 151.892 33.5C151.892 35.25 150.702 37.098 148.504 37.098ZM148.294 35.614C149.596 35.614 150.338 34.55 150.338 33.5C150.338 32.45 149.596 31.386 148.294 31.386C147.062 31.386 146.376 32.282 146.278 33.262L146.264 33.612C146.32 34.634 147.02 35.614 148.294 35.614ZM156.225 37.07C154.293 37.07 153.131 35.936 153.131 33.682V30H154.741V33.654C154.741 34.942 155.301 35.502 156.211 35.502C157.107 35.502 157.653 34.942 157.653 33.654V30H159.263V33.682C159.263 35.936 158.143 37.07 156.225 37.07ZM161.082 39.1L162.79 35.516L160.06 30H161.824L163.672 33.668L165.422 30H167.186L162.846 39.1H161.082ZM161.978 29.244L161.642 28.04L165.24 27.074L165.576 28.278L161.978 29.244ZM168.55 37V31.484H166.996V30H168.55V28.11H170.16V30H171.7V31.484H170.16V37H168.55Z" fill="white"/>
<defs>
<clipPath id="clip0_2703_64">
<rect width="44" height="28" fill="white" transform="translate(13 15)"/>
</clipPath>
</defs>
</svg>
