<svg width="268" height="114" viewBox="0 0 268 114" fill="none" xmlns="http://www.w3.org/2000/svg">
<rect width="268" height="114" rx="10" fill="#8CC63F"/>
<g clip-path="url(#clip0_2703_22)">
<path d="M56.9656 24.9903L56.9066 24.8696L55.6622 22.1948L53.0259 16.5536L52.3374 15.0804L52.3029 15H47.0304V15.0151H40.0315V15H34.7541V15.0151H26.6928V15H21.4154V15.0151H13.0295V17.0312H13V40.2246H18.0266V40.1392H19.6743C19.7579 41.7632 21.0219 43.005 22.6745 43.005C24.3271 43.005 25.5518 41.7682 25.6354 40.1392H43.863C43.9466 41.7632 45.2106 43.005 46.8632 43.005C48.5158 43.005 49.7404 41.7682 49.8241 40.1392H56.9902L56.9557 24.9903H56.9656ZM51.7324 25.0758L51.939 25.5182L52.2193 26.1165V27.4389H44.6892V24.9903L44.6302 24.8696L43.3859 22.1948L42.4612 20.2189H49.4601L51.7275 25.0758H51.7324ZM39.4561 25.0758L39.6626 25.5182L40.061 26.373L40.5578 27.4389H31.3456V24.9903L31.2866 24.8696L30.0423 22.1948L29.1176 20.2189H37.1838L39.4512 25.0758H39.4561ZM26.1174 25.0758L26.3239 25.5182L26.7223 26.373L27.2191 27.4389H18.0266V20.2189H23.8451L26.1125 25.0758H26.1174Z" fill="white"/>
</g>
<path d="M18.32 71.14C15.52 71.14 13.504 69.068 13.504 66.086C13.504 63.118 15.534 61.06 18.32 61.06C21.12 61.06 23.136 63.132 23.136 66.086C23.136 69.054 21.12 71.14 18.32 71.14ZM18.32 69.614C20.21 69.614 21.554 68.186 21.554 66.086C21.554 63.986 20.21 62.586 18.32 62.586C16.444 62.586 15.086 63.986 15.086 66.086C15.086 68.186 16.416 69.614 18.32 69.614ZM24.241 71V69.278L27.391 66.31C28.553 65.204 28.973 64.686 28.973 64.07C28.973 63.16 28.357 62.614 27.363 62.614C26.257 62.614 25.641 63.356 25.641 64.406V64.518H24.045V64.406C24.045 62.236 25.333 61.06 27.293 61.06C29.309 61.06 30.569 62.25 30.569 64.084C30.569 65.134 30.037 66.002 28.189 67.64L26.369 69.432H30.513V71H24.241ZM31.9823 73.1V69.04H33.5923V73.1H31.9823ZM43.1755 71.14C40.3755 71.14 38.3595 69.068 38.3595 66.086C38.3595 63.118 40.3895 61.06 43.1755 61.06C45.9755 61.06 47.9915 63.132 47.9915 66.086C47.9915 69.054 45.9755 71.14 43.1755 71.14ZM43.1755 69.614C45.0655 69.614 46.4095 68.186 46.4095 66.086C46.4095 63.986 45.0655 62.586 43.1755 62.586C41.2995 62.586 39.9415 63.986 39.9415 66.086C39.9415 68.186 41.2715 69.614 43.1755 69.614ZM52.3562 61.06C54.3442 61.06 55.8002 62.446 55.8002 64.28C55.8002 65.05 55.6182 65.778 55.0302 66.758L52.4962 71H50.6902L52.6642 67.71L52.3842 67.724C50.4242 67.724 49.0522 66.31 49.0522 64.378C49.0522 62.46 50.4662 61.06 52.3562 61.06ZM52.3982 62.586C51.3622 62.586 50.5642 63.37 50.5642 64.42C50.5642 65.456 51.3482 66.24 52.4262 66.24C53.4902 66.24 54.2742 65.428 54.2742 64.392C54.2742 63.356 53.4622 62.586 52.3982 62.586ZM57.0955 71V61.2H60.0635C62.2055 61.2 63.3535 62.264 63.3535 63.846C63.3535 64.728 62.9895 65.47 62.2755 65.96C63.1295 66.45 63.5775 67.248 63.5775 68.214C63.5775 69.866 62.4015 71 60.1475 71H57.0955ZM60.1895 69.474C61.3375 69.474 61.9955 68.942 61.9955 68.116C61.9955 67.276 61.3375 66.73 60.1895 66.73H58.7055V69.474H60.1895ZM60.0915 65.26C61.1695 65.26 61.7715 64.756 61.7715 63.986C61.7715 63.216 61.1695 62.726 60.0915 62.726H58.7055V65.26H60.0915ZM64.9588 73.1V69.04H66.5688V73.1H64.9588ZM73.24 71V62.768H71.378V61.2H74.85V71H73.24ZM79.6075 71.14C77.6195 71.14 76.1635 69.754 76.1635 67.92C76.1635 67.15 76.3455 66.422 76.9335 65.442L79.4675 61.2H81.2735L79.2995 64.49L79.5795 64.476C81.5395 64.476 82.9115 65.89 82.9115 67.822C82.9115 69.74 81.4975 71.14 79.6075 71.14ZM79.5655 69.614C80.6015 69.614 81.3995 68.83 81.3995 67.78C81.3995 66.744 80.6155 65.96 79.5375 65.96C78.4735 65.96 77.6895 66.772 77.6895 67.808C77.6895 68.844 78.5015 69.614 79.5655 69.614ZM84.2908 73.1V69.04H85.9008V73.1H84.2908ZM90.8641 71V69.278L94.0141 66.31C95.1761 65.204 95.5961 64.686 95.5961 64.07C95.5961 63.16 94.9801 62.614 93.9861 62.614C92.8801 62.614 92.2641 63.356 92.2641 64.406V64.518H90.6681V64.406C90.6681 62.236 91.9561 61.06 93.9161 61.06C95.9321 61.06 97.1921 62.25 97.1921 64.084C97.1921 65.134 96.6601 66.002 94.8121 67.64L92.9921 69.432H97.1361V71H90.8641ZM100.037 71V62.768H98.1749V61.2H101.647V71H100.037ZM102.246 71L106.32 61.2H108.238L112.298 71H110.59L109.582 68.536H104.962L103.968 71H102.246ZM105.578 67.024H108.98L107.272 62.838L105.578 67.024ZM113.535 73.1V69.04H115.145V73.1H113.535ZM120.108 71V69.278L123.258 66.31C124.42 65.204 124.84 64.686 124.84 64.07C124.84 63.16 124.224 62.614 123.23 62.614C122.124 62.614 121.508 63.356 121.508 64.406V64.518H119.912V64.406C119.912 62.236 121.2 61.06 123.16 61.06C125.176 61.06 126.436 62.25 126.436 64.084C126.436 65.134 125.904 66.002 124.056 67.64L122.236 69.432H126.38V71H120.108ZM131.586 71V68.466H126.966V67.304L129.808 61.2H131.572L128.898 66.954H131.586V64H133.196V66.954H135.044V68.466H133.196V71H131.586ZM135.916 73.1V69.04H137.526V73.1H135.916ZM142.489 71V69.278L145.639 66.31C146.801 65.204 147.221 64.686 147.221 64.07C147.221 63.16 146.605 62.614 145.611 62.614C144.505 62.614 143.889 63.356 143.889 64.406V64.518H142.293V64.406C142.293 62.236 143.581 61.06 145.541 61.06C147.557 61.06 148.817 62.25 148.817 64.084C148.817 65.134 148.285 66.002 146.437 67.64L144.617 69.432H148.761V71H142.489ZM150.384 71L154.304 62.768H149.852V61.2H156.698L152.12 71H150.384ZM156.082 73.1V69.04H157.692V73.1H156.082ZM164.363 71V62.768H162.501V61.2H165.973V71H164.363ZM171.823 71V68.466H167.203V67.304L170.045 61.2H171.809L169.135 66.954H171.823V64H173.433V66.954H175.281V68.466H173.433V71H171.823ZM180.737 71V68.466H176.117V67.304L178.959 61.2H180.723L178.049 66.954H180.737V64H182.347V66.954H184.195V68.466H182.347V71H180.737ZM185.066 73.1V69.04H186.676V73.1H185.066ZM15.408 89V80.768H13.546V79.2H17.018V89H15.408ZM21.7755 89.14C19.7875 89.14 18.3315 87.754 18.3315 85.92C18.3315 85.15 18.5135 84.422 19.1015 83.442L21.6355 79.2H23.4415L21.4675 82.49L21.7475 82.476C23.7075 82.476 25.0795 83.89 25.0795 85.822C25.0795 87.74 23.6655 89.14 21.7755 89.14ZM21.7335 87.614C22.7695 87.614 23.5675 86.83 23.5675 85.78C23.5675 84.744 22.7835 83.96 21.7055 83.96C20.6415 83.96 19.8575 84.772 19.8575 85.808C19.8575 86.844 20.6695 87.614 21.7335 87.614ZM27.535 89V80.768H25.673V79.2H29.145V89H27.535ZM37.1101 92.78C35.1361 90.638 34.0861 88.188 34.0861 85.5C34.0861 82.812 35.1361 80.362 37.1101 78.22L38.3421 79.214C36.6341 81.16 35.6961 83.19 35.6961 85.5C35.6961 87.852 36.7041 89.91 38.3421 91.786L37.1101 92.78ZM43.9864 89.14C41.1584 89.14 39.0164 86.97 39.0164 84.086C39.0164 81.216 41.1584 79.06 43.9864 79.06C46.0024 79.06 47.6124 80.166 48.3964 81.734L47.0244 82.434C46.4224 81.37 45.3164 80.614 43.9864 80.614C42.0684 80.614 40.5844 82.098 40.5844 84.072C40.5844 86.074 42.0684 87.586 43.9864 87.586C45.3024 87.586 46.4084 86.83 47.0104 85.78L48.3824 86.48C47.6264 88.048 46.0024 89.14 43.9864 89.14ZM49.7404 89V79.2H51.3364L56.4464 86.256V79.2H58.0564V89H56.4464L51.3504 81.958V89H49.7404ZM64.4145 89.14C61.5165 89.14 59.3465 86.97 59.3465 84.086C59.3465 81.216 61.5165 79.06 64.4145 79.06C66.2065 79.06 67.7465 79.9 68.6285 81.244L67.3685 82.14C66.7525 81.202 65.6745 80.6 64.4145 80.6C62.4405 80.6 60.9565 82.098 60.9565 84.072C60.9565 86.074 62.4405 87.6 64.4145 87.6C66.1505 87.6 67.6205 86.466 67.7885 84.856H63.5885V83.316H69.4265C69.4545 83.596 69.4825 83.904 69.4825 84.128C69.4405 87.012 67.2845 89.14 64.4145 89.14ZM75.2087 89.14C72.4087 89.14 70.3927 87.068 70.3927 84.086C70.3927 81.118 72.4227 79.06 75.2087 79.06C78.0087 79.06 80.0247 81.132 80.0247 84.086C80.0247 87.054 78.0087 89.14 75.2087 89.14ZM75.2087 87.614C77.0987 87.614 78.4427 86.186 78.4427 84.086C78.4427 81.986 77.0987 80.586 75.2087 80.586C73.3327 80.586 71.9747 81.986 71.9747 84.086C71.9747 86.186 73.3047 87.614 75.2087 87.614ZM84.2634 89.14C82.6534 89.14 81.5194 88.202 81.0574 86.844L82.4154 86.466C82.7654 87.166 83.3814 87.67 84.2494 87.67C85.4114 87.67 86.1114 86.732 86.1114 85.808C86.1114 84.828 85.3834 84.044 84.2494 84.044C83.5494 84.044 82.8634 84.436 82.4574 84.716L81.1134 84.296V79.2H87.1194V80.754H82.6954L82.7094 83.204C83.0874 83.05 83.7174 82.756 84.3754 82.756C86.1954 82.756 87.6094 83.932 87.6094 85.836C87.6094 87.586 86.3074 89.14 84.2634 89.14ZM88.4115 91.786C90.0495 89.91 91.0575 87.852 91.0575 85.5C91.0575 83.19 90.1195 81.16 88.4115 79.214L89.6435 78.22C91.6175 80.362 92.6675 82.812 92.6675 85.5C92.6675 88.188 91.6175 90.638 89.6435 92.78L88.4115 91.786Z" fill="white"/>
<path d="M87.828 37V28.684H85.49V27.2H91.762V28.684H89.438V37H87.828ZM95.3168 37.07C93.3848 37.07 92.2228 35.936 92.2228 33.682V30H93.8328V33.654C93.8328 34.942 94.3928 35.502 95.3028 35.502C96.1988 35.502 96.7448 34.942 96.7448 33.654V30H98.3548V33.682C98.3548 35.936 97.2348 37.07 95.3168 37.07ZM100.173 39.1L101.881 35.516L99.1514 30H100.915L102.763 33.668L104.513 30H106.277L101.937 39.1H100.173ZM110.158 37.154C108.1 37.154 106.476 35.586 106.476 33.5C106.476 31.568 108.002 29.86 110.144 29.86C112.412 29.86 113.994 31.764 113.686 33.99H108.086C108.296 34.928 109.108 35.67 110.158 35.67C110.914 35.67 111.53 35.334 112.02 34.76L113.252 35.53C112.664 36.454 111.53 37.154 110.158 37.154ZM108.156 29.664L107.456 28.698L109.318 27.312H110.928L112.818 28.726L112.076 29.664L110.116 28.25L108.156 29.664ZM108.478 26.738L108.142 25.534L111.74 24.568L112.076 25.772L108.478 26.738ZM108.142 32.744H112.09C111.852 31.862 111.124 31.33 110.158 31.33C109.164 31.33 108.408 31.862 108.142 32.744ZM114.973 37V30H116.401V30.91C116.849 30.224 117.563 29.874 118.529 29.874C120.237 29.874 121.105 31.008 121.105 33.164V37H119.495V33.248C119.495 32.072 119.005 31.442 118.039 31.442C117.087 31.442 116.583 32.072 116.583 33.248V37H114.973ZM125.361 37L127.769 33.5L125.403 30H127.293L128.945 32.464L130.583 30H132.459L130.107 33.5L132.501 37H130.597L128.945 34.536L127.279 37H125.361ZM136.422 37.154C134.364 37.154 132.74 35.586 132.74 33.5C132.74 31.568 134.266 29.86 136.408 29.86C138.676 29.86 140.258 31.764 139.95 33.99H134.35C134.56 34.928 135.372 35.67 136.422 35.67C137.178 35.67 137.794 35.334 138.284 34.76L139.516 35.53C138.928 36.454 137.794 37.154 136.422 37.154ZM134.406 32.744H138.354C138.116 31.862 137.388 31.33 136.422 31.33C135.428 31.33 134.672 31.862 134.406 32.744ZM148.504 37.098C147.37 37.098 146.656 36.58 146.222 35.852L146.194 37H144.668V27.2H146.278V31.092C146.726 30.392 147.44 29.902 148.504 29.902C150.716 29.902 151.892 31.736 151.892 33.5C151.892 35.25 150.702 37.098 148.504 37.098ZM148.294 35.614C149.596 35.614 150.338 34.55 150.338 33.5C150.338 32.45 149.596 31.386 148.294 31.386C147.062 31.386 146.376 32.282 146.278 33.262L146.264 33.612C146.32 34.634 147.02 35.614 148.294 35.614ZM156.225 37.07C154.293 37.07 153.131 35.936 153.131 33.682V30H154.741V33.654C154.741 34.942 155.301 35.502 156.211 35.502C157.107 35.502 157.653 34.942 157.653 33.654V30H159.263V33.682C159.263 35.936 158.143 37.07 156.225 37.07ZM161.082 39.1L162.79 35.516L160.06 30H161.824L163.672 33.668L165.422 30H167.186L162.846 39.1H161.082ZM161.978 29.244L161.642 28.04L165.24 27.074L165.576 28.278L161.978 29.244ZM168.55 37V31.484H166.996V30H168.55V28.11H170.16V30H171.7V31.484H170.16V37H168.55Z" fill="white"/>
<defs>
<clipPath id="clip0_2703_22">
<rect width="44" height="28" fill="white" transform="translate(13 15)"/>
</clipPath>
</defs>
</svg>
