<svg width="268" height="114" viewBox="0 0 268 114" fill="none" xmlns="http://www.w3.org/2000/svg">
<rect width="268" height="114" rx="10" fill="#8CC63F"/>
<g clip-path="url(#clip0_2703_18)">
<path d="M56.9656 24.9903L56.9066 24.8696L55.6622 22.1948L53.0259 16.5536L52.3374 15.0804L52.3029 15H47.0304V15.0151H40.0315V15H34.7541V15.0151H26.6928V15H21.4154V15.0151H13.0295V17.0312H13V40.2246H18.0266V40.1392H19.6743C19.7579 41.7632 21.0219 43.005 22.6745 43.005C24.3271 43.005 25.5518 41.7682 25.6354 40.1392H43.863C43.9466 41.7632 45.2106 43.005 46.8632 43.005C48.5158 43.005 49.7404 41.7682 49.8241 40.1392H56.9902L56.9557 24.9903H56.9656ZM51.7324 25.0758L51.939 25.5182L52.2193 26.1165V27.4389H44.6892V24.9903L44.6302 24.8696L43.3859 22.1948L42.4612 20.2189H49.4601L51.7275 25.0758H51.7324ZM39.4561 25.0758L39.6626 25.5182L40.061 26.373L40.5578 27.4389H31.3456V24.9903L31.2866 24.8696L30.0423 22.1948L29.1176 20.2189H37.1838L39.4512 25.0758H39.4561ZM26.1174 25.0758L26.3239 25.5182L26.7223 26.373L27.2191 27.4389H18.0266V20.2189H23.8451L26.1125 25.0758H26.1174Z" fill="white"/>
</g>
<path d="M13.7 71V69.278L16.85 66.31C18.012 65.204 18.432 64.686 18.432 64.07C18.432 63.16 17.816 62.614 16.822 62.614C15.716 62.614 15.1 63.356 15.1 64.406V64.518H13.504V64.406C13.504 62.236 14.792 61.06 16.752 61.06C18.768 61.06 20.028 62.25 20.028 64.084C20.028 65.134 19.496 66.002 17.648 67.64L15.828 69.432H19.972V71H13.7ZM24.1622 71C22.2302 71 20.9142 69.684 20.9142 67.738H22.5242C22.5242 68.788 23.1962 69.474 24.1622 69.474C25.2402 69.474 25.8702 68.774 25.8702 67.808C25.8702 66.814 25.1562 66.086 24.0222 66.086H23.4342V65.05L25.3942 62.712H21.0542V61.2H27.2562V62.614L25.3102 65.022C26.5982 65.316 27.4662 66.408 27.4662 67.892C27.4662 69.67 26.1782 71 24.1622 71ZM28.7967 73.1V69.04H30.4067V73.1H28.7967ZM35.3699 71V69.278L38.5199 66.31C39.6819 65.204 40.1019 64.686 40.1019 64.07C40.1019 63.16 39.4859 62.614 38.4919 62.614C37.3859 62.614 36.7699 63.356 36.7699 64.406V64.518H35.1739V64.406C35.1739 62.236 36.4619 61.06 38.4219 61.06C40.4379 61.06 41.6979 62.25 41.6979 64.084C41.6979 65.134 41.1659 66.002 39.3179 67.64L37.4979 69.432H41.6419V71H35.3699ZM46.0505 71.14C44.4405 71.14 43.3065 70.202 42.8445 68.844L44.2025 68.466C44.5525 69.166 45.1685 69.67 46.0365 69.67C47.1985 69.67 47.8985 68.732 47.8985 67.808C47.8985 66.828 47.1705 66.044 46.0365 66.044C45.3365 66.044 44.6505 66.436 44.2445 66.716L42.9005 66.296V61.2H48.9065V62.754H44.4825L44.4965 65.204C44.8745 65.05 45.5045 64.756 46.1625 64.756C47.9825 64.756 49.3965 65.932 49.3965 67.836C49.3965 69.586 48.0945 71.14 46.0505 71.14ZM50.5487 73.1V69.04H52.1587V73.1H50.5487ZM60.1739 71C58.2419 71 56.9259 69.684 56.9259 67.738H58.5359C58.5359 68.788 59.2079 69.474 60.1739 69.474C61.2519 69.474 61.8819 68.774 61.8819 67.808C61.8819 66.814 61.1679 66.086 60.0339 66.086H59.4459V65.05L61.4059 62.712H57.0659V61.2H63.2679V62.614L61.3219 65.022C62.6099 65.316 63.4779 66.408 63.4779 67.892C63.4779 69.67 62.1899 71 60.1739 71ZM69.152 71.14C66.352 71.14 64.336 69.068 64.336 66.086C64.336 63.118 66.366 61.06 69.152 61.06C71.952 61.06 73.968 63.132 73.968 66.086C73.968 69.054 71.952 71.14 69.152 71.14ZM69.152 69.614C71.042 69.614 72.386 68.186 72.386 66.086C72.386 63.986 71.042 62.586 69.152 62.586C67.276 62.586 65.918 63.986 65.918 66.086C65.918 68.186 67.248 69.614 69.152 69.614ZM74.4334 73.1V69.04H76.0434V73.1H74.4334ZM84.0446 71.14C82.4346 71.14 81.3006 70.202 80.8386 68.844L82.1966 68.466C82.5466 69.166 83.1626 69.67 84.0306 69.67C85.1926 69.67 85.8926 68.732 85.8926 67.808C85.8926 66.828 85.1646 66.044 84.0306 66.044C83.3306 66.044 82.6446 66.436 82.2386 66.716L80.8946 66.296V61.2H86.9006V62.754H82.4766L82.4906 65.204C82.8686 65.05 83.4986 64.756 84.1566 64.756C85.9766 64.756 87.3906 65.932 87.3906 67.836C87.3906 69.586 86.0886 71.14 84.0446 71.14ZM93.0095 71.14C90.2095 71.14 88.1935 69.068 88.1935 66.086C88.1935 63.118 90.2235 61.06 93.0095 61.06C95.8095 61.06 97.8255 63.132 97.8255 66.086C97.8255 69.054 95.8095 71.14 93.0095 71.14ZM93.0095 69.614C94.8995 69.614 96.2435 68.186 96.2435 66.086C96.2435 63.986 94.8995 62.586 93.0095 62.586C91.1335 62.586 89.7755 63.986 89.7755 66.086C89.7755 68.186 91.1055 69.614 93.0095 69.614ZM98.2908 73.1V69.04H99.9008V73.1H98.2908ZM106.572 71V62.768H104.71V61.2H108.182V71H106.572ZM114.032 71V68.466H109.412V67.304L112.254 61.2H114.018L111.344 66.954H114.032V64H115.642V66.954H117.49V68.466H115.642V71H114.032ZM122.946 71V68.466H118.326V67.304L121.168 61.2H122.932L120.258 66.954H122.946V64H124.556V66.954H126.404V68.466H124.556V71H122.946Z" fill="white"/>
<path d="M87.828 37V28.684H85.49V27.2H91.762V28.684H89.438V37H87.828ZM95.3168 37.07C93.3848 37.07 92.2228 35.936 92.2228 33.682V30H93.8328V33.654C93.8328 34.942 94.3928 35.502 95.3028 35.502C96.1988 35.502 96.7448 34.942 96.7448 33.654V30H98.3548V33.682C98.3548 35.936 97.2348 37.07 95.3168 37.07ZM100.173 39.1L101.881 35.516L99.1514 30H100.915L102.763 33.668L104.513 30H106.277L101.937 39.1H100.173ZM110.158 37.154C108.1 37.154 106.476 35.586 106.476 33.5C106.476 31.568 108.002 29.86 110.144 29.86C112.412 29.86 113.994 31.764 113.686 33.99H108.086C108.296 34.928 109.108 35.67 110.158 35.67C110.914 35.67 111.53 35.334 112.02 34.76L113.252 35.53C112.664 36.454 111.53 37.154 110.158 37.154ZM108.156 29.664L107.456 28.698L109.318 27.312H110.928L112.818 28.726L112.076 29.664L110.116 28.25L108.156 29.664ZM108.478 26.738L108.142 25.534L111.74 24.568L112.076 25.772L108.478 26.738ZM108.142 32.744H112.09C111.852 31.862 111.124 31.33 110.158 31.33C109.164 31.33 108.408 31.862 108.142 32.744ZM114.973 37V30H116.401V30.91C116.849 30.224 117.563 29.874 118.529 29.874C120.237 29.874 121.105 31.008 121.105 33.164V37H119.495V33.248C119.495 32.072 119.005 31.442 118.039 31.442C117.087 31.442 116.583 32.072 116.583 33.248V37H114.973ZM125.361 37L127.769 33.5L125.403 30H127.293L128.945 32.464L130.583 30H132.459L130.107 33.5L132.501 37H130.597L128.945 34.536L127.279 37H125.361ZM136.422 37.154C134.364 37.154 132.74 35.586 132.74 33.5C132.74 31.568 134.266 29.86 136.408 29.86C138.676 29.86 140.258 31.764 139.95 33.99H134.35C134.56 34.928 135.372 35.67 136.422 35.67C137.178 35.67 137.794 35.334 138.284 34.76L139.516 35.53C138.928 36.454 137.794 37.154 136.422 37.154ZM134.406 32.744H138.354C138.116 31.862 137.388 31.33 136.422 31.33C135.428 31.33 134.672 31.862 134.406 32.744ZM148.504 37.098C147.37 37.098 146.656 36.58 146.222 35.852L146.194 37H144.668V27.2H146.278V31.092C146.726 30.392 147.44 29.902 148.504 29.902C150.716 29.902 151.892 31.736 151.892 33.5C151.892 35.25 150.702 37.098 148.504 37.098ZM148.294 35.614C149.596 35.614 150.338 34.55 150.338 33.5C150.338 32.45 149.596 31.386 148.294 31.386C147.062 31.386 146.376 32.282 146.278 33.262L146.264 33.612C146.32 34.634 147.02 35.614 148.294 35.614ZM156.225 37.07C154.293 37.07 153.131 35.936 153.131 33.682V30H154.741V33.654C154.741 34.942 155.301 35.502 156.211 35.502C157.107 35.502 157.653 34.942 157.653 33.654V30H159.263V33.682C159.263 35.936 158.143 37.07 156.225 37.07ZM161.082 39.1L162.79 35.516L160.06 30H161.824L163.672 33.668L165.422 30H167.186L162.846 39.1H161.082ZM161.978 29.244L161.642 28.04L165.24 27.074L165.576 28.278L161.978 29.244ZM168.55 37V31.484H166.996V30H168.55V28.11H170.16V30H171.7V31.484H170.16V37H168.55Z" fill="white"/>
<defs>
<clipPath id="clip0_2703_18">
<rect width="44" height="28" fill="white" transform="translate(13 15)"/>
</clipPath>
</defs>
</svg>
