<svg width="17" height="17" viewBox="0 0 17 17" fill="none" xmlns="http://www.w3.org/2000/svg">
<g clip-path="url(#clip0_2680_2171)">
<path d="M8.5825 2.89819C5.43141 2.89819 3.0752 5.29269 3.0752 8.50571C3.0752 11.7187 5.43141 14.2048 8.5825 14.2048C11.7336 14.2048 14.067 11.7874 14.067 8.50571C14.067 5.22401 11.7108 2.89819 8.5825 2.89819ZM8.54646 12.4896C6.05176 12.4896 4.65549 10.4805 4.65549 8.54387C4.65549 6.60728 6.05176 4.61346 8.54646 4.61346C11.0412 4.61346 12.4697 6.62446 12.4697 8.54387C12.4697 10.4633 11.0734 12.4896 8.54646 12.4896Z" fill="white"/>
<path d="M8.47451 0C7.81431 0 7.31348 0.503704 7.31348 1.16768C7.31348 1.83165 7.81431 2.32009 8.47451 2.32009C9.1347 2.32009 9.62036 1.81639 9.62036 1.16768C9.62036 0.518967 9.11952 0 8.47451 0Z" fill="white"/>
<path d="M8.47451 14.6799C7.81431 14.6799 7.31348 15.1836 7.31348 15.8476C7.31348 16.5116 7.81431 17 8.47451 17C9.1347 17 9.62036 16.4963 9.62036 15.8476C9.62036 15.1989 9.11952 14.6799 8.47451 14.6799Z" fill="white"/>
<path d="M2.59755 2.43646C1.93736 2.43646 1.43652 2.94017 1.43652 3.60414C1.43652 4.26811 1.93736 4.75655 2.59755 4.75655C3.25775 4.75655 3.74341 4.25285 3.74341 3.60414C3.74341 2.95543 3.24257 2.43646 2.59755 2.43646Z" fill="white"/>
<path d="M14.3837 2.43646C13.7235 2.43646 13.2227 2.94017 13.2227 3.60414C13.2227 4.26811 13.7235 4.75655 14.3837 4.75655C15.0439 4.75655 15.5295 4.25285 15.5295 3.60414C15.5295 2.95543 15.0287 2.43646 14.3837 2.43646Z" fill="white"/>
<path d="M2.59755 11.9515C1.93736 11.9515 1.43652 12.4552 1.43652 13.1192C1.43652 13.7832 1.93736 14.2716 2.59755 14.2716C3.25775 14.2716 3.74341 13.7679 3.74341 13.1192C3.74341 12.4705 3.24257 11.9515 2.59755 11.9515Z" fill="white"/>
<path d="M1.16103 7.35522C0.500837 7.35522 0 7.85893 0 8.5229C0 9.18687 0.500837 9.67531 1.16103 9.67531C1.82123 9.67531 2.30689 9.17161 2.30689 8.5229C2.30689 7.87419 1.80605 7.35522 1.16103 7.35522Z" fill="white"/>
<path d="M15.8544 7.35522C15.1942 7.35522 14.6934 7.85893 14.6934 8.5229C14.6934 9.18687 15.1942 9.67531 15.8544 9.67531C16.5146 9.67531 17.0002 9.17161 17.0002 8.5229C17.0002 7.87419 16.4994 7.35522 15.8544 7.35522Z" fill="white"/>
<path d="M14.3837 11.9515C13.7235 11.9515 13.2227 12.4552 13.2227 13.1192C13.2227 13.7832 13.7235 14.2716 14.3837 14.2716C15.0439 14.2716 15.5295 13.7679 15.5295 13.1192C15.5295 12.4705 15.0287 11.9515 14.3837 11.9515Z" fill="white"/>
</g>
<defs>
<clipPath id="clip0_2680_2171">
<rect width="17" height="17" fill="white"/>
</clipPath>
</defs>
</svg>
