<svg width="22" height="29" viewBox="0 0 22 29" fill="none" xmlns="http://www.w3.org/2000/svg">
<g clip-path="url(#clip0_2680_2327)">
<path d="M10.8468 5.72668C9.57844 5.72668 8.61621 6.6663 8.61621 7.90489C8.61621 9.14347 9.57844 10.0546 10.8468 10.0546C12.1152 10.0546 13.0483 9.115 13.0483 7.90489C13.0483 6.69477 12.0861 5.72668 10.8468 5.72668Z" fill="white"/>
<path d="M11 0C4.64712 0 0 4.59843 0 10.8625C0 14.2117 0.863817 15.8667 4.16965 20.4687L8.10239 25.7398L8.12061 25.7647L10.5699 29H11.8565L13.7117 26.3235V26.3164L17.1233 21.3549L17.896 20.2302L17.9142 20.248L19.7985 17.6071L19.8095 17.5929L20.174 17.0804C21.3403 15.3506 22 13.2187 22 10.8625C22 4.5664 17.3201 0 11 0ZM17.4112 15.0552L17.4003 15.0695C17.3857 15.1015 17.3675 15.13 17.3492 15.1584L17.3419 15.1513L12.7422 21.661C12.7422 21.661 12.7677 21.661 12.7823 21.6575L11.1349 24.0777L9.9831 22.3978L9.95394 22.3586L5.29589 16.034C5.05169 15.7528 4.82936 15.4539 4.63254 15.1335C3.87078 13.9234 3.44069 12.457 3.44069 10.8305C3.44069 6.44207 6.66269 3.23527 11 3.23527C15.3373 3.23527 18.5302 6.4136 18.5302 10.8305C18.5302 12.4179 18.1183 13.8665 17.4112 15.0552Z" fill="white"/>
</g>
<defs>
<clipPath id="clip0_2680_2327">
<rect width="22" height="29" fill="white"/>
</clipPath>
</defs>
</svg>
