<svg width="268" height="114" viewBox="0 0 268 114" fill="none" xmlns="http://www.w3.org/2000/svg">
<rect width="268" height="114" rx="10" fill="#8CC63F"/>
<g clip-path="url(#clip0_2703_43)">
<path d="M56.9656 24.9903L56.9066 24.8696L55.6622 22.1948L53.0259 16.5536L52.3374 15.0804L52.3029 15H47.0304V15.0151H40.0315V15H34.7541V15.0151H26.6928V15H21.4154V15.0151H13.0295V17.0312H13V40.2246H18.0266V40.1392H19.6743C19.7579 41.7632 21.0219 43.005 22.6745 43.005C24.3271 43.005 25.5518 41.7682 25.6354 40.1392H43.863C43.9466 41.7632 45.2106 43.005 46.8632 43.005C48.5158 43.005 49.7404 41.7682 49.8241 40.1392H56.9902L56.9557 24.9903H56.9656ZM51.7324 25.0758L51.939 25.5182L52.2193 26.1165V27.4389H44.6892V24.9903L44.6302 24.8696L43.3859 22.1948L42.4612 20.2189H49.4601L51.7275 25.0758H51.7324ZM39.4561 25.0758L39.6626 25.5182L40.061 26.373L40.5578 27.4389H31.3456V24.9903L31.2866 24.8696L30.0423 22.1948L29.1176 20.2189H37.1838L39.4512 25.0758H39.4561ZM26.1174 25.0758L26.3239 25.5182L26.7223 26.373L27.2191 27.4389H18.0266V20.2189H23.8451L26.1125 25.0758H26.1174Z" fill="white"/>
</g>
<path d="M18.32 70.14C15.52 70.14 13.504 68.068 13.504 65.086C13.504 62.118 15.534 60.06 18.32 60.06C21.12 60.06 23.136 62.132 23.136 65.086C23.136 68.054 21.12 70.14 18.32 70.14ZM18.32 68.614C20.21 68.614 21.554 67.186 21.554 65.086C21.554 62.986 20.21 61.586 18.32 61.586C16.444 61.586 15.086 62.986 15.086 65.086C15.086 67.186 16.416 68.614 18.32 68.614ZM25.4842 70V61.768H23.6222V60.2H27.0942V70H25.4842ZM28.6737 72.1V68.04H30.2837V72.1H28.6737ZM36.9549 70V61.768H35.0929V60.2H38.5649V70H36.9549ZM43.1824 60.06C45.1704 60.06 46.6264 61.446 46.6264 63.28C46.6264 64.05 46.4444 64.778 45.8564 65.758L43.3224 70H41.5164L43.4904 66.71L43.2104 66.724C41.2504 66.724 39.8784 65.31 39.8784 63.378C39.8784 61.46 41.2924 60.06 43.1824 60.06ZM43.2244 61.586C42.1884 61.586 41.3904 62.37 41.3904 63.42C41.3904 64.456 42.1744 65.24 43.2524 65.24C44.3164 65.24 45.1004 64.428 45.1004 63.392C45.1004 62.356 44.2884 61.586 43.2244 61.586ZM46.5975 72.1V68.04H48.2075V72.1H46.5975ZM53.1707 70V68.278L56.3207 65.31C57.4827 64.204 57.9027 63.686 57.9027 63.07C57.9027 62.16 57.2867 61.614 56.2927 61.614C55.1867 61.614 54.5707 62.356 54.5707 63.406V63.518H52.9747V63.406C52.9747 61.236 54.2627 60.06 56.2227 60.06C58.2387 60.06 59.4987 61.25 59.4987 63.084C59.4987 64.134 58.9667 65.002 57.1187 66.64L55.2987 68.432H59.4427V70H53.1707ZM62.3435 70V61.768H60.4815V60.2H63.9535V70H62.3435ZM64.553 70L68.627 60.2H70.545L74.605 70H72.897L71.889 67.536H67.269L66.275 70H64.553ZM67.885 66.024H71.287L69.579 61.838L67.885 66.024ZM75.8416 72.1V68.04H77.4516V72.1H75.8416ZM82.4148 70V68.278L85.5648 65.31C86.7268 64.204 87.1468 63.686 87.1468 63.07C87.1468 62.16 86.5308 61.614 85.5368 61.614C84.4308 61.614 83.8148 62.356 83.8148 63.406V63.518H82.2188V63.406C82.2188 61.236 83.5068 60.06 85.4668 60.06C87.4828 60.06 88.7428 61.25 88.7428 63.084C88.7428 64.134 88.2108 65.002 86.3628 66.64L84.5428 68.432H88.6868V70H82.4148ZM90.0574 70V68.278L93.2074 65.31C94.3694 64.204 94.7894 63.686 94.7894 63.07C94.7894 62.16 94.1734 61.614 93.1794 61.614C92.0734 61.614 91.4574 62.356 91.4574 63.406V63.518H89.8614V63.406C89.8614 61.236 91.1494 60.06 93.1094 60.06C95.1254 60.06 96.3854 61.25 96.3854 63.084C96.3854 64.134 95.8534 65.002 94.0054 66.64L92.1854 68.432H96.3294V70H90.0574ZM97.7693 70V60.2H100.737C102.879 60.2 104.027 61.264 104.027 62.846C104.027 63.728 103.663 64.47 102.949 64.96C103.803 65.45 104.251 66.248 104.251 67.214C104.251 68.866 103.075 70 100.821 70H97.7693ZM100.863 68.474C102.011 68.474 102.669 67.942 102.669 67.116C102.669 66.276 102.011 65.73 100.863 65.73H99.3793V68.474H100.863ZM100.765 64.26C101.843 64.26 102.445 63.756 102.445 62.986C102.445 62.216 101.843 61.726 100.765 61.726H99.3793V64.26H100.765ZM104.282 72.1L109.252 60.2H111.002L106.032 72.1H104.282ZM115.777 70.14C112.949 70.14 110.807 67.97 110.807 65.086C110.807 62.216 112.949 60.06 115.777 60.06C117.793 60.06 119.403 61.166 120.187 62.734L118.815 63.434C118.213 62.37 117.107 61.614 115.777 61.614C113.859 61.614 112.375 63.098 112.375 65.072C112.375 67.074 113.859 68.586 115.777 68.586C117.093 68.586 118.199 67.83 118.801 66.78L120.173 67.48C119.417 69.048 117.793 70.14 115.777 70.14ZM121.519 72.1V68.04H123.129V72.1H121.519ZM131.145 70C129.213 70 127.897 68.684 127.897 66.738H129.507C129.507 67.788 130.179 68.474 131.145 68.474C132.223 68.474 132.853 67.774 132.853 66.808C132.853 65.814 132.139 65.086 131.005 65.086H130.417V64.05L132.377 61.712H128.037V60.2H134.239V61.614L132.293 64.022C133.581 64.316 134.449 65.408 134.449 66.892C134.449 68.67 133.161 70 131.145 70ZM138.516 60.06C140.504 60.06 141.96 61.446 141.96 63.28C141.96 64.05 141.778 64.778 141.19 65.758L138.656 70H136.85L138.824 66.71L138.544 66.724C136.584 66.724 135.212 65.31 135.212 63.378C135.212 61.46 136.626 60.06 138.516 60.06ZM138.558 61.586C137.522 61.586 136.724 62.37 136.724 63.42C136.724 64.456 137.508 65.24 138.586 65.24C139.65 65.24 140.434 64.428 140.434 63.392C140.434 62.356 139.622 61.586 138.558 61.586ZM141.931 72.1V68.04H143.541V72.1H141.931ZM150.213 70V61.768H148.351V60.2H151.823V70H150.213ZM157.896 70.14C155.096 70.14 153.08 68.068 153.08 65.086C153.08 62.118 155.11 60.06 157.896 60.06C160.696 60.06 162.712 62.132 162.712 65.086C162.712 68.054 160.696 70.14 157.896 70.14ZM157.896 68.614C159.786 68.614 161.13 67.186 161.13 65.086C161.13 62.986 159.786 61.586 157.896 61.586C156.02 61.586 154.662 62.986 154.662 65.086C154.662 67.186 155.992 68.614 157.896 68.614ZM166.951 70.14C165.341 70.14 164.207 69.202 163.745 67.844L165.103 67.466C165.453 68.166 166.069 68.67 166.937 68.67C168.099 68.67 168.799 67.732 168.799 66.808C168.799 65.828 168.071 65.044 166.937 65.044C166.237 65.044 165.551 65.436 165.145 65.716L163.801 65.296V60.2H169.807V61.754H165.383L165.397 64.204C165.775 64.05 166.405 63.756 167.063 63.756C168.883 63.756 170.297 64.932 170.297 66.836C170.297 68.586 168.995 70.14 166.951 70.14Z" fill="white"/>
<path d="M87.828 37V28.684H85.49V27.2H91.762V28.684H89.438V37H87.828ZM95.3168 37.07C93.3848 37.07 92.2228 35.936 92.2228 33.682V30H93.8328V33.654C93.8328 34.942 94.3928 35.502 95.3028 35.502C96.1988 35.502 96.7448 34.942 96.7448 33.654V30H98.3548V33.682C98.3548 35.936 97.2348 37.07 95.3168 37.07ZM100.173 39.1L101.881 35.516L99.1514 30H100.915L102.763 33.668L104.513 30H106.277L101.937 39.1H100.173ZM110.158 37.154C108.1 37.154 106.476 35.586 106.476 33.5C106.476 31.568 108.002 29.86 110.144 29.86C112.412 29.86 113.994 31.764 113.686 33.99H108.086C108.296 34.928 109.108 35.67 110.158 35.67C110.914 35.67 111.53 35.334 112.02 34.76L113.252 35.53C112.664 36.454 111.53 37.154 110.158 37.154ZM108.156 29.664L107.456 28.698L109.318 27.312H110.928L112.818 28.726L112.076 29.664L110.116 28.25L108.156 29.664ZM108.478 26.738L108.142 25.534L111.74 24.568L112.076 25.772L108.478 26.738ZM108.142 32.744H112.09C111.852 31.862 111.124 31.33 110.158 31.33C109.164 31.33 108.408 31.862 108.142 32.744ZM114.973 37V30H116.401V30.91C116.849 30.224 117.563 29.874 118.529 29.874C120.237 29.874 121.105 31.008 121.105 33.164V37H119.495V33.248C119.495 32.072 119.005 31.442 118.039 31.442C117.087 31.442 116.583 32.072 116.583 33.248V37H114.973ZM125.361 37L127.769 33.5L125.403 30H127.293L128.945 32.464L130.583 30H132.459L130.107 33.5L132.501 37H130.597L128.945 34.536L127.279 37H125.361ZM136.422 37.154C134.364 37.154 132.74 35.586 132.74 33.5C132.74 31.568 134.266 29.86 136.408 29.86C138.676 29.86 140.258 31.764 139.95 33.99H134.35C134.56 34.928 135.372 35.67 136.422 35.67C137.178 35.67 137.794 35.334 138.284 34.76L139.516 35.53C138.928 36.454 137.794 37.154 136.422 37.154ZM134.406 32.744H138.354C138.116 31.862 137.388 31.33 136.422 31.33C135.428 31.33 134.672 31.862 134.406 32.744ZM148.504 37.098C147.37 37.098 146.656 36.58 146.222 35.852L146.194 37H144.668V27.2H146.278V31.092C146.726 30.392 147.44 29.902 148.504 29.902C150.716 29.902 151.892 31.736 151.892 33.5C151.892 35.25 150.702 37.098 148.504 37.098ZM148.294 35.614C149.596 35.614 150.338 34.55 150.338 33.5C150.338 32.45 149.596 31.386 148.294 31.386C147.062 31.386 146.376 32.282 146.278 33.262L146.264 33.612C146.32 34.634 147.02 35.614 148.294 35.614ZM156.225 37.07C154.293 37.07 153.131 35.936 153.131 33.682V30H154.741V33.654C154.741 34.942 155.301 35.502 156.211 35.502C157.107 35.502 157.653 34.942 157.653 33.654V30H159.263V33.682C159.263 35.936 158.143 37.07 156.225 37.07ZM161.082 39.1L162.79 35.516L160.06 30H161.824L163.672 33.668L165.422 30H167.186L162.846 39.1H161.082ZM161.978 29.244L161.642 28.04L165.24 27.074L165.576 28.278L161.978 29.244ZM168.55 37V31.484H166.996V30H168.55V28.11H170.16V30H171.7V31.484H170.16V37H168.55Z" fill="white"/>
<defs>
<clipPath id="clip0_2703_43">
<rect width="44" height="28" fill="white" transform="translate(13 15)"/>
</clipPath>
</defs>
</svg>
