<svg width="21" height="21" viewBox="0 0 21 21" fill="none" xmlns="http://www.w3.org/2000/svg">
<g clip-path="url(#clip0_2680_2022)">
<path d="M0 8.11702C0 3.43617 3.44373 0 8.15151 0C12.8593 0 16.303 3.41489 16.303 8.11702C16.303 10.0612 15.9465 11.5106 14.912 12.8697L21 18.8856L18.9176 21L12.8296 14.984C11.498 15.9122 9.98817 16.2793 8.15151 16.2793C3.44373 16.2766 0 12.8191 0 8.11702ZM13.729 8.09309C13.729 4.92819 11.363 2.41755 8.14881 2.41755C4.93466 2.41755 2.54971 4.81649 2.54971 8.09309C2.54971 11.3697 4.93736 13.7793 8.15151 13.7793C11.6439 13.7793 13.7317 11.1197 13.7317 8.09309H13.729Z" fill="white"/>
</g>
<defs>
<clipPath id="clip0_2680_2022">
<rect width="21" height="21" fill="white"/>
</clipPath>
</defs>
</svg>
