<svg width="268" height="114" viewBox="0 0 268 114" fill="none" xmlns="http://www.w3.org/2000/svg">
<rect width="268" height="114" rx="10" fill="#8CC63F"/>
<g clip-path="url(#clip0_2703_21)">
<path d="M56.9656 24.9903L56.9066 24.8696L55.6622 22.1948L53.0259 16.5536L52.3374 15.0804L52.3029 15H47.0304V15.0151H40.0315V15H34.7541V15.0151H26.6928V15H21.4154V15.0151H13.0295V17.0312H13V40.2246H18.0266V40.1392H19.6743C19.7579 41.7632 21.0219 43.005 22.6745 43.005C24.3271 43.005 25.5518 41.7682 25.6354 40.1392H43.863C43.9466 41.7632 45.2106 43.005 46.8632 43.005C48.5158 43.005 49.7404 41.7682 49.8241 40.1392H56.9902L56.9557 24.9903H56.9656ZM51.7324 25.0758L51.939 25.5182L52.2193 26.1165V27.4389H44.6892V24.9903L44.6302 24.8696L43.3859 22.1948L42.4612 20.2189H49.4601L51.7275 25.0758H51.7324ZM39.4561 25.0758L39.6626 25.5182L40.061 26.373L40.5578 27.4389H31.3456V24.9903L31.2866 24.8696L30.0423 22.1948L29.1176 20.2189H37.1838L39.4512 25.0758H39.4561ZM26.1174 25.0758L26.3239 25.5182L26.7223 26.373L27.2191 27.4389H18.0266V20.2189H23.8451L26.1125 25.0758H26.1174Z" fill="white"/>
</g>
<path d="M15.408 71V62.768H13.546V61.2H17.018V71H15.408ZM18.4715 71V69.278L21.6215 66.31C22.7835 65.204 23.2035 64.686 23.2035 64.07C23.2035 63.16 22.5875 62.614 21.5935 62.614C20.4875 62.614 19.8715 63.356 19.8715 64.406V64.518H18.2755V64.406C18.2755 62.236 19.5635 61.06 21.5235 61.06C23.5395 61.06 24.7995 62.25 24.7995 64.084C24.7995 65.134 24.2675 66.002 22.4195 67.64L20.5995 69.432H24.7435V71H18.4715ZM26.2127 73.1V69.04H27.8227V73.1H26.2127ZM32.7859 71V69.278L35.9359 66.31C37.0979 65.204 37.5179 64.686 37.5179 64.07C37.5179 63.16 36.9019 62.614 35.9079 62.614C34.8019 62.614 34.1859 63.356 34.1859 64.406V64.518H32.5899V64.406C32.5899 62.236 33.8779 61.06 35.8379 61.06C37.8539 61.06 39.1139 62.25 39.1139 64.084C39.1139 65.134 38.5819 66.002 36.7339 67.64L34.9139 69.432H39.0579V71H32.7859ZM41.9588 71V62.768H40.0968V61.2H43.5688V71H41.9588ZM44.1683 71L48.2423 61.2H50.1603L54.2203 71H52.5123L51.5043 68.536H46.8843L45.8903 71H44.1683ZM47.5003 67.024H50.9023L49.1943 62.838L47.5003 67.024ZM55.4569 73.1V69.04H57.0669V73.1H55.4569ZM62.0301 71V69.278L65.1801 66.31C66.3421 65.204 66.7621 64.686 66.7621 64.07C66.7621 63.16 66.1461 62.614 65.1521 62.614C64.0461 62.614 63.4301 63.356 63.4301 64.406V64.518H61.8341V64.406C61.8341 62.236 63.1221 61.06 65.0821 61.06C67.0981 61.06 68.3581 62.25 68.3581 64.084C68.3581 65.134 67.8261 66.002 65.9781 67.64L64.1581 69.432H68.3021V71H62.0301ZM72.7032 71.14C70.7152 71.14 69.2592 69.754 69.2592 67.92C69.2592 67.15 69.4412 66.422 70.0292 65.442L72.5632 61.2H74.3692L72.3952 64.49L72.6752 64.476C74.6352 64.476 76.0072 65.89 76.0072 67.822C76.0072 69.74 74.5932 71.14 72.7032 71.14ZM72.6612 69.614C73.6972 69.614 74.4952 68.83 74.4952 67.78C74.4952 66.744 73.7112 65.96 72.6332 65.96C71.5692 65.96 70.7852 66.772 70.7852 67.808C70.7852 68.844 71.5972 69.614 72.6612 69.614ZM77.3865 73.1V69.04H78.9965V73.1H77.3865ZM87.0118 71C85.0798 71 83.7638 69.684 83.7638 67.738H85.3738C85.3738 68.788 86.0458 69.474 87.0118 69.474C88.0898 69.474 88.7198 68.774 88.7198 67.808C88.7198 66.814 88.0058 66.086 86.8718 66.086H86.2838V65.05L88.2438 62.712H83.9038V61.2H90.1058V62.614L88.1598 65.022C89.4478 65.316 90.3158 66.408 90.3158 67.892C90.3158 69.67 89.0278 71 87.0118 71ZM95.9899 71.14C93.1899 71.14 91.1739 69.068 91.1739 66.086C91.1739 63.118 93.2039 61.06 95.9899 61.06C98.7899 61.06 100.806 63.132 100.806 66.086C100.806 69.054 98.7899 71.14 95.9899 71.14ZM95.9899 69.614C97.8799 69.614 99.2239 68.186 99.2239 66.086C99.2239 63.986 97.8799 62.586 95.9899 62.586C94.1139 62.586 92.7559 63.986 92.7559 66.086C92.7559 68.186 94.0859 69.614 95.9899 69.614ZM101.271 73.1V69.04H102.881V73.1H101.271ZM110.897 71C108.965 71 107.649 69.684 107.649 67.738H109.259C109.259 68.788 109.931 69.474 110.897 69.474C111.975 69.474 112.605 68.774 112.605 67.808C112.605 66.814 111.891 66.086 110.757 66.086H110.169V65.05L112.129 62.712H107.789V61.2H113.991V62.614L112.045 65.022C113.333 65.316 114.201 66.408 114.201 67.892C114.201 69.67 112.913 71 110.897 71ZM118.443 71.14C116.833 71.14 115.699 70.202 115.237 68.844L116.595 68.466C116.945 69.166 117.561 69.67 118.429 69.67C119.591 69.67 120.291 68.732 120.291 67.808C120.291 66.828 119.563 66.044 118.429 66.044C117.729 66.044 117.043 66.436 116.637 66.716L115.293 66.296V61.2H121.299V62.754H116.875L116.889 65.204C117.267 65.05 117.897 64.756 118.555 64.756C120.375 64.756 121.789 65.932 121.789 67.836C121.789 69.586 120.487 71.14 118.443 71.14ZM121.961 71L126.035 61.2H127.953L132.013 71H130.305L129.297 68.536H124.677L123.683 71H121.961ZM125.293 67.024H128.695L126.987 62.838L125.293 67.024ZM133.25 73.1V69.04H134.86V73.1H133.25ZM142.861 71.14C141.251 71.14 140.117 70.202 139.655 68.844L141.013 68.466C141.363 69.166 141.979 69.67 142.847 69.67C144.009 69.67 144.709 68.732 144.709 67.808C144.709 66.828 143.981 66.044 142.847 66.044C142.147 66.044 141.461 66.436 141.055 66.716L139.711 66.296V61.2H145.717V62.754H141.293L141.307 65.204C141.685 65.05 142.315 64.756 142.973 64.756C144.793 64.756 146.207 65.932 146.207 67.836C146.207 69.586 144.905 71.14 142.861 71.14ZM151.826 71.14C149.026 71.14 147.01 69.068 147.01 66.086C147.01 63.118 149.04 61.06 151.826 61.06C154.626 61.06 156.642 63.132 156.642 66.086C156.642 69.054 154.626 71.14 151.826 71.14ZM151.826 69.614C153.716 69.614 155.06 68.186 155.06 66.086C155.06 63.986 153.716 62.586 151.826 62.586C149.95 62.586 148.592 63.986 148.592 66.086C148.592 68.186 149.922 69.614 151.826 69.614ZM157.107 73.1V69.04H158.717V73.1H157.107ZM165.388 71V62.768H163.526V61.2H166.998V71H165.388ZM172.848 71V68.466H168.228V67.304L171.07 61.2H172.834L170.16 66.954H172.848V64H174.458V66.954H176.306V68.466H174.458V71H172.848ZM181.762 71V68.466H177.142V67.304L179.984 61.2H181.748L179.074 66.954H181.762V64H183.372V66.954H185.22V68.466H183.372V71H181.762Z" fill="white"/>
<path d="M87.828 37V28.684H85.49V27.2H91.762V28.684H89.438V37H87.828ZM95.3168 37.07C93.3848 37.07 92.2228 35.936 92.2228 33.682V30H93.8328V33.654C93.8328 34.942 94.3928 35.502 95.3028 35.502C96.1988 35.502 96.7448 34.942 96.7448 33.654V30H98.3548V33.682C98.3548 35.936 97.2348 37.07 95.3168 37.07ZM100.173 39.1L101.881 35.516L99.1514 30H100.915L102.763 33.668L104.513 30H106.277L101.937 39.1H100.173ZM110.158 37.154C108.1 37.154 106.476 35.586 106.476 33.5C106.476 31.568 108.002 29.86 110.144 29.86C112.412 29.86 113.994 31.764 113.686 33.99H108.086C108.296 34.928 109.108 35.67 110.158 35.67C110.914 35.67 111.53 35.334 112.02 34.76L113.252 35.53C112.664 36.454 111.53 37.154 110.158 37.154ZM108.156 29.664L107.456 28.698L109.318 27.312H110.928L112.818 28.726L112.076 29.664L110.116 28.25L108.156 29.664ZM108.478 26.738L108.142 25.534L111.74 24.568L112.076 25.772L108.478 26.738ZM108.142 32.744H112.09C111.852 31.862 111.124 31.33 110.158 31.33C109.164 31.33 108.408 31.862 108.142 32.744ZM114.973 37V30H116.401V30.91C116.849 30.224 117.563 29.874 118.529 29.874C120.237 29.874 121.105 31.008 121.105 33.164V37H119.495V33.248C119.495 32.072 119.005 31.442 118.039 31.442C117.087 31.442 116.583 32.072 116.583 33.248V37H114.973ZM125.361 37L127.769 33.5L125.403 30H127.293L128.945 32.464L130.583 30H132.459L130.107 33.5L132.501 37H130.597L128.945 34.536L127.279 37H125.361ZM136.422 37.154C134.364 37.154 132.74 35.586 132.74 33.5C132.74 31.568 134.266 29.86 136.408 29.86C138.676 29.86 140.258 31.764 139.95 33.99H134.35C134.56 34.928 135.372 35.67 136.422 35.67C137.178 35.67 137.794 35.334 138.284 34.76L139.516 35.53C138.928 36.454 137.794 37.154 136.422 37.154ZM134.406 32.744H138.354C138.116 31.862 137.388 31.33 136.422 31.33C135.428 31.33 134.672 31.862 134.406 32.744ZM148.504 37.098C147.37 37.098 146.656 36.58 146.222 35.852L146.194 37H144.668V27.2H146.278V31.092C146.726 30.392 147.44 29.902 148.504 29.902C150.716 29.902 151.892 31.736 151.892 33.5C151.892 35.25 150.702 37.098 148.504 37.098ZM148.294 35.614C149.596 35.614 150.338 34.55 150.338 33.5C150.338 32.45 149.596 31.386 148.294 31.386C147.062 31.386 146.376 32.282 146.278 33.262L146.264 33.612C146.32 34.634 147.02 35.614 148.294 35.614ZM156.225 37.07C154.293 37.07 153.131 35.936 153.131 33.682V30H154.741V33.654C154.741 34.942 155.301 35.502 156.211 35.502C157.107 35.502 157.653 34.942 157.653 33.654V30H159.263V33.682C159.263 35.936 158.143 37.07 156.225 37.07ZM161.082 39.1L162.79 35.516L160.06 30H161.824L163.672 33.668L165.422 30H167.186L162.846 39.1H161.082ZM161.978 29.244L161.642 28.04L165.24 27.074L165.576 28.278L161.978 29.244ZM168.55 37V31.484H166.996V30H168.55V28.11H170.16V30H171.7V31.484H170.16V37H168.55Z" fill="white"/>
<defs>
<clipPath id="clip0_2703_21">
<rect width="44" height="28" fill="white" transform="translate(13 15)"/>
</clipPath>
</defs>
</svg>
