<svg width="268" height="312" viewBox="0 0 268 312" fill="none" xmlns="http://www.w3.org/2000/svg">
<path d="M0 10C0 4.47715 4.47715 0 10 0H258C263.523 0 268 4.47715 268 10V61H0V10Z" fill="#6FCFEE"/>
<path d="M0 61L268 61L268 302C268 307.523 263.523 312 258 312H10C4.47715 312 -1.18971e-05 307.523 -1.16306e-05 302L0 61Z" fill="#F5F5F5"/>
<g clip-path="url(#clip0_2703_19)">
<path d="M36.465 42.2438H25.5342V46H36.465V42.2438Z" fill="#143F9A"/>
<path d="M41.9818 17.7379L38.5978 14H23.526L20.0327 17.7232H20V17.7526V36.4824L23.5332 40.1283V40.1651H38.4376V40.1577L41.9964 36.5339V17.7379H41.9782H41.9818ZM38.4413 17.7563V20.2985H23.5587V17.7563H38.4413ZM28.995 33.5061H33.2015V36.4162H28.995V33.5061ZM38.4413 29.7498H23.5587V23.0099H38.4413V29.7498Z" fill="#143F9A"/>
</g>
<path d="M208.756 47V38.6H209.884L214.636 45.056V38.6H215.776V47H214.636L209.896 40.544V47H208.756ZM220.06 49.244C218.68 49.244 217.708 48.56 217.276 47.48L218.2 47.072C218.536 47.768 219.124 48.188 220.012 48.188C221.056 48.188 221.884 47.576 221.884 46.136V45.356C221.476 46.016 220.768 46.496 219.688 46.496C217.924 46.496 217.024 45.032 217.024 43.712C217.024 42.356 217.924 40.868 219.7 40.868C220.744 40.868 221.428 41.336 221.848 41.984V41H222.916V46.028C222.916 48.176 221.836 49.244 220.06 49.244ZM219.952 45.5C221.116 45.5 221.764 44.552 221.764 43.652C221.764 42.788 221.116 41.864 219.952 41.864C218.776 41.864 218.152 42.8 218.152 43.652C218.152 44.552 218.776 45.5 219.952 45.5ZM227.1 47.084C225.18 47.084 224.184 45.488 224.184 44C224.184 42.5 225.18 40.916 227.076 40.916C228.204 40.916 228.912 41.48 229.296 42.248V41H230.376V47H229.296V45.776C228.912 46.52 228.228 47.084 227.1 47.084ZM227.232 46.04C228.528 46.04 229.164 44.984 229.164 43.988C229.164 42.992 228.528 41.96 227.232 41.96C225.972 41.96 225.276 43.004 225.276 44C225.276 44.984 225.972 46.04 227.232 46.04ZM228.984 40.268L226.056 39.38L226.332 38.516L229.26 39.392L228.984 40.268ZM232.129 48.8L233.641 45.704L231.253 41H232.513L234.277 44.408L235.945 41H237.193L233.377 48.8H232.129ZM241.17 47V38.6H242.31V47H241.17ZM246.687 47.132C244.947 47.132 243.555 45.788 243.555 43.988C243.555 42.404 244.791 40.88 246.663 40.88C248.595 40.88 249.891 42.524 249.675 44.348H244.683C244.839 45.308 245.655 46.064 246.687 46.064C247.383 46.064 247.983 45.752 248.415 45.236L249.255 45.836C248.739 46.58 247.803 47.132 246.687 47.132ZM244.959 40.652L244.455 39.944L246.063 38.732H247.239L248.871 39.968L248.319 40.652L246.639 39.428L244.959 40.652ZM247.491 38.144C246.999 38.144 246.687 37.94 246.423 37.76C246.183 37.592 246.051 37.52 245.859 37.52C245.631 37.52 245.475 37.652 245.475 37.94V38.132H244.659V37.844C244.659 37.22 245.031 36.764 245.751 36.764C246.231 36.764 246.519 36.932 246.831 37.148C247.035 37.28 247.203 37.388 247.371 37.388C247.587 37.388 247.743 37.244 247.743 36.992V36.788H248.559V37.076C248.559 37.676 248.187 38.144 247.491 38.144ZM244.719 43.4H248.535C248.343 42.536 247.671 41.936 246.663 41.936C245.643 41.936 244.935 42.548 244.719 43.4Z" fill="white"/>
<path d="M87.532 29V21.644H85.456V20.6H90.736V21.644H88.672V29H87.532ZM91.9318 29V20.6H93.0118V24.044C93.3238 23.288 93.9478 22.904 94.8238 22.904C96.2998 22.904 97.0558 23.804 97.0558 25.64V29H95.9158V25.76C95.9158 24.62 95.4238 24.02 94.4878 24.02C93.5518 24.02 93.0718 24.62 93.0718 25.76V29H91.9318ZM101.098 29.06C99.478 29.06 98.506 28.112 98.506 26.204V23H99.646V26.18C99.646 27.404 100.198 27.944 101.086 27.944C101.95 27.944 102.49 27.404 102.49 26.18V23H103.258C103.606 23 103.726 22.928 103.726 22.52V21.8H104.602V22.52C104.602 23.348 104.338 23.672 103.63 23.756V26.204C103.63 28.112 102.682 29.06 101.098 29.06ZM99.73 22.268L99.454 21.392L102.382 20.516L102.658 21.38L99.73 22.268ZM108.067 29V27.776L110.839 25.112C111.871 24.104 112.267 23.588 112.267 23.012C112.267 22.124 111.667 21.584 110.695 21.584C109.639 21.584 109.027 22.268 109.027 23.3V23.384H107.899V23.3C107.899 21.476 108.991 20.48 110.647 20.48C112.339 20.48 113.395 21.476 113.395 23.024C113.395 23.912 112.915 24.68 111.403 26.06L109.579 27.884H113.371V29H108.067Z" fill="white"/>
<path d="M143.532 29V21.644H141.456V20.6H146.736V21.644H144.672V29H143.532ZM147.932 29V20.6H149.012V24.044C149.324 23.288 149.948 22.904 150.824 22.904C152.3 22.904 153.056 23.804 153.056 25.64V29H151.916V25.76C151.916 24.62 151.424 24.02 150.488 24.02C149.552 24.02 149.072 24.62 149.072 25.76V29H147.932ZM157.098 29.06C155.478 29.06 154.506 28.112 154.506 26.204V23H155.646V26.18C155.646 27.404 156.198 27.944 157.086 27.944C157.95 27.944 158.49 27.404 158.49 26.18V23H159.258C159.606 23 159.726 22.928 159.726 22.52V21.8H160.602V22.52C160.602 23.348 160.338 23.672 159.63 23.756V26.204C159.63 28.112 158.682 29.06 157.098 29.06ZM155.73 22.268L155.454 21.392L158.382 20.516L158.658 21.38L155.73 22.268ZM164.283 29L167.811 21.704H163.779V20.6H169.503L165.507 29H164.283Z" fill="white"/>
<path d="M87.532 47V39.644H85.456V38.6H90.736V39.644H88.672V47H87.532ZM91.9318 47V38.6H93.0118V42.044C93.3238 41.288 93.9478 40.904 94.8238 40.904C96.2998 40.904 97.0558 41.804 97.0558 43.64V47H95.9158V43.76C95.9158 42.62 95.4238 42.02 94.4878 42.02C93.5518 42.02 93.0718 42.62 93.0718 43.76V47H91.9318ZM101.098 47.06C99.478 47.06 98.506 46.112 98.506 44.204V41H99.646V44.18C99.646 45.404 100.198 45.944 101.086 45.944C101.95 45.944 102.49 45.404 102.49 44.18V41H103.258C103.606 41 103.726 40.928 103.726 40.52V39.8H104.602V40.52C104.602 41.348 104.338 41.672 103.63 41.756V44.204C103.63 46.112 102.682 47.06 101.098 47.06ZM99.73 40.268L99.454 39.392L102.382 38.516L102.658 39.38L99.73 40.268ZM110.839 47.108C109.183 47.108 107.947 45.944 107.947 44.396C107.947 43.748 108.091 43.112 108.595 42.284L110.839 38.6H112.123L110.335 41.516C110.491 41.492 110.647 41.48 110.815 41.48C112.471 41.48 113.635 42.68 113.635 44.3C113.635 45.92 112.447 47.108 110.839 47.108ZM110.815 46.04C111.811 46.04 112.567 45.272 112.567 44.276C112.567 43.28 111.811 42.524 110.791 42.524C109.771 42.524 109.027 43.304 109.027 44.312C109.027 45.296 109.795 46.04 110.815 46.04Z" fill="white"/>
<path d="M12.136 86.5V79.204H10.54V78.1H13.276V86.5H12.136ZM18.6035 86.62C16.2275 86.62 14.5355 84.856 14.5355 82.288C14.5355 79.72 16.2395 77.98 18.6035 77.98C20.9795 77.98 22.6835 79.732 22.6835 82.288C22.6835 84.856 20.9795 86.62 18.6035 86.62ZM18.6035 85.54C20.3435 85.54 21.5555 84.232 21.5555 82.288C21.5555 80.344 20.3315 79.06 18.6035 79.06C16.8755 79.06 15.6515 80.332 15.6515 82.288C15.6515 84.232 16.8635 85.54 18.6035 85.54ZM27.1556 86.584C26.0996 86.584 25.4516 86.02 25.0796 85.276V88.3H23.9396V80.5H25.0076L25.0316 81.82C25.4036 81.028 26.0756 80.404 27.1556 80.404C29.0636 80.404 30.0596 82 30.0596 83.488C30.0596 84.976 29.0636 86.584 27.1556 86.584ZM26.9996 85.54C28.2836 85.54 28.9556 84.484 28.9556 83.488C28.9556 82.504 28.2836 81.46 26.9996 81.46C25.7636 81.46 25.0796 82.552 25.0796 83.488C25.0796 84.412 25.7636 85.54 26.9996 85.54ZM33.5756 88.3L37.9436 78.1H39.1796L34.8116 88.3H33.5756ZM13.552 101.62C11.812 101.62 10.504 100.264 10.504 98.488C10.504 96.724 11.812 95.38 13.564 95.38C14.788 95.38 15.796 96.052 16.24 97.048L15.292 97.516C14.932 96.904 14.332 96.484 13.564 96.484C12.448 96.484 11.62 97.336 11.62 98.488C11.62 99.64 12.448 100.504 13.552 100.504C14.32 100.504 14.908 100.084 15.28 99.484L16.228 99.952C15.784 100.96 14.776 101.62 13.552 101.62ZM17.424 101.5V93.1H18.504V96.544C18.816 95.788 19.44 95.404 20.316 95.404C21.792 95.404 22.548 96.304 22.548 98.14V101.5H21.408V98.26C21.408 97.12 20.916 96.52 19.98 96.52C19.044 96.52 18.564 97.12 18.564 98.26V101.5H17.424ZM26.5902 101.56C24.9702 101.56 23.9982 100.612 23.9982 98.704V95.5H25.1382V98.68C25.1382 99.904 25.6902 100.444 26.5782 100.444C27.4422 100.444 27.9822 99.904 27.9822 98.68V95.5H29.1222V98.704C29.1222 100.612 28.1742 101.56 26.5902 101.56ZM30.871 103.3L32.383 100.204L29.995 95.5H31.255L33.019 98.908L34.687 95.5H35.935L32.119 103.3H30.871ZM39.429 101.632C37.689 101.632 36.297 100.288 36.297 98.488C36.297 96.904 37.533 95.38 39.405 95.38C41.337 95.38 42.633 97.024 42.417 98.848H37.425C37.581 99.808 38.397 100.564 39.429 100.564C40.125 100.564 40.725 100.252 41.157 99.736L41.997 100.336C41.481 101.08 40.545 101.632 39.429 101.632ZM37.701 95.152L37.197 94.444L38.805 93.232H39.981L41.613 94.468L41.061 95.152L39.381 93.928L37.701 95.152ZM38.049 92.692L37.773 91.816L40.701 90.94L40.977 91.804L38.049 92.692ZM37.461 97.9H41.277C41.085 97.036 40.413 96.436 39.405 96.436C38.385 96.436 37.677 97.048 37.461 97.9ZM43.674 101.5V95.5H44.694V96.376C45.066 95.716 45.702 95.38 46.59 95.38C48.042 95.38 48.798 96.352 48.798 98.2V101.5H47.658V98.26C47.658 97.108 47.178 96.496 46.242 96.496C45.306 96.496 44.814 97.108 44.814 98.26V101.5H43.674Z" fill="#005AAB"/>
<path d="M13.456 140.608C11.8 140.608 10.564 139.444 10.564 137.896C10.564 137.248 10.708 136.612 11.212 135.784L13.456 132.1H14.74L12.952 135.016C13.108 134.992 13.264 134.98 13.432 134.98C15.088 134.98 16.252 136.18 16.252 137.8C16.252 139.42 15.064 140.608 13.456 140.608ZM13.432 139.54C14.428 139.54 15.184 138.772 15.184 137.776C15.184 136.78 14.428 136.024 13.408 136.024C12.388 136.024 11.644 136.804 11.644 137.812C11.644 138.796 12.412 139.54 13.432 139.54ZM20.7923 140.584C19.7363 140.584 19.0883 140.02 18.7163 139.276V142.3H17.5763V134.5H18.6443L18.6683 135.82C19.0403 135.028 19.7123 134.404 20.7923 134.404C22.7003 134.404 23.6963 136 23.6963 137.488C23.6963 138.976 22.7003 140.584 20.7923 140.584ZM20.6363 139.54C21.9203 139.54 22.5923 138.484 22.5923 137.488C22.5923 136.504 21.9203 135.46 20.6363 135.46C19.4003 135.46 18.7163 136.552 18.7163 137.488C18.7163 138.412 19.4003 139.54 20.6363 139.54ZM27.2123 142.3L31.5803 132.1H32.8163L28.4483 142.3H27.2123ZM13.552 155.62C11.812 155.62 10.504 154.264 10.504 152.488C10.504 150.724 11.812 149.38 13.564 149.38C14.788 149.38 15.796 150.052 16.24 151.048L15.292 151.516C14.932 150.904 14.332 150.484 13.564 150.484C12.448 150.484 11.62 151.336 11.62 152.488C11.62 153.64 12.448 154.504 13.552 154.504C14.32 154.504 14.908 154.084 15.28 153.484L16.228 153.952C15.784 154.96 14.776 155.62 13.552 155.62ZM17.424 155.5V147.1H18.504V150.544C18.816 149.788 19.44 149.404 20.316 149.404C21.792 149.404 22.548 150.304 22.548 152.14V155.5H21.408V152.26C21.408 151.12 20.916 150.52 19.98 150.52C19.044 150.52 18.564 151.12 18.564 152.26V155.5H17.424ZM26.5902 155.56C24.9702 155.56 23.9982 154.612 23.9982 152.704V149.5H25.1382V152.68C25.1382 153.904 25.6902 154.444 26.5782 154.444C27.4422 154.444 27.9822 153.904 27.9822 152.68V149.5H29.1222V152.704C29.1222 154.612 28.1742 155.56 26.5902 155.56ZM30.871 157.3L32.383 154.204L29.995 149.5H31.255L33.019 152.908L34.687 149.5H35.935L32.119 157.3H30.871ZM39.429 155.632C37.689 155.632 36.297 154.288 36.297 152.488C36.297 150.904 37.533 149.38 39.405 149.38C41.337 149.38 42.633 151.024 42.417 152.848H37.425C37.581 153.808 38.397 154.564 39.429 154.564C40.125 154.564 40.725 154.252 41.157 153.736L41.997 154.336C41.481 155.08 40.545 155.632 39.429 155.632ZM37.701 149.152L37.197 148.444L38.805 147.232H39.981L41.613 148.468L41.061 149.152L39.381 147.928L37.701 149.152ZM38.049 146.692L37.773 145.816L40.701 144.94L40.977 145.804L38.049 146.692ZM37.461 151.9H41.277C41.085 151.036 40.413 150.436 39.405 150.436C38.385 150.436 37.677 151.048 37.461 151.9ZM43.674 155.5V149.5H44.694V150.376C45.066 149.716 45.702 149.38 46.59 149.38C48.042 149.38 48.798 150.352 48.798 152.2V155.5H47.658V152.26C47.658 151.108 47.178 150.496 46.242 150.496C45.306 150.496 44.814 151.108 44.814 152.26V155.5H43.674Z" fill="#005AAB"/>
<path d="M12.532 218.5V211.144H10.456V210.1H15.736V211.144H13.672V218.5H12.532ZM16.9318 218.5V210.1H18.0118V213.544C18.3238 212.788 18.9478 212.404 19.8238 212.404C21.2998 212.404 22.0558 213.304 22.0558 215.14V218.5H20.9158V215.26C20.9158 214.12 20.4238 213.52 19.4878 213.52C18.5518 213.52 18.0718 214.12 18.0718 215.26V218.5H16.9318ZM26.4003 218.608C24.6123 218.608 23.3163 217.3 23.3163 215.488C23.3163 213.676 24.6123 212.5 26.4003 212.5H27.4323C28.1883 212.5 28.5243 212.464 28.5243 211.804V211.6H29.3883V211.816C29.3883 212.632 29.1123 213.016 28.4763 213.172C29.1243 213.7 29.5083 214.492 29.5083 215.488C29.5083 217.3 28.2123 218.608 26.4003 218.608ZM26.4003 217.528C27.5763 217.528 28.4163 216.676 28.4163 215.488C28.4163 214.3 27.5763 213.52 26.4003 213.52C25.2483 213.52 24.4083 214.3 24.4083 215.488C24.4083 216.676 25.2483 217.528 26.4003 217.528ZM27.7563 211.768L24.8283 210.88L25.1043 210.016L28.0323 210.892L27.7563 211.768ZM30.924 218.5V212.5H32.064V218.5H30.924ZM31.5 211.42C31.068 211.42 30.744 211.096 30.744 210.664C30.744 210.244 31.068 209.92 31.5 209.92C31.92 209.92 32.244 210.244 32.244 210.664C32.244 211.096 31.92 211.42 31.5 211.42ZM39.3447 220.744C37.9647 220.744 36.9927 220.06 36.5607 218.98L37.4847 218.572C37.8207 219.268 38.4087 219.688 39.2967 219.688C40.3407 219.688 41.1687 219.076 41.1687 217.636V216.856C40.7607 217.516 40.0527 217.996 38.9727 217.996C37.2087 217.996 36.3087 216.532 36.3087 215.212C36.3087 213.856 37.2087 212.368 38.9847 212.368C40.0287 212.368 40.7127 212.836 41.1327 213.484V212.5H42.2007V217.528C42.2007 219.676 41.1207 220.744 39.3447 220.744ZM39.2367 217C40.4007 217 41.0487 216.052 41.0487 215.152C41.0487 214.288 40.4007 213.364 39.2367 213.364C38.0607 213.364 37.4367 214.3 37.4367 215.152C37.4367 216.052 38.0607 217 39.2367 217ZM43.7208 218.5V212.5H44.8608V218.5H43.7208ZM44.2968 211.42C43.8648 211.42 43.5408 211.096 43.5408 210.664C43.5408 210.244 43.8648 209.92 44.2968 209.92C44.7168 209.92 45.0408 210.244 45.0408 210.664C45.0408 211.096 44.7168 211.42 44.2968 211.42ZM49.0216 218.584C47.1016 218.584 46.1056 216.988 46.1056 215.5C46.1056 214 47.1016 212.416 48.9976 212.416C50.1256 212.416 50.8336 212.98 51.2176 213.748V212.5H52.2976V218.5H51.2176V217.276C50.8336 218.02 50.1496 218.584 49.0216 218.584ZM49.1536 217.54C50.4496 217.54 51.0856 216.484 51.0856 215.488C51.0856 214.492 50.4496 213.46 49.1536 213.46C47.8936 213.46 47.1976 214.504 47.1976 215.5C47.1976 216.484 47.8936 217.54 49.1536 217.54ZM53.8107 218.5V212.5H54.8307V213.376C55.2027 212.716 55.8387 212.38 56.7267 212.38C58.1787 212.38 58.9347 213.352 58.9347 215.2V218.5H57.7947V215.26C57.7947 214.108 57.3147 213.496 56.3787 213.496C55.4427 213.496 54.9507 214.108 54.9507 215.26V218.5H53.8107ZM13.42 233.584C11.524 233.584 10.516 231.976 10.516 230.488C10.516 229 11.512 227.404 13.42 227.404C14.44 227.404 15.112 227.908 15.496 228.604V225.1H16.636V233.5H15.556L15.532 232.324C15.16 233.056 14.5 233.584 13.42 233.584ZM13.576 232.54C14.86 232.54 15.496 231.472 15.496 230.488C15.496 229.492 14.86 228.46 13.576 228.46C12.304 228.46 11.608 229.504 11.608 230.488C11.608 231.484 12.304 232.54 13.576 232.54ZM20.7308 233.56C19.1108 233.56 18.1388 232.612 18.1388 230.704V227.5H19.2788V230.68C19.2788 231.904 19.8308 232.444 20.7188 232.444C21.5828 232.444 22.1228 231.904 22.1228 230.68V227.5H22.8908C23.2388 227.5 23.3588 227.428 23.3588 227.02V226.3H24.2348V227.02C24.2348 227.848 23.9708 228.172 23.2628 228.256V230.704C23.2628 232.612 22.3148 233.56 20.7308 233.56ZM22.0388 226.768L19.1108 225.88L19.3868 225.016L22.3148 225.892L22.0388 226.768ZM24.7716 233.5V227.5H25.7916V228.376C26.1636 227.716 26.7996 227.38 27.6876 227.38C29.1396 227.38 29.8956 228.352 29.8956 230.2V233.5H28.7556V230.26C28.7556 229.108 28.2756 228.496 27.3396 228.496C26.4036 228.496 25.9116 229.108 25.9116 230.26V233.5H24.7716ZM34.0361 235.744C32.6561 235.744 31.6841 235.06 31.2521 233.98L32.1761 233.572C32.5121 234.268 33.1001 234.688 33.9881 234.688C35.0321 234.688 35.8601 234.076 35.8601 232.636V231.856C35.4521 232.516 34.7441 232.996 33.6641 232.996C31.9001 232.996 31.0001 231.532 31.0001 230.212C31.0001 228.856 31.9001 227.368 33.6761 227.368C34.7201 227.368 35.4041 227.836 35.8241 228.484V227.5H36.8921V232.528C36.8921 234.676 35.8121 235.744 34.0361 235.744ZM33.9281 232C35.0921 232 35.7401 231.052 35.7401 230.152C35.7401 229.288 35.0921 228.364 33.9281 228.364C32.7521 228.364 32.1281 229.3 32.1281 230.152C32.1281 231.052 32.7521 232 33.9281 232ZM44.0763 233.584C42.1803 233.584 41.1723 231.976 41.1723 230.488C41.1723 229 42.1683 227.404 44.0763 227.404C45.0963 227.404 45.7683 227.908 46.1523 228.604V226.756H45.3483V226.096H46.1523V225.1H47.2923V226.096H48.2283V226.756H47.2923V233.5H46.2123L46.1883 232.324C45.8163 233.056 45.1563 233.584 44.0763 233.584ZM44.2323 232.54C45.5163 232.54 46.1523 231.472 46.1523 230.488C46.1523 229.492 45.5163 228.46 44.2323 228.46C42.9603 228.46 42.2643 229.504 42.2643 230.488C42.2643 231.484 42.9603 232.54 44.2323 232.54ZM51.6151 233.62C49.6111 233.62 48.5431 231.976 48.5431 230.488C48.5431 229 49.6111 227.368 51.6151 227.368C53.6431 227.368 54.7231 229 54.7231 230.488C54.7231 231.976 53.6431 233.62 51.6151 233.62ZM51.6151 232.576C52.9111 232.576 53.6671 231.544 53.6671 230.488C53.6671 229.432 52.9111 228.412 51.6151 228.412C50.3551 228.412 49.5991 229.432 49.5991 230.488C49.5991 231.556 50.3551 232.576 51.6151 232.576ZM49.9351 227.14L49.4311 226.432L51.0391 225.22H52.2151L53.8471 226.456L53.2951 227.14L51.6151 225.916L49.9351 227.14ZM52.4671 224.632C51.9751 224.632 51.6631 224.428 51.3991 224.248C51.1591 224.08 51.0271 224.008 50.8351 224.008C50.6071 224.008 50.4511 224.14 50.4511 224.428V224.62H49.6351V224.332C49.6351 223.708 50.0071 223.252 50.7271 223.252C51.2071 223.252 51.4951 223.42 51.8071 223.636C52.0111 223.768 52.1791 223.876 52.3471 223.876C52.5631 223.876 52.7191 223.732 52.7191 223.48V223.276H53.5351V223.564C53.5351 224.164 53.1631 224.632 52.4671 224.632Z" fill="#005AAB"/>
<path d="M12.532 266V258.644H10.456V257.6H15.736V258.644H13.672V266H12.532ZM16.9318 266V257.6H18.0118V261.044C18.3238 260.288 18.9478 259.904 19.8238 259.904C21.2998 259.904 22.0558 260.804 22.0558 262.64V266H20.9158V262.76C20.9158 261.62 20.4238 261.02 19.4878 261.02C18.5518 261.02 18.0718 261.62 18.0718 262.76V266H16.9318ZM26.4003 266.108C24.6123 266.108 23.3163 264.8 23.3163 262.988C23.3163 261.176 24.6123 260 26.4003 260H27.4323C28.1883 260 28.5243 259.964 28.5243 259.304V259.1H29.3883V259.316C29.3883 260.132 29.1123 260.516 28.4763 260.672C29.1243 261.2 29.5083 261.992 29.5083 262.988C29.5083 264.8 28.2123 266.108 26.4003 266.108ZM26.4003 265.028C27.5763 265.028 28.4163 264.176 28.4163 262.988C28.4163 261.8 27.5763 261.02 26.4003 261.02C25.2483 261.02 24.4083 261.8 24.4083 262.988C24.4083 264.176 25.2483 265.028 26.4003 265.028ZM27.7563 259.268L24.8283 258.38L25.1043 257.516L28.0323 258.392L27.7563 259.268ZM30.924 266V260H32.064V266H30.924ZM31.5 258.92C31.068 258.92 30.744 258.596 30.744 258.164C30.744 257.744 31.068 257.42 31.5 257.42C31.92 257.42 32.244 257.744 32.244 258.164C32.244 258.596 31.92 258.92 31.5 258.92ZM39.3447 268.244C37.9647 268.244 36.9927 267.56 36.5607 266.48L37.4847 266.072C37.8207 266.768 38.4087 267.188 39.2967 267.188C40.3407 267.188 41.1687 266.576 41.1687 265.136V264.356C40.7607 265.016 40.0527 265.496 38.9727 265.496C37.2087 265.496 36.3087 264.032 36.3087 262.712C36.3087 261.356 37.2087 259.868 38.9847 259.868C40.0287 259.868 40.7127 260.336 41.1327 260.984V260H42.2007V265.028C42.2007 267.176 41.1207 268.244 39.3447 268.244ZM39.2367 264.5C40.4007 264.5 41.0487 263.552 41.0487 262.652C41.0487 261.788 40.4007 260.864 39.2367 260.864C38.0607 260.864 37.4367 261.8 37.4367 262.652C37.4367 263.552 38.0607 264.5 39.2367 264.5ZM43.7208 266V260H44.8608V266H43.7208ZM44.2968 258.92C43.8648 258.92 43.5408 258.596 43.5408 258.164C43.5408 257.744 43.8648 257.42 44.2968 257.42C44.7168 257.42 45.0408 257.744 45.0408 258.164C45.0408 258.596 44.7168 258.92 44.2968 258.92ZM49.0216 266.084C47.1016 266.084 46.1056 264.488 46.1056 263C46.1056 261.5 47.1016 259.916 48.9976 259.916C50.1256 259.916 50.8336 260.48 51.2176 261.248V260H52.2976V266H51.2176V264.776C50.8336 265.52 50.1496 266.084 49.0216 266.084ZM49.1536 265.04C50.4496 265.04 51.0856 263.984 51.0856 262.988C51.0856 261.992 50.4496 260.96 49.1536 260.96C47.8936 260.96 47.1976 262.004 47.1976 263C47.1976 263.984 47.8936 265.04 49.1536 265.04ZM53.8107 266V260H54.8307V260.876C55.2027 260.216 55.8387 259.88 56.7267 259.88C58.1787 259.88 58.9347 260.852 58.9347 262.7V266H57.7947V262.76C57.7947 261.608 57.3147 260.996 56.3787 260.996C55.4427 260.996 54.9507 261.608 54.9507 262.76V266H53.8107ZM66.1075 266.084C64.2115 266.084 63.2035 264.476 63.2035 262.988C63.2035 261.5 64.1995 259.904 66.1075 259.904C67.1275 259.904 67.7995 260.408 68.1835 261.104V259.256H67.3795V258.596H68.1835V257.6H69.3235V258.596H70.2595V259.256H69.3235V266H68.2435L68.2195 264.824C67.8475 265.556 67.1875 266.084 66.1075 266.084ZM66.2635 265.04C67.5475 265.04 68.1835 263.972 68.1835 262.988C68.1835 261.992 67.5475 260.96 66.2635 260.96C64.9915 260.96 64.2955 262.004 64.2955 262.988C64.2955 263.984 64.9915 265.04 66.2635 265.04ZM70.8263 266V260H71.9663V266H70.8263ZM71.4023 258.92C70.9703 258.92 70.6463 258.596 70.6463 258.164C70.6463 257.744 70.9703 257.42 71.4023 257.42C71.8223 257.42 72.1463 257.744 72.1463 258.164C72.1463 258.596 71.8223 258.92 71.4023 258.92ZM11.584 281V276.044H10.216V275H11.584V273.344H12.724V275H14.08V276.044H12.724V281H11.584ZM17.6488 281.06C16.0288 281.06 15.0568 280.112 15.0568 278.204V275H16.1968V278.18C16.1968 279.404 16.7488 279.944 17.6368 279.944C18.5008 279.944 19.0408 279.404 19.0408 278.18V275H19.8088C20.1568 275 20.2768 274.928 20.2768 274.52V273.8H21.1528V274.52C21.1528 275.348 20.8888 275.672 20.1808 275.756V278.204C20.1808 280.112 19.2328 281.06 17.6488 281.06ZM18.9568 274.268L16.0288 273.38L16.3048 272.516L19.2328 273.392L18.9568 274.268ZM27.4736 283.244C26.0936 283.244 25.1216 282.56 24.6896 281.48L25.6136 281.072C25.9496 281.768 26.5376 282.188 27.4256 282.188C28.4696 282.188 29.2976 281.576 29.2976 280.136V279.356C28.8896 280.016 28.1816 280.496 27.1016 280.496C25.3376 280.496 24.4376 279.032 24.4376 277.712C24.4376 276.356 25.3376 274.868 27.1136 274.868C28.1576 274.868 28.8416 275.336 29.2616 275.984V275H30.3296V280.028C30.3296 282.176 29.2496 283.244 27.4736 283.244ZM27.3656 279.5C28.5296 279.5 29.1776 278.552 29.1776 277.652C29.1776 276.788 28.5296 275.864 27.3656 275.864C26.1896 275.864 25.5656 276.8 25.5656 277.652C25.5656 278.552 26.1896 279.5 27.3656 279.5ZM34.5138 281.084C32.5938 281.084 31.5978 279.488 31.5978 278C31.5978 276.5 32.5938 274.916 34.4898 274.916C35.6178 274.916 36.3258 275.48 36.7098 276.248V275H37.7898V281H36.7098V279.776C36.3258 280.52 35.6418 281.084 34.5138 281.084ZM34.6458 280.04C35.9418 280.04 36.5778 278.984 36.5778 277.988C36.5778 276.992 35.9418 275.96 34.6458 275.96C33.3858 275.96 32.6898 277.004 32.6898 278C32.6898 278.984 33.3858 280.04 34.6458 280.04ZM44.9669 281.084C43.0709 281.084 42.0629 279.476 42.0629 277.988C42.0629 276.5 43.0589 274.904 44.9669 274.904C45.9869 274.904 46.6589 275.408 47.0429 276.104V274.256H46.2389V273.596H47.0429V272.6H48.1829V273.596H49.1189V274.256H48.1829V281H47.1029L47.0789 279.824C46.7069 280.556 46.0469 281.084 44.9669 281.084ZM45.1229 280.04C46.4069 280.04 47.0429 278.972 47.0429 277.988C47.0429 276.992 46.4069 275.96 45.1229 275.96C43.8509 275.96 43.1549 277.004 43.1549 277.988C43.1549 278.984 43.8509 280.04 45.1229 280.04ZM52.3497 281.084C50.4297 281.084 49.4337 279.488 49.4337 278C49.4337 276.5 50.4297 274.916 52.3257 274.916C53.4537 274.916 54.1617 275.48 54.5457 276.248V275H55.6257V281H54.5457V279.776C54.1617 280.52 53.4777 281.084 52.3497 281.084ZM52.4817 280.04C53.7777 280.04 54.4137 278.984 54.4137 277.988C54.4137 276.992 53.7777 275.96 52.4817 275.96C51.2217 275.96 50.5257 277.004 50.5257 278C50.5257 278.984 51.2217 280.04 52.4817 280.04ZM51.1857 274.64L50.6817 273.932L52.2897 272.72H53.4657L55.0977 273.956L54.5457 274.64L52.8657 273.416L51.1857 274.64ZM54.1617 272.18L51.2337 271.292L51.5097 270.428L54.4377 271.304L54.1617 272.18ZM59.7308 281.06C58.1108 281.06 57.1388 280.112 57.1388 278.204V275H58.2788V278.18C58.2788 279.404 58.8308 279.944 59.7188 279.944C60.5828 279.944 61.1228 279.404 61.1228 278.18V275H62.2628V278.204C62.2628 280.112 61.3148 281.06 59.7308 281.06ZM13.42 296.084C11.524 296.084 10.516 294.476 10.516 292.988C10.516 291.5 11.512 289.904 13.42 289.904C14.44 289.904 15.112 290.408 15.496 291.104V289.256H14.692V288.596H15.496V287.6H16.636V288.596H17.572V289.256H16.636V296H15.556L15.532 294.824C15.16 295.556 14.5 296.084 13.42 296.084ZM13.576 295.04C14.86 295.04 15.496 293.972 15.496 292.988C15.496 291.992 14.86 290.96 13.576 290.96C12.304 290.96 11.608 292.004 11.608 292.988C11.608 293.984 12.304 295.04 13.576 295.04ZM21.0188 296.132C19.2788 296.132 17.8868 294.788 17.8868 292.988C17.8868 291.404 19.1228 289.88 20.9948 289.88C22.9268 289.88 24.2228 291.524 24.0068 293.348H19.0148C19.1708 294.308 19.9868 295.064 21.0188 295.064C21.7148 295.064 22.3148 294.752 22.7468 294.236L23.5868 294.836C23.0708 295.58 22.1348 296.132 21.0188 296.132ZM19.2908 289.652L18.7868 288.944L20.3948 287.732H21.5708L23.2028 288.968L22.6508 289.652L20.9708 288.428L19.2908 289.652ZM19.6388 287.192L19.3628 286.316L22.2908 285.44L22.5668 286.304L19.6388 287.192ZM19.0508 292.4H22.8668C22.6748 291.536 22.0028 290.936 20.9948 290.936C19.9748 290.936 19.2668 291.548 19.0508 292.4ZM25.2638 296V290H26.2838V290.876C26.6558 290.216 27.2918 289.88 28.1798 289.88C29.6318 289.88 30.3878 290.852 30.3878 292.7V296H29.2478V292.76C29.2478 291.608 28.7678 290.996 27.8318 290.996C26.8958 290.996 26.4038 291.608 26.4038 292.76V296H25.2638ZM37.6806 298.244C36.3006 298.244 35.3286 297.56 34.8966 296.48L35.8206 296.072C36.1566 296.768 36.7446 297.188 37.6326 297.188C38.6766 297.188 39.5046 296.576 39.5046 295.136V294.356C39.0966 295.016 38.3886 295.496 37.3086 295.496C35.5446 295.496 34.6446 294.032 34.6446 292.712C34.6446 291.356 35.5446 289.868 37.3206 289.868C38.3646 289.868 39.0486 290.336 39.4686 290.984V290H40.5366V295.028C40.5366 297.176 39.4566 298.244 37.6806 298.244ZM37.5726 294.5C38.7366 294.5 39.3846 293.552 39.3846 292.652C39.3846 291.788 38.7366 290.864 37.5726 290.864C36.3966 290.864 35.7726 291.8 35.7726 292.652C35.7726 293.552 36.3966 294.5 37.5726 294.5ZM44.7208 296.084C42.8008 296.084 41.8048 294.488 41.8048 293C41.8048 291.5 42.8008 289.916 44.6968 289.916C45.8248 289.916 46.5328 290.48 46.9168 291.248V290H47.9968V296H46.9168V294.776C46.5328 295.52 45.8488 296.084 44.7208 296.084ZM44.8528 295.04C46.1488 295.04 46.7848 293.984 46.7848 292.988C46.7848 291.992 46.1488 290.96 44.8528 290.96C43.5928 290.96 42.8968 292.004 42.8968 293C42.8968 293.984 43.5928 295.04 44.8528 295.04ZM55.3059 296.12C53.5659 296.12 52.2579 294.764 52.2579 292.988C52.2579 291.224 53.5659 289.88 55.3179 289.88C56.5419 289.88 57.5499 290.552 57.9939 291.548L57.0459 292.016C56.6859 291.404 56.0859 290.984 55.3179 290.984C54.2019 290.984 53.3739 291.836 53.3739 292.988C53.3739 294.14 54.2019 295.004 55.3059 295.004C56.0739 295.004 56.6619 294.584 57.0339 293.984L57.9819 294.452C57.5379 295.46 56.5299 296.12 55.3059 296.12ZM61.7699 296.06C60.1499 296.06 59.1779 295.112 59.1779 293.204V290H60.3179V293.18C60.3179 294.404 60.8699 294.944 61.7579 294.944C62.6219 294.944 63.1619 294.404 63.1619 293.18V290H64.3019V293.204C64.3019 295.112 63.3539 296.06 61.7699 296.06ZM68.6307 296.12C66.6267 296.12 65.5587 294.476 65.5587 292.988C65.5587 291.5 66.6267 289.868 68.6307 289.868C70.6587 289.868 71.7387 291.5 71.7387 292.988C71.7387 294.476 70.6587 296.12 68.6307 296.12ZM68.6307 295.076C69.9267 295.076 70.6827 294.044 70.6827 292.988C70.6827 291.932 69.9267 290.912 68.6307 290.912C67.3707 290.912 66.6147 291.932 66.6147 292.988C66.6147 294.056 67.3707 295.076 68.6307 295.076ZM66.9507 289.64L66.4467 288.932L68.0547 287.72H69.2307L70.8627 288.956L70.3107 289.64L68.6307 288.416L66.9507 289.64ZM67.2987 287.18L67.0227 286.304L69.9507 285.428L70.2267 286.292L67.2987 287.18ZM72.9826 296V290H74.1226V296H72.9826ZM73.5586 288.92C73.1266 288.92 72.8026 288.596 72.8026 288.164C72.8026 287.744 73.1266 287.42 73.5586 287.42C73.9786 287.42 74.3026 287.744 74.3026 288.164C74.3026 288.596 73.9786 288.92 73.5586 288.92Z" fill="#005AAB"/>
<path d="M89.584 88.12C87.208 88.12 85.516 86.356 85.516 83.788C85.516 81.22 87.22 79.48 89.584 79.48C91.96 79.48 93.664 81.232 93.664 83.788C93.664 86.356 91.96 88.12 89.584 88.12ZM89.584 87.04C91.324 87.04 92.536 85.732 92.536 83.788C92.536 81.844 91.312 80.56 89.584 80.56C87.856 80.56 86.632 81.832 86.632 83.788C86.632 85.732 87.844 87.04 89.584 87.04ZM97.4161 88.12C96.0721 88.12 95.1241 87.328 94.7161 86.224L95.6761 85.96C96.0001 86.596 96.5761 87.076 97.4041 87.076C98.5441 87.076 99.1921 86.14 99.1921 85.276C99.1921 84.376 98.5321 83.584 97.4041 83.584C96.7321 83.584 96.0841 83.98 95.7241 84.22L94.7641 83.92L94.7521 79.6H99.8401V80.692H95.8801L95.8921 83.14C96.2401 82.996 96.8521 82.672 97.5001 82.672C99.1081 82.672 100.26 83.728 100.26 85.3C100.26 86.74 99.1801 88.12 97.4161 88.12ZM101.342 88V79.6H102.422V83.044C102.734 82.288 103.358 81.904 104.234 81.904C105.71 81.904 106.466 82.804 106.466 84.64V88H105.326V84.76C105.326 83.62 104.834 83.02 103.898 83.02C102.962 83.02 102.482 83.62 102.482 84.76V88H101.342ZM110.447 88C108.839 88 107.735 86.884 107.735 85.264H108.875C108.875 86.26 109.511 86.908 110.447 86.908C111.491 86.908 112.103 86.236 112.103 85.288C112.103 84.328 111.407 83.632 110.375 83.632H109.943V82.888L111.719 80.668H107.855V79.6H113.051V80.608L111.275 82.864C112.427 83.08 113.231 84.028 113.231 85.36C113.231 86.872 112.151 88 110.447 88ZM118.178 88.12C115.802 88.12 114.11 86.356 114.11 83.788C114.11 81.22 115.814 79.48 118.178 79.48C120.554 79.48 122.258 81.232 122.258 83.788C122.258 86.356 120.554 88.12 118.178 88.12ZM118.178 87.04C119.918 87.04 121.13 85.732 121.13 83.788C121.13 81.844 119.906 80.56 118.178 80.56C116.45 80.56 115.226 81.832 115.226 83.788C115.226 85.732 116.438 87.04 118.178 87.04Z" fill="#005AAB"/>
<path d="M89.584 129.12C87.208 129.12 85.516 127.356 85.516 124.788C85.516 122.22 87.22 120.48 89.584 120.48C91.96 120.48 93.664 122.232 93.664 124.788C93.664 127.356 91.96 129.12 89.584 129.12ZM89.584 128.04C91.324 128.04 92.536 126.732 92.536 124.788C92.536 122.844 91.312 121.56 89.584 121.56C87.856 121.56 86.632 122.832 86.632 124.788C86.632 126.732 87.844 128.04 89.584 128.04ZM94.5836 129L98.1116 121.704H94.0796V120.6H99.8036L95.8076 129H94.5836ZM100.639 129V120.6H101.719V124.044C102.031 123.288 102.655 122.904 103.531 122.904C105.007 122.904 105.763 123.804 105.763 125.64V129H104.623V125.76C104.623 124.62 104.131 124.02 103.195 124.02C102.259 124.02 101.779 124.62 101.779 125.76V129H100.639ZM109.744 129C108.136 129 107.032 127.884 107.032 126.264H108.172C108.172 127.26 108.808 127.908 109.744 127.908C110.788 127.908 111.4 127.236 111.4 126.288C111.4 125.328 110.704 124.632 109.672 124.632H109.24V123.888L111.016 121.668H107.152V120.6H112.348V121.608L110.572 123.864C111.724 124.08 112.528 125.028 112.528 126.36C112.528 127.872 111.448 129 109.744 129ZM117.475 129.12C115.099 129.12 113.407 127.356 113.407 124.788C113.407 122.22 115.111 120.48 117.475 120.48C119.851 120.48 121.555 122.232 121.555 124.788C121.555 127.356 119.851 129.12 117.475 129.12ZM117.475 128.04C119.215 128.04 120.427 126.732 120.427 124.788C120.427 122.844 119.203 121.56 117.475 121.56C115.747 121.56 114.523 122.832 114.523 124.788C114.523 126.732 115.735 128.04 117.475 128.04Z" fill="#005AAB"/>
<path d="M87.136 172V164.704H85.54V163.6H88.276V172H87.136ZM92.4755 172.108C90.8195 172.108 89.5835 170.944 89.5835 169.396C89.5835 168.748 89.7275 168.112 90.2315 167.284L92.4755 163.6H93.7595L91.9715 166.516C92.1275 166.492 92.2835 166.48 92.4515 166.48C94.1075 166.48 95.2715 167.68 95.2715 169.3C95.2715 170.92 94.0835 172.108 92.4755 172.108ZM92.4515 171.04C93.4475 171.04 94.2035 170.272 94.2035 169.276C94.2035 168.28 93.4475 167.524 92.4275 167.524C91.4075 167.524 90.6635 168.304 90.6635 169.312C90.6635 170.296 91.4315 171.04 92.4515 171.04ZM96.5958 172V163.6H97.6758V167.044C97.9878 166.288 98.6118 165.904 99.4878 165.904C100.964 165.904 101.72 166.804 101.72 168.64V172H100.58V168.76C100.58 167.62 100.088 167.02 99.1518 167.02C98.2158 167.02 97.7358 167.62 97.7358 168.76V172H96.5958ZM105.701 172C104.093 172 102.989 170.884 102.989 169.264H104.129C104.129 170.26 104.765 170.908 105.701 170.908C106.745 170.908 107.357 170.236 107.357 169.288C107.357 168.328 106.661 167.632 105.629 167.632H105.197V166.888L106.973 164.668H103.109V163.6H108.305V164.608L106.529 166.864C107.681 167.08 108.485 168.028 108.485 169.36C108.485 170.872 107.405 172 105.701 172ZM113.432 172.12C111.056 172.12 109.364 170.356 109.364 167.788C109.364 165.22 111.068 163.48 113.432 163.48C115.808 163.48 117.512 165.232 117.512 167.788C117.512 170.356 115.808 172.12 113.432 172.12ZM113.432 171.04C115.172 171.04 116.384 169.732 116.384 167.788C116.384 165.844 115.16 164.56 113.432 164.56C111.704 164.56 110.48 165.832 110.48 167.788C110.48 169.732 111.692 171.04 113.432 171.04Z" fill="#005AAB"/>
<path d="M210.684 88V86.776L213.456 84.112C214.488 83.104 214.884 82.588 214.884 82.012C214.884 81.124 214.284 80.584 213.312 80.584C212.256 80.584 211.644 81.268 211.644 82.3V82.384H210.516V82.3C210.516 80.476 211.608 79.48 213.264 79.48C214.956 79.48 216.012 80.476 216.012 82.024C216.012 82.912 215.532 83.68 214.02 85.06L212.196 86.884H215.988V88H210.684ZM217.305 88V86.776L220.077 84.112C221.109 83.104 221.505 82.588 221.505 82.012C221.505 81.124 220.905 80.584 219.933 80.584C218.877 80.584 218.265 81.268 218.265 82.3V82.384H217.137V82.3C217.137 80.476 218.229 79.48 219.885 79.48C221.577 79.48 222.633 80.476 222.633 82.024C222.633 82.912 222.153 83.68 220.641 85.06L218.817 86.884H222.609V88H217.305ZM224.033 88V79.6H225.113V83.044C225.425 82.288 226.049 81.904 226.925 81.904C228.401 81.904 229.157 82.804 229.157 84.64V88H228.017V84.76C228.017 83.62 227.525 83.02 226.589 83.02C225.653 83.02 225.173 83.62 225.173 84.76V88H224.033ZM234.494 88.12C232.118 88.12 230.426 86.356 230.426 83.788C230.426 81.22 232.13 79.48 234.494 79.48C236.87 79.48 238.574 81.232 238.574 83.788C238.574 86.356 236.87 88.12 234.494 88.12ZM234.494 87.04C236.234 87.04 237.446 85.732 237.446 83.788C237.446 81.844 236.222 80.56 234.494 80.56C232.766 80.56 231.542 81.832 231.542 83.788C231.542 85.732 232.754 87.04 234.494 87.04ZM243.623 88.12C241.247 88.12 239.555 86.356 239.555 83.788C239.555 81.22 241.259 79.48 243.623 79.48C245.999 79.48 247.703 81.232 247.703 83.788C247.703 86.356 245.999 88.12 243.623 88.12ZM243.623 87.04C245.363 87.04 246.575 85.732 246.575 83.788C246.575 81.844 245.351 80.56 243.623 80.56C241.895 80.56 240.671 81.832 240.671 83.788C240.671 85.732 241.883 87.04 243.623 87.04Z" fill="#005AAB"/>
<path d="M89.584 148.12C87.208 148.12 85.516 146.356 85.516 143.788C85.516 141.22 87.22 139.48 89.584 139.48C91.96 139.48 93.664 141.232 93.664 143.788C93.664 146.356 91.96 148.12 89.584 148.12ZM89.584 147.04C91.324 147.04 92.536 145.732 92.536 143.788C92.536 141.844 91.312 140.56 89.584 140.56C87.856 140.56 86.632 141.832 86.632 143.788C86.632 145.732 87.844 147.04 89.584 147.04ZM97.3957 148.12C95.6557 148.12 94.5277 147.148 94.5277 145.624C94.5277 144.7 95.0557 143.968 95.9197 143.656C95.1637 143.344 94.6957 142.672 94.6957 141.808C94.6957 140.452 95.7637 139.48 97.3957 139.48C98.9797 139.48 100.012 140.44 100.012 141.808C100.012 142.684 99.5677 143.344 98.8477 143.656C99.6757 143.968 100.192 144.7 100.192 145.624C100.192 147.16 99.0877 148.12 97.3957 148.12ZM97.3957 147.076C98.4157 147.076 99.0757 146.548 99.0757 145.588C99.0757 144.724 98.4037 144.1 97.3957 144.1C96.3517 144.1 95.6557 144.724 95.6557 145.588C95.6557 146.536 96.3517 147.076 97.3957 147.076ZM97.3957 143.236C98.2957 143.236 98.9077 142.684 98.9077 141.868C98.9077 141.076 98.2837 140.536 97.3837 140.536C96.4477 140.536 95.8117 141.076 95.8117 141.868C95.8117 142.684 96.4477 143.236 97.3957 143.236ZM101.459 148V139.6H102.539V143.044C102.851 142.288 103.475 141.904 104.351 141.904C105.827 141.904 106.583 142.804 106.583 144.64V148H105.443V144.76C105.443 143.62 104.951 143.02 104.015 143.02C103.079 143.02 102.599 143.62 102.599 144.76V148H101.459ZM110.564 148C108.956 148 107.852 146.884 107.852 145.264H108.992C108.992 146.26 109.628 146.908 110.564 146.908C111.608 146.908 112.22 146.236 112.22 145.288C112.22 144.328 111.524 143.632 110.492 143.632H110.06V142.888L111.836 140.668H107.972V139.6H113.168V140.608L111.392 142.864C112.544 143.08 113.348 144.028 113.348 145.36C113.348 146.872 112.268 148 110.564 148ZM118.295 148.12C115.919 148.12 114.227 146.356 114.227 143.788C114.227 141.22 115.931 139.48 118.295 139.48C120.671 139.48 122.375 141.232 122.375 143.788C122.375 146.356 120.671 148.12 118.295 148.12ZM118.295 147.04C120.035 147.04 121.247 145.732 121.247 143.788C121.247 141.844 120.023 140.56 118.295 140.56C116.567 140.56 115.343 141.832 115.343 143.788C115.343 145.732 116.555 147.04 118.295 147.04Z" fill="#005AAB"/>
<path d="M87.136 187V179.704H85.54V178.6H88.276V187H87.136ZM92.4035 187.12C90.6635 187.12 89.5355 186.148 89.5355 184.624C89.5355 183.7 90.0635 182.968 90.9275 182.656C90.1715 182.344 89.7035 181.672 89.7035 180.808C89.7035 179.452 90.7715 178.48 92.4035 178.48C93.9875 178.48 95.0195 179.44 95.0195 180.808C95.0195 181.684 94.5755 182.344 93.8555 182.656C94.6835 182.968 95.1995 183.7 95.1995 184.624C95.1995 186.16 94.0955 187.12 92.4035 187.12ZM92.4035 186.076C93.4235 186.076 94.0835 185.548 94.0835 184.588C94.0835 183.724 93.4115 183.1 92.4035 183.1C91.3595 183.1 90.6635 183.724 90.6635 184.588C90.6635 185.536 91.3595 186.076 92.4035 186.076ZM92.4035 182.236C93.3035 182.236 93.9155 181.684 93.9155 180.868C93.9155 180.076 93.2915 179.536 92.3915 179.536C91.4555 179.536 90.8195 180.076 90.8195 180.868C90.8195 181.684 91.4555 182.236 92.4035 182.236ZM96.4669 187V178.6H97.5469V182.044C97.8589 181.288 98.4829 180.904 99.3589 180.904C100.835 180.904 101.591 181.804 101.591 183.64V187H100.451V183.76C100.451 182.62 99.9589 182.02 99.0229 182.02C98.0869 182.02 97.6069 182.62 97.6069 183.76V187H96.4669ZM106.928 187.12C104.552 187.12 102.86 185.356 102.86 182.788C102.86 180.22 104.564 178.48 106.928 178.48C109.304 178.48 111.008 180.232 111.008 182.788C111.008 185.356 109.304 187.12 106.928 187.12ZM106.928 186.04C108.668 186.04 109.88 184.732 109.88 182.788C109.88 180.844 108.656 179.56 106.928 179.56C105.2 179.56 103.976 180.832 103.976 182.788C103.976 184.732 105.188 186.04 106.928 186.04ZM116.057 187.12C113.681 187.12 111.989 185.356 111.989 182.788C111.989 180.22 113.693 178.48 116.057 178.48C118.433 178.48 120.137 180.232 120.137 182.788C120.137 185.356 118.433 187.12 116.057 187.12ZM116.057 186.04C117.797 186.04 119.009 184.732 119.009 182.788C119.009 180.844 117.785 179.56 116.057 179.56C114.329 179.56 113.105 180.832 113.105 182.788C113.105 184.732 114.317 186.04 116.057 186.04Z" fill="#005AAB"/>
<path d="M144.684 226V224.776L147.456 222.112C148.488 221.104 148.884 220.588 148.884 220.012C148.884 219.124 148.284 218.584 147.312 218.584C146.256 218.584 145.644 219.268 145.644 220.3V220.384H144.516V220.3C144.516 218.476 145.608 217.48 147.264 217.48C148.956 217.48 150.012 218.476 150.012 220.024C150.012 220.912 149.532 221.68 148.02 223.06L146.196 224.884H149.988V226H144.684ZM153.873 226.12C152.529 226.12 151.581 225.328 151.173 224.224L152.133 223.96C152.457 224.596 153.033 225.076 153.861 225.076C155.001 225.076 155.649 224.14 155.649 223.276C155.649 222.376 154.989 221.584 153.861 221.584C153.189 221.584 152.541 221.98 152.181 222.22L151.221 221.92L151.209 217.6H156.297V218.692H152.337L152.349 221.14C152.697 220.996 153.309 220.672 153.957 220.672C155.565 220.672 156.717 221.728 156.717 223.3C156.717 224.74 155.637 226.12 153.873 226.12ZM160.799 223.204V222.064H163.679V223.204H160.799ZM170.678 226.12C169.334 226.12 168.386 225.328 167.978 224.224L168.938 223.96C169.262 224.596 169.838 225.076 170.666 225.076C171.806 225.076 172.454 224.14 172.454 223.276C172.454 222.376 171.794 221.584 170.666 221.584C169.994 221.584 169.346 221.98 168.986 222.22L168.026 221.92L168.014 217.6H173.102V218.692H169.142L169.154 221.14C169.502 220.996 170.114 220.672 170.762 220.672C172.37 220.672 173.522 221.728 173.522 223.3C173.522 224.74 172.442 226.12 170.678 226.12ZM178.397 226.12C176.021 226.12 174.329 224.356 174.329 221.788C174.329 219.22 176.033 217.48 178.397 217.48C180.773 217.48 182.477 219.232 182.477 221.788C182.477 224.356 180.773 226.12 178.397 226.12ZM178.397 225.04C180.137 225.04 181.349 223.732 181.349 221.788C181.349 219.844 180.125 218.56 178.397 218.56C176.669 218.56 175.445 219.832 175.445 221.788C175.445 223.732 176.657 225.04 178.397 225.04ZM185.701 226.072C184.597 226.072 183.841 225.496 183.433 224.716L184.273 224.2C184.621 224.668 185.077 225.028 185.725 225.028C186.325 225.028 186.661 224.728 186.661 224.344C186.661 223.144 183.361 223.804 183.481 221.56C183.553 220.372 184.501 219.88 185.485 219.88C186.529 219.88 187.333 220.432 187.741 221.248L186.913 221.752C186.505 221.212 186.025 220.924 185.437 220.924C184.837 220.924 184.525 221.236 184.525 221.596C184.525 222.772 187.897 222.244 187.693 224.452C187.597 225.556 186.733 226.072 185.701 226.072Z" fill="#005AAB"/>
<path d="M144.684 281V279.776L147.456 277.112C148.488 276.104 148.884 275.588 148.884 275.012C148.884 274.124 148.284 273.584 147.312 273.584C146.256 273.584 145.644 274.268 145.644 275.3V275.384H144.516V275.3C144.516 273.476 145.608 272.48 147.264 272.48C148.956 272.48 150.012 273.476 150.012 275.024C150.012 275.912 149.532 276.68 148.02 278.06L146.196 279.884H149.988V281H144.684ZM154.558 281V278.72H150.562V277.892L153.046 272.6H154.294L151.93 277.64H154.558V275H155.698V277.64H157.426V278.72H155.698V281H154.558ZM164.753 281.084C163.697 281.084 163.049 280.52 162.677 279.776V282.8H161.537V275H162.605L162.629 276.32C163.001 275.528 163.673 274.904 164.753 274.904C166.661 274.904 167.657 276.5 167.657 277.988C167.657 279.476 166.661 281.084 164.753 281.084ZM164.597 280.04C165.881 280.04 166.553 278.984 166.553 277.988C166.553 277.004 165.881 275.96 164.597 275.96C163.361 275.96 162.677 277.052 162.677 277.988C162.677 278.912 163.361 280.04 164.597 280.04ZM168.92 281V272.6H170V276.044C170.312 275.288 170.936 274.904 171.812 274.904C173.288 274.904 174.044 275.804 174.044 277.64V281H172.904V277.76C172.904 276.62 172.412 276.02 171.476 276.02C170.54 276.02 170.06 276.62 170.06 277.76V281H168.92ZM178.086 281.06C176.466 281.06 175.494 280.112 175.494 278.204V275H176.634V278.18C176.634 279.404 177.186 279.944 178.074 279.944C178.938 279.944 179.478 279.404 179.478 278.18V275H180.618V278.204C180.618 280.112 179.67 281.06 178.086 281.06ZM176.718 274.268L176.442 273.392L179.37 272.516L179.646 273.38L176.718 274.268ZM182.955 281V276.044H181.587V275H182.955V273.344H184.095V275H185.451V276.044H184.095V281H182.955Z" fill="#005AAB"/>
<path d="M145.776 47.12C143.376 47.12 141.54 45.26 141.54 42.788C141.54 40.328 143.376 38.48 145.776 38.48C147.492 38.48 148.86 39.392 149.52 40.736L148.548 41.216C148.008 40.256 147 39.584 145.776 39.584C144.012 39.584 142.656 40.952 142.656 42.776C142.656 44.624 144.012 46.016 145.776 46.016C146.988 46.016 148.008 45.344 148.536 44.384L149.52 44.876C148.86 46.22 147.492 47.12 145.776 47.12ZM150.885 47V38.6H151.965V42.044C152.277 41.288 152.901 40.904 153.777 40.904C155.253 40.904 156.009 41.804 156.009 43.64V47H154.869V43.76C154.869 42.62 154.377 42.02 153.441 42.02C152.505 42.02 152.025 42.62 152.025 43.76V47H150.885ZM160.051 47.06C158.431 47.06 157.459 46.112 157.459 44.204V41H158.599V44.18C158.599 45.404 159.151 45.944 160.039 45.944C160.903 45.944 161.443 45.404 161.443 44.18V41H162.583V44.204C162.583 46.112 161.635 47.06 160.051 47.06ZM159.475 40.304V39.572H160.063C160.507 39.572 160.723 39.476 160.723 39.248C160.723 38.972 160.399 38.888 160.135 38.888C159.751 38.888 159.439 39.02 159.163 39.224L158.779 38.66C159.139 38.336 159.667 38.132 160.171 38.144C160.831 38.144 161.443 38.516 161.443 39.26C161.443 39.92 160.999 40.304 160.135 40.304H159.475ZM167.092 47V41H168.112V41.876C168.484 41.216 169.12 40.88 170.008 40.88C171.46 40.88 172.216 41.852 172.216 43.7V47H171.076V43.76C171.076 42.608 170.596 41.996 169.66 41.996C168.724 41.996 168.232 42.608 168.232 43.76V47H167.092ZM173.725 47V38.6H174.805V42.044C175.117 41.288 175.741 40.904 176.617 40.904C178.093 40.904 178.849 41.804 178.849 43.64V47H177.709V43.76C177.709 42.62 177.217 42.02 176.281 42.02C175.345 42.02 174.865 42.62 174.865 43.76V47H173.725ZM182.869 47.084C180.949 47.084 179.953 45.488 179.953 44C179.953 42.5 180.949 40.916 182.845 40.916C183.973 40.916 184.681 41.48 185.065 42.248V41H186.145V47H185.065V45.776C184.681 46.52 183.997 47.084 182.869 47.084ZM183.001 46.04C184.297 46.04 184.933 44.984 184.933 43.988C184.933 42.992 184.297 41.96 183.001 41.96C181.741 41.96 181.045 43.004 181.045 44C181.045 44.984 181.741 46.04 183.001 46.04ZM183.409 48.08C183.829 48.08 184.153 48.404 184.153 48.836C184.153 49.256 183.829 49.58 183.409 49.58C182.977 49.58 182.653 49.256 182.653 48.836C182.653 48.404 182.977 48.08 183.409 48.08ZM181.693 40.544L181.165 39.812L183.373 38.264L185.593 39.824L185.053 40.544L183.373 39.416L181.693 40.544ZM188.486 47V42.044H187.118V41H188.486V39.344H189.626V41H190.982V42.044H189.626V47H188.486Z" fill="white"/>
<path d="M135.5 83.5H198.5" stroke="#005AAB"/>
<path d="M86 200L249 200" stroke="#005AAB"/>
<path d="M86 249L249 249" stroke="#005AAB"/>
<line x1="90" y1="134.5" x2="118" y2="134.5" stroke="#005AAB"/>
<line x1="90" y1="175.5" x2="118" y2="175.5" stroke="#005AAB"/>
<defs>
<clipPath id="clip0_2703_19">
<rect width="22" height="32" fill="white" transform="translate(20 14)"/>
</clipPath>
</defs>
</svg>
