<svg width="268" height="114" viewBox="0 0 268 114" fill="none" xmlns="http://www.w3.org/2000/svg">
<rect width="268" height="114" rx="10" fill="#8CC63F"/>
<g clip-path="url(#clip0_2703_36)">
<path d="M56.9656 24.9903L56.9066 24.8696L55.6622 22.1948L53.0259 16.5536L52.3374 15.0804L52.3029 15H47.0304V15.0151H40.0315V15H34.7541V15.0151H26.6928V15H21.4154V15.0151H13.0295V17.0312H13V40.2246H18.0266V40.1392H19.6743C19.7579 41.7632 21.0219 43.005 22.6745 43.005C24.3271 43.005 25.5518 41.7682 25.6354 40.1392H43.863C43.9466 41.7632 45.2106 43.005 46.8632 43.005C48.5158 43.005 49.7404 41.7682 49.8241 40.1392H56.9902L56.9557 24.9903H56.9656ZM51.7324 25.0758L51.939 25.5182L52.2193 26.1165V27.4389H44.6892V24.9903L44.6302 24.8696L43.3859 22.1948L42.4612 20.2189H49.4601L51.7275 25.0758H51.7324ZM39.4561 25.0758L39.6626 25.5182L40.061 26.373L40.5578 27.4389H31.3456V24.9903L31.2866 24.8696L30.0423 22.1948L29.1176 20.2189H37.1838L39.4512 25.0758H39.4561ZM26.1174 25.0758L26.3239 25.5182L26.7223 26.373L27.2191 27.4389H18.0266V20.2189H23.8451L26.1125 25.0758H26.1174Z" fill="white"/>
</g>
<path d="M15.408 71V62.768H13.546V61.2H17.018V71H15.408ZM18.5975 73.1V69.04H20.2075V73.1H18.5975ZM25.1707 71V69.278L28.3207 66.31C29.4827 65.204 29.9027 64.686 29.9027 64.07C29.9027 63.16 29.2867 62.614 28.2927 62.614C27.1867 62.614 26.5707 63.356 26.5707 64.406V64.518H24.9747V64.406C24.9747 62.236 26.2627 61.06 28.2227 61.06C30.2387 61.06 31.4987 62.25 31.4987 64.084C31.4987 65.134 30.9667 66.002 29.1187 67.64L27.2987 69.432H31.4427V71H25.1707ZM32.9119 73.1V69.04H34.5219V73.1H32.9119ZM42.5232 71.14C40.9132 71.14 39.7792 70.202 39.3172 68.844L40.6752 68.466C41.0252 69.166 41.6412 69.67 42.5092 69.67C43.6712 69.67 44.3712 68.732 44.3712 67.808C44.3712 66.828 43.6432 66.044 42.5092 66.044C41.8092 66.044 41.1232 66.436 40.7172 66.716L39.3732 66.296V61.2H45.3792V62.754H40.9552L40.9692 65.204C41.3472 65.05 41.9772 64.756 42.6352 64.756C44.4552 64.756 45.8692 65.932 45.8692 67.836C45.8692 69.586 44.5672 71.14 42.5232 71.14ZM47.0213 73.1V69.04H48.6313V73.1H47.0213ZM55.3025 71V62.768H53.4405V61.2H56.9125V71H55.3025ZM61.53 61.06C63.518 61.06 64.974 62.446 64.974 64.28C64.974 65.05 64.792 65.778 64.204 66.758L61.67 71H59.864L61.838 67.71L61.558 67.724C59.598 67.724 58.226 66.31 58.226 64.378C58.226 62.46 59.64 61.06 61.53 61.06ZM61.572 62.586C60.536 62.586 59.738 63.37 59.738 64.42C59.738 65.456 60.522 66.24 61.6 66.24C62.664 66.24 63.448 65.428 63.448 64.392C63.448 63.356 62.636 62.586 61.572 62.586ZM64.9451 73.1V69.04H66.5551V73.1H64.9451ZM71.5184 71V69.278L74.6684 66.31C75.8304 65.204 76.2504 64.686 76.2504 64.07C76.2504 63.16 75.6344 62.614 74.6404 62.614C73.5344 62.614 72.9184 63.356 72.9184 64.406V64.518H71.3224V64.406C71.3224 62.236 72.6104 61.06 74.5704 61.06C76.5864 61.06 77.8464 62.25 77.8464 64.084C77.8464 65.134 77.3144 66.002 75.4664 67.64L73.6464 69.432H77.7904V71H71.5184ZM80.6912 71V62.768H78.8292V61.2H82.3012V71H80.6912ZM83.8807 73.1V69.04H85.4907V73.1H83.8807ZM90.4539 71V69.278L93.6039 66.31C94.7659 65.204 95.1859 64.686 95.1859 64.07C95.1859 63.16 94.5699 62.614 93.5759 62.614C92.4699 62.614 91.8539 63.356 91.8539 64.406V64.518H90.2579V64.406C90.2579 62.236 91.5459 61.06 93.5059 61.06C95.5219 61.06 96.7819 62.25 96.7819 64.084C96.7819 65.134 96.2499 66.002 94.4019 67.64L92.5819 69.432H96.7259V71H90.4539ZM98.0965 71V69.278L101.246 66.31C102.408 65.204 102.828 64.686 102.828 64.07C102.828 63.16 102.212 62.614 101.218 62.614C100.112 62.614 99.4965 63.356 99.4965 64.406V64.518H97.9005V64.406C97.9005 62.236 99.1885 61.06 101.148 61.06C103.164 61.06 104.424 62.25 104.424 64.084C104.424 65.134 103.892 66.002 102.044 67.64L100.224 69.432H104.368V71H98.0965ZM105.808 71V61.2H108.776C110.918 61.2 112.066 62.264 112.066 63.846C112.066 64.728 111.702 65.47 110.988 65.96C111.842 66.45 112.29 67.248 112.29 68.214C112.29 69.866 111.114 71 108.86 71H105.808ZM108.902 69.474C110.05 69.474 110.708 68.942 110.708 68.116C110.708 67.276 110.05 66.73 108.902 66.73H107.418V69.474H108.902ZM108.804 65.26C109.882 65.26 110.484 64.756 110.484 63.986C110.484 63.216 109.882 62.726 108.804 62.726H107.418V65.26H108.804ZM112.321 73.1L117.291 61.2H119.041L114.071 73.1H112.321ZM123.816 71.14C120.988 71.14 118.846 68.97 118.846 66.086C118.846 63.216 120.988 61.06 123.816 61.06C125.832 61.06 127.442 62.166 128.226 63.734L126.854 64.434C126.252 63.37 125.146 62.614 123.816 62.614C121.898 62.614 120.414 64.098 120.414 66.072C120.414 68.074 121.898 69.586 123.816 69.586C125.132 69.586 126.238 68.83 126.84 67.78L128.212 68.48C127.456 70.048 125.832 71.14 123.816 71.14ZM129.558 73.1V69.04H131.168V73.1H129.558ZM136.132 71V69.278L139.282 66.31C140.444 65.204 140.864 64.686 140.864 64.07C140.864 63.16 140.248 62.614 139.254 62.614C138.148 62.614 137.532 63.356 137.532 64.406V64.518H135.936V64.406C135.936 62.236 137.224 61.06 139.184 61.06C141.2 61.06 142.46 62.25 142.46 64.084C142.46 65.134 141.928 66.002 140.08 67.64L138.26 69.432H142.404V71H136.132ZM144.026 71L147.946 62.768H143.494V61.2H150.34L145.762 71H144.026ZM149.724 73.1V69.04H151.334V73.1H149.724ZM156.298 71V69.278L159.448 66.31C160.61 65.204 161.03 64.686 161.03 64.07C161.03 63.16 160.414 62.614 159.42 62.614C158.314 62.614 157.698 63.356 157.698 64.406V64.518H156.102V64.406C156.102 62.236 157.39 61.06 159.35 61.06C161.366 61.06 162.626 62.25 162.626 64.084C162.626 65.134 162.094 66.002 160.246 67.64L158.426 69.432H162.57V71H156.298ZM167.132 61.06C169.12 61.06 170.576 62.446 170.576 64.28C170.576 65.05 170.394 65.778 169.806 66.758L167.272 71H165.466L167.44 67.71L167.16 67.724C165.2 67.724 163.828 66.31 163.828 64.378C163.828 62.46 165.242 61.06 167.132 61.06ZM167.174 62.586C166.138 62.586 165.34 63.37 165.34 64.42C165.34 65.456 166.124 66.24 167.202 66.24C168.266 66.24 169.05 65.428 169.05 64.392C169.05 63.356 168.238 62.586 167.174 62.586ZM170.547 73.1V69.04H172.157V73.1H170.547ZM180.172 71C178.24 71 176.924 69.684 176.924 67.738H178.534C178.534 68.788 179.206 69.474 180.172 69.474C181.25 69.474 181.88 68.774 181.88 67.808C181.88 66.814 181.166 66.086 180.032 66.086H179.444V65.05L181.404 62.712H177.064V61.2H183.266V62.614L181.32 65.022C182.608 65.316 183.476 66.408 183.476 67.892C183.476 69.67 182.188 71 180.172 71ZM187.544 61.06C189.532 61.06 190.988 62.446 190.988 64.28C190.988 65.05 190.806 65.778 190.218 66.758L187.684 71H185.878L187.852 67.71L187.572 67.724C185.612 67.724 184.24 66.31 184.24 64.378C184.24 62.46 185.654 61.06 187.544 61.06ZM187.586 62.586C186.55 62.586 185.752 63.37 185.752 64.42C185.752 65.456 186.536 66.24 187.614 66.24C188.678 66.24 189.462 65.428 189.462 64.392C189.462 63.356 188.65 62.586 187.586 62.586ZM190.959 73.1V69.04H192.569V73.1H190.959ZM17.004 89.14C15.016 89.14 13.56 87.754 13.56 85.92C13.56 85.15 13.742 84.422 14.33 83.442L16.864 79.2H18.67L16.696 82.49L16.976 82.476C18.936 82.476 20.308 83.89 20.308 85.822C20.308 87.74 18.894 89.14 17.004 89.14ZM16.962 87.614C17.998 87.614 18.796 86.83 18.796 85.78C18.796 84.744 18.012 83.96 16.934 83.96C15.87 83.96 15.086 84.772 15.086 85.808C15.086 86.844 15.898 87.614 16.962 87.614ZM26.1813 89.14C23.3813 89.14 21.3653 87.068 21.3653 84.086C21.3653 81.118 23.3953 79.06 26.1813 79.06C28.9813 79.06 30.9973 81.132 30.9973 84.086C30.9973 87.054 28.9813 89.14 26.1813 89.14ZM26.1813 87.614C28.0713 87.614 29.4153 86.186 29.4153 84.086C29.4153 81.986 28.0713 80.586 26.1813 80.586C24.3053 80.586 22.9473 81.986 22.9473 84.086C22.9473 86.186 24.2773 87.614 26.1813 87.614ZM31.4627 91.1V87.04H33.0727V91.1H31.4627ZM39.7439 89V80.768H37.8819V79.2H41.3539V89H39.7439ZM47.4274 89.14C44.6274 89.14 42.6114 87.068 42.6114 84.086C42.6114 81.118 44.6414 79.06 47.4274 79.06C50.2274 79.06 52.2434 81.132 52.2434 84.086C52.2434 87.054 50.2274 89.14 47.4274 89.14ZM47.4274 87.614C49.3174 87.614 50.6614 86.186 50.6614 84.086C50.6614 81.986 49.3174 80.586 47.4274 80.586C45.5514 80.586 44.1934 81.986 44.1934 84.086C44.1934 86.186 45.5234 87.614 47.4274 87.614ZM56.4821 89.14C54.8721 89.14 53.7381 88.202 53.2761 86.844L54.6341 86.466C54.9841 87.166 55.6001 87.67 56.4681 87.67C57.6301 87.67 58.3301 86.732 58.3301 85.808C58.3301 84.828 57.6021 84.044 56.4681 84.044C55.7681 84.044 55.0821 84.436 54.6761 84.716L53.3321 84.296V79.2H59.3381V80.754H54.9141L54.9281 83.204C55.3061 83.05 55.9361 82.756 56.5941 82.756C58.4141 82.756 59.8281 83.932 59.8281 85.836C59.8281 87.586 58.5261 89.14 56.4821 89.14ZM60.9803 91.1V87.04H62.5903V91.1H60.9803ZM69.2615 89V80.768H67.3995V79.2H70.8715V89H69.2615ZM75.629 89.14C73.641 89.14 72.185 87.754 72.185 85.92C72.185 85.15 72.367 84.422 72.955 83.442L75.489 79.2H77.295L75.321 82.49L75.601 82.476C77.561 82.476 78.933 83.89 78.933 85.822C78.933 87.74 77.519 89.14 75.629 89.14ZM75.587 87.614C76.623 87.614 77.421 86.83 77.421 85.78C77.421 84.744 76.637 83.96 75.559 83.96C74.495 83.96 73.711 84.772 73.711 85.808C73.711 86.844 74.523 87.614 75.587 87.614ZM81.3885 89V80.768H79.5265V79.2H82.9985V89H81.3885ZM90.9636 92.78C88.9896 90.638 87.9396 88.188 87.9396 85.5C87.9396 82.812 88.9896 80.362 90.9636 78.22L92.1956 79.214C90.4876 81.16 89.5496 83.19 89.5496 85.5C89.5496 87.852 90.5576 89.91 92.1956 91.786L90.9636 92.78ZM97.8399 89.14C95.0119 89.14 92.8699 86.97 92.8699 84.086C92.8699 81.216 95.0119 79.06 97.8399 79.06C99.8559 79.06 101.466 80.166 102.25 81.734L100.878 82.434C100.276 81.37 99.1699 80.614 97.8399 80.614C95.9219 80.614 94.4379 82.098 94.4379 84.072C94.4379 86.074 95.9219 87.586 97.8399 87.586C99.1559 87.586 100.262 86.83 100.864 85.78L102.236 86.48C101.48 88.048 99.8559 89.14 97.8399 89.14ZM103.594 89V79.2H105.19L110.3 86.256V79.2H111.91V89H110.3L105.204 81.958V89H103.594ZM118.268 89.14C115.37 89.14 113.2 86.97 113.2 84.086C113.2 81.216 115.37 79.06 118.268 79.06C120.06 79.06 121.6 79.9 122.482 81.244L121.222 82.14C120.606 81.202 119.528 80.6 118.268 80.6C116.294 80.6 114.81 82.098 114.81 84.072C114.81 86.074 116.294 87.6 118.268 87.6C120.004 87.6 121.474 86.466 121.642 84.856H117.442V83.316H123.28C123.308 83.596 123.336 83.904 123.336 84.128C123.294 87.012 121.138 89.14 118.268 89.14ZM127.521 89.14C125.911 89.14 124.777 88.202 124.315 86.844L125.673 86.466C126.023 87.166 126.639 87.67 127.507 87.67C128.669 87.67 129.369 86.732 129.369 85.808C129.369 84.828 128.641 84.044 127.507 84.044C126.807 84.044 126.121 84.436 125.715 84.716L124.371 84.296V79.2H130.377V80.754H125.953L125.967 83.204C126.345 83.05 126.975 82.756 127.633 82.756C129.453 82.756 130.867 83.932 130.867 85.836C130.867 87.586 129.565 89.14 127.521 89.14ZM131.669 91.786C133.307 89.91 134.315 87.852 134.315 85.5C134.315 83.19 133.377 81.16 131.669 79.214L132.901 78.22C134.875 80.362 135.925 82.812 135.925 85.5C135.925 88.188 134.875 90.638 132.901 92.78L131.669 91.786Z" fill="white"/>
<path d="M87.828 37V28.684H85.49V27.2H91.762V28.684H89.438V37H87.828ZM95.3168 37.07C93.3848 37.07 92.2228 35.936 92.2228 33.682V30H93.8328V33.654C93.8328 34.942 94.3928 35.502 95.3028 35.502C96.1988 35.502 96.7448 34.942 96.7448 33.654V30H98.3548V33.682C98.3548 35.936 97.2348 37.07 95.3168 37.07ZM100.173 39.1L101.881 35.516L99.1514 30H100.915L102.763 33.668L104.513 30H106.277L101.937 39.1H100.173ZM110.158 37.154C108.1 37.154 106.476 35.586 106.476 33.5C106.476 31.568 108.002 29.86 110.144 29.86C112.412 29.86 113.994 31.764 113.686 33.99H108.086C108.296 34.928 109.108 35.67 110.158 35.67C110.914 35.67 111.53 35.334 112.02 34.76L113.252 35.53C112.664 36.454 111.53 37.154 110.158 37.154ZM108.156 29.664L107.456 28.698L109.318 27.312H110.928L112.818 28.726L112.076 29.664L110.116 28.25L108.156 29.664ZM108.478 26.738L108.142 25.534L111.74 24.568L112.076 25.772L108.478 26.738ZM108.142 32.744H112.09C111.852 31.862 111.124 31.33 110.158 31.33C109.164 31.33 108.408 31.862 108.142 32.744ZM114.973 37V30H116.401V30.91C116.849 30.224 117.563 29.874 118.529 29.874C120.237 29.874 121.105 31.008 121.105 33.164V37H119.495V33.248C119.495 32.072 119.005 31.442 118.039 31.442C117.087 31.442 116.583 32.072 116.583 33.248V37H114.973ZM125.361 37L127.769 33.5L125.403 30H127.293L128.945 32.464L130.583 30H132.459L130.107 33.5L132.501 37H130.597L128.945 34.536L127.279 37H125.361ZM136.422 37.154C134.364 37.154 132.74 35.586 132.74 33.5C132.74 31.568 134.266 29.86 136.408 29.86C138.676 29.86 140.258 31.764 139.95 33.99H134.35C134.56 34.928 135.372 35.67 136.422 35.67C137.178 35.67 137.794 35.334 138.284 34.76L139.516 35.53C138.928 36.454 137.794 37.154 136.422 37.154ZM134.406 32.744H138.354C138.116 31.862 137.388 31.33 136.422 31.33C135.428 31.33 134.672 31.862 134.406 32.744ZM148.504 37.098C147.37 37.098 146.656 36.58 146.222 35.852L146.194 37H144.668V27.2H146.278V31.092C146.726 30.392 147.44 29.902 148.504 29.902C150.716 29.902 151.892 31.736 151.892 33.5C151.892 35.25 150.702 37.098 148.504 37.098ZM148.294 35.614C149.596 35.614 150.338 34.55 150.338 33.5C150.338 32.45 149.596 31.386 148.294 31.386C147.062 31.386 146.376 32.282 146.278 33.262L146.264 33.612C146.32 34.634 147.02 35.614 148.294 35.614ZM156.225 37.07C154.293 37.07 153.131 35.936 153.131 33.682V30H154.741V33.654C154.741 34.942 155.301 35.502 156.211 35.502C157.107 35.502 157.653 34.942 157.653 33.654V30H159.263V33.682C159.263 35.936 158.143 37.07 156.225 37.07ZM161.082 39.1L162.79 35.516L160.06 30H161.824L163.672 33.668L165.422 30H167.186L162.846 39.1H161.082ZM161.978 29.244L161.642 28.04L165.24 27.074L165.576 28.278L161.978 29.244ZM168.55 37V31.484H166.996V30H168.55V28.11H170.16V30H171.7V31.484H170.16V37H168.55Z" fill="white"/>
<defs>
<clipPath id="clip0_2703_36">
<rect width="44" height="28" fill="white" transform="translate(13 15)"/>
</clipPath>
</defs>
</svg>
