<svg width="268" height="114" viewBox="0 0 268 114" fill="none" xmlns="http://www.w3.org/2000/svg">
<rect width="268" height="114" rx="10" fill="#8CC63F"/>
<g clip-path="url(#clip0_2703_71)">
<path d="M56.9656 24.9903L56.9066 24.8696L55.6622 22.1948L53.0259 16.5536L52.3374 15.0804L52.3029 15H47.0304V15.0151H40.0315V15H34.7541V15.0151H26.6928V15H21.4154V15.0151H13.0295V17.0312H13V40.2246H18.0266V40.1392H19.6743C19.7579 41.7632 21.0219 43.005 22.6745 43.005C24.3271 43.005 25.5518 41.7682 25.6354 40.1392H43.863C43.9466 41.7632 45.2106 43.005 46.8632 43.005C48.5158 43.005 49.7404 41.7682 49.8241 40.1392H56.9902L56.9557 24.9903H56.9656ZM51.7324 25.0758L51.939 25.5182L52.2193 26.1165V27.4389H44.6892V24.9903L44.6302 24.8696L43.3859 22.1948L42.4612 20.2189H49.4601L51.7275 25.0758H51.7324ZM39.4561 25.0758L39.6626 25.5182L40.061 26.373L40.5578 27.4389H31.3456V24.9903L31.2866 24.8696L30.0423 22.1948L29.1176 20.2189H37.1838L39.4512 25.0758H39.4561ZM26.1174 25.0758L26.3239 25.5182L26.7223 26.373L27.2191 27.4389H18.0266V20.2189H23.8451L26.1125 25.0758H26.1174Z" fill="white"/>
</g>
<path d="M18.32 71.14C15.52 71.14 13.504 69.068 13.504 66.086C13.504 63.118 15.534 61.06 18.32 61.06C21.12 61.06 23.136 63.132 23.136 66.086C23.136 69.054 21.12 71.14 18.32 71.14ZM18.32 69.614C20.21 69.614 21.554 68.186 21.554 66.086C21.554 63.986 20.21 62.586 18.32 62.586C16.444 62.586 15.086 63.986 15.086 66.086C15.086 68.186 16.416 69.614 18.32 69.614ZM25.4842 71V62.768H23.6222V61.2H27.0942V71H25.4842ZM28.6737 73.1V69.04H30.2837V73.1H28.6737ZM35.2469 71V69.278L38.3969 66.31C39.5589 65.204 39.9789 64.686 39.9789 64.07C39.9789 63.16 39.3629 62.614 38.3689 62.614C37.2629 62.614 36.6469 63.356 36.6469 64.406V64.518H35.0509V64.406C35.0509 62.236 36.3389 61.06 38.2989 61.06C40.3149 61.06 41.5749 62.25 41.5749 64.084C41.5749 65.134 41.0429 66.002 39.1949 67.64L37.3749 69.432H41.5189V71H35.2469ZM44.4197 71V62.768H42.5577V61.2H46.0297V71H44.4197ZM46.6292 71L50.7032 61.2H52.6212L56.6812 71H54.9732L53.9652 68.536H49.3452L48.3512 71H46.6292ZM49.9612 67.024H53.3632L51.6552 62.838L49.9612 67.024ZM57.9178 73.1V69.04H59.5278V73.1H57.9178ZM67.543 71C65.611 71 64.295 69.684 64.295 67.738H65.905C65.905 68.788 66.577 69.474 67.543 69.474C68.621 69.474 69.251 68.774 69.251 67.808C69.251 66.814 68.537 66.086 67.403 66.086H66.815V65.05L68.775 62.712H64.435V61.2H70.637V62.614L68.691 65.022C69.979 65.316 70.847 66.408 70.847 67.892C70.847 69.67 69.559 71 67.543 71ZM74.9942 71C73.0622 71 71.7462 69.684 71.7462 67.738H73.3562C73.3562 68.788 74.0282 69.474 74.9942 69.474C76.0722 69.474 76.7022 68.774 76.7022 67.808C76.7022 66.814 75.9882 66.086 74.8542 66.086H74.2662V65.05L76.2262 62.712H71.8862V61.2H78.0882V62.614L76.1422 65.022C77.4302 65.316 78.2982 66.408 78.2982 67.892C78.2982 69.67 77.0102 71 74.9942 71ZM79.6287 73.1V69.04H81.2387V73.1H79.6287ZM89.254 71C87.322 71 86.006 69.684 86.006 67.738H87.616C87.616 68.788 88.288 69.474 89.254 69.474C90.332 69.474 90.962 68.774 90.962 67.808C90.962 66.814 90.248 66.086 89.114 66.086H88.526V65.05L90.486 62.712H86.146V61.2H92.348V62.614L90.402 65.022C91.69 65.316 92.558 66.408 92.558 67.892C92.558 69.67 91.27 71 89.254 71ZM94.0145 71L97.9345 62.768H93.4825V61.2H100.329L95.7505 71H94.0145ZM99.7127 73.1V69.04H101.323V73.1H99.7127ZM109.324 71.14C107.714 71.14 106.58 70.202 106.118 68.844L107.476 68.466C107.826 69.166 108.442 69.67 109.31 69.67C110.472 69.67 111.172 68.732 111.172 67.808C111.172 66.828 110.444 66.044 109.31 66.044C108.61 66.044 107.924 66.436 107.518 66.716L106.174 66.296V61.2H112.18V62.754H107.756L107.77 65.204C108.148 65.05 108.778 64.756 109.436 64.756C111.256 64.756 112.67 65.932 112.67 67.836C112.67 69.586 111.368 71.14 109.324 71.14ZM113.948 71L117.868 62.768H113.416V61.2H120.262L115.684 71H113.948ZM119.646 73.1V69.04H121.256V73.1H119.646ZM129.524 71.14C127.536 71.14 126.08 69.754 126.08 67.92C126.08 67.15 126.262 66.422 126.85 65.442L129.384 61.2H131.19L129.216 64.49L129.496 64.476C131.456 64.476 132.828 65.89 132.828 67.822C132.828 69.74 131.414 71.14 129.524 71.14ZM129.482 69.614C130.518 69.614 131.316 68.83 131.316 67.78C131.316 66.744 130.532 65.96 129.454 65.96C128.39 65.96 127.606 66.772 127.606 67.808C127.606 68.844 128.418 69.614 129.482 69.614ZM133.807 71V69.278L136.957 66.31C138.119 65.204 138.539 64.686 138.539 64.07C138.539 63.16 137.923 62.614 136.929 62.614C135.823 62.614 135.207 63.356 135.207 64.406V64.518H133.611V64.406C133.611 62.236 134.899 61.06 136.859 61.06C138.875 61.06 140.135 62.25 140.135 64.084C140.135 65.134 139.603 66.002 137.755 67.64L135.935 69.432H140.079V71H133.807ZM141.549 73.1V69.04H143.159V73.1H141.549ZM151.314 71.14C149.256 71.14 147.926 69.95 147.926 68.172C147.926 67.15 148.472 66.352 149.368 65.946C148.584 65.554 148.108 64.812 148.108 63.86C148.108 62.236 149.368 61.06 151.314 61.06C153.204 61.06 154.45 62.222 154.45 63.86C154.45 64.812 153.988 65.554 153.232 65.946C154.1 66.352 154.632 67.15 154.632 68.172C154.632 69.964 153.316 71.14 151.314 71.14ZM151.314 69.67C152.378 69.67 153.05 69.11 153.05 68.13C153.05 67.22 152.35 66.576 151.314 66.576C150.25 66.576 149.522 67.22 149.522 68.13C149.522 69.096 150.236 69.67 151.314 69.67ZM151.314 65.358C152.252 65.358 152.882 64.784 152.882 63.944C152.882 63.118 152.238 62.544 151.3 62.544C150.334 62.544 149.676 63.118 149.676 63.944C149.676 64.784 150.334 65.358 151.314 65.358ZM158.833 61.06C160.821 61.06 162.277 62.446 162.277 64.28C162.277 65.05 162.095 65.778 161.507 66.758L158.973 71H157.167L159.141 67.71L158.861 67.724C156.901 67.724 155.529 66.31 155.529 64.378C155.529 62.46 156.943 61.06 158.833 61.06ZM158.875 62.586C157.839 62.586 157.041 63.37 157.041 64.42C157.041 65.456 157.825 66.24 158.903 66.24C159.967 66.24 160.751 65.428 160.751 64.392C160.751 63.356 159.939 62.586 158.875 62.586ZM162.248 73.1V69.04H163.858V73.1H162.248ZM170.529 71V62.768H168.667V61.2H172.139V71H170.529ZM178.213 71.14C175.413 71.14 173.397 69.068 173.397 66.086C173.397 63.118 175.427 61.06 178.213 61.06C181.013 61.06 183.029 63.132 183.029 66.086C183.029 69.054 181.013 71.14 178.213 71.14ZM178.213 69.614C180.103 69.614 181.447 68.186 181.447 66.086C181.447 63.986 180.103 62.586 178.213 62.586C176.337 62.586 174.979 63.986 174.979 66.086C174.979 68.186 176.309 69.614 178.213 69.614ZM187.267 71.14C185.657 71.14 184.523 70.202 184.061 68.844L185.419 68.466C185.769 69.166 186.385 69.67 187.253 69.67C188.415 69.67 189.115 68.732 189.115 67.808C189.115 66.828 188.387 66.044 187.253 66.044C186.553 66.044 185.867 66.436 185.461 66.716L184.117 66.296V61.2H190.123V62.754H185.699L185.713 65.204C186.091 65.05 186.721 64.756 187.379 64.756C189.199 64.756 190.613 65.932 190.613 67.836C190.613 69.586 189.311 71.14 187.267 71.14Z" fill="white"/>
<path d="M87.828 37V28.684H85.49V27.2H91.762V28.684H89.438V37H87.828ZM95.3168 37.07C93.3848 37.07 92.2228 35.936 92.2228 33.682V30H93.8328V33.654C93.8328 34.942 94.3928 35.502 95.3028 35.502C96.1988 35.502 96.7448 34.942 96.7448 33.654V30H98.3548V33.682C98.3548 35.936 97.2348 37.07 95.3168 37.07ZM100.173 39.1L101.881 35.516L99.1514 30H100.915L102.763 33.668L104.513 30H106.277L101.937 39.1H100.173ZM110.158 37.154C108.1 37.154 106.476 35.586 106.476 33.5C106.476 31.568 108.002 29.86 110.144 29.86C112.412 29.86 113.994 31.764 113.686 33.99H108.086C108.296 34.928 109.108 35.67 110.158 35.67C110.914 35.67 111.53 35.334 112.02 34.76L113.252 35.53C112.664 36.454 111.53 37.154 110.158 37.154ZM108.156 29.664L107.456 28.698L109.318 27.312H110.928L112.818 28.726L112.076 29.664L110.116 28.25L108.156 29.664ZM108.478 26.738L108.142 25.534L111.74 24.568L112.076 25.772L108.478 26.738ZM108.142 32.744H112.09C111.852 31.862 111.124 31.33 110.158 31.33C109.164 31.33 108.408 31.862 108.142 32.744ZM114.973 37V30H116.401V30.91C116.849 30.224 117.563 29.874 118.529 29.874C120.237 29.874 121.105 31.008 121.105 33.164V37H119.495V33.248C119.495 32.072 119.005 31.442 118.039 31.442C117.087 31.442 116.583 32.072 116.583 33.248V37H114.973ZM125.361 37L127.769 33.5L125.403 30H127.293L128.945 32.464L130.583 30H132.459L130.107 33.5L132.501 37H130.597L128.945 34.536L127.279 37H125.361ZM136.422 37.154C134.364 37.154 132.74 35.586 132.74 33.5C132.74 31.568 134.266 29.86 136.408 29.86C138.676 29.86 140.258 31.764 139.95 33.99H134.35C134.56 34.928 135.372 35.67 136.422 35.67C137.178 35.67 137.794 35.334 138.284 34.76L139.516 35.53C138.928 36.454 137.794 37.154 136.422 37.154ZM134.406 32.744H138.354C138.116 31.862 137.388 31.33 136.422 31.33C135.428 31.33 134.672 31.862 134.406 32.744ZM148.504 37.098C147.37 37.098 146.656 36.58 146.222 35.852L146.194 37H144.668V27.2H146.278V31.092C146.726 30.392 147.44 29.902 148.504 29.902C150.716 29.902 151.892 31.736 151.892 33.5C151.892 35.25 150.702 37.098 148.504 37.098ZM148.294 35.614C149.596 35.614 150.338 34.55 150.338 33.5C150.338 32.45 149.596 31.386 148.294 31.386C147.062 31.386 146.376 32.282 146.278 33.262L146.264 33.612C146.32 34.634 147.02 35.614 148.294 35.614ZM156.225 37.07C154.293 37.07 153.131 35.936 153.131 33.682V30H154.741V33.654C154.741 34.942 155.301 35.502 156.211 35.502C157.107 35.502 157.653 34.942 157.653 33.654V30H159.263V33.682C159.263 35.936 158.143 37.07 156.225 37.07ZM161.082 39.1L162.79 35.516L160.06 30H161.824L163.672 33.668L165.422 30H167.186L162.846 39.1H161.082ZM161.978 29.244L161.642 28.04L165.24 27.074L165.576 28.278L161.978 29.244ZM168.55 37V31.484H166.996V30H168.55V28.11H170.16V30H171.7V31.484H170.16V37H168.55Z" fill="white"/>
<defs>
<clipPath id="clip0_2703_71">
<rect width="44" height="28" fill="white" transform="translate(13 15)"/>
</clipPath>
</defs>
</svg>
