<svg width="268" height="114" viewBox="0 0 268 114" fill="none" xmlns="http://www.w3.org/2000/svg">
<rect width="268" height="114" rx="10" fill="#8CC63F"/>
<g clip-path="url(#clip0_2703_50)">
<path d="M56.9656 24.9903L56.9066 24.8696L55.6622 22.1948L53.0259 16.5536L52.3374 15.0804L52.3029 15H47.0304V15.0151H40.0315V15H34.7541V15.0151H26.6928V15H21.4154V15.0151H13.0295V17.0312H13V40.2246H18.0266V40.1392H19.6743C19.7579 41.7632 21.0219 43.005 22.6745 43.005C24.3271 43.005 25.5518 41.7682 25.6354 40.1392H43.863C43.9466 41.7632 45.2106 43.005 46.8632 43.005C48.5158 43.005 49.7404 41.7682 49.8241 40.1392H56.9902L56.9557 24.9903H56.9656ZM51.7324 25.0758L51.939 25.5182L52.2193 26.1165V27.4389H44.6892V24.9903L44.6302 24.8696L43.3859 22.1948L42.4612 20.2189H49.4601L51.7275 25.0758H51.7324ZM39.4561 25.0758L39.6626 25.5182L40.061 26.373L40.5578 27.4389H31.3456V24.9903L31.2866 24.8696L30.0423 22.1948L29.1176 20.2189H37.1838L39.4512 25.0758H39.4561ZM26.1174 25.0758L26.3239 25.5182L26.7223 26.373L27.2191 27.4389H18.0266V20.2189H23.8451L26.1125 25.0758H26.1174Z" fill="white"/>
</g>
<path d="M18.32 71.14C15.52 71.14 13.504 69.068 13.504 66.086C13.504 63.118 15.534 61.06 18.32 61.06C21.12 61.06 23.136 63.132 23.136 66.086C23.136 69.054 21.12 71.14 18.32 71.14ZM18.32 69.614C20.21 69.614 21.554 68.186 21.554 66.086C21.554 63.986 20.21 62.586 18.32 62.586C16.444 62.586 15.086 63.986 15.086 66.086C15.086 68.186 16.416 69.614 18.32 69.614ZM25.4842 71V62.768H23.6222V61.2H27.0942V71H25.4842ZM28.6737 73.1V69.04H30.2837V73.1H28.6737ZM36.9549 71V62.768H35.0929V61.2H38.5649V71H36.9549ZM43.1824 61.06C45.1704 61.06 46.6264 62.446 46.6264 64.28C46.6264 65.05 46.4444 65.778 45.8564 66.758L43.3224 71H41.5164L43.4904 67.71L43.2104 67.724C41.2504 67.724 39.8784 66.31 39.8784 64.378C39.8784 62.46 41.2924 61.06 43.1824 61.06ZM43.2244 62.586C42.1884 62.586 41.3904 63.37 41.3904 64.42C41.3904 65.456 42.1744 66.24 43.2524 66.24C44.3164 66.24 45.1004 65.428 45.1004 64.392C45.1004 63.356 44.2884 62.586 43.2244 62.586ZM46.5975 73.1V69.04H48.2075V73.1H46.5975ZM53.1707 71V69.278L56.3207 66.31C57.4827 65.204 57.9027 64.686 57.9027 64.07C57.9027 63.16 57.2867 62.614 56.2927 62.614C55.1867 62.614 54.5707 63.356 54.5707 64.406V64.518H52.9747V64.406C52.9747 62.236 54.2627 61.06 56.2227 61.06C58.2387 61.06 59.4987 62.25 59.4987 64.084C59.4987 65.134 58.9667 66.002 57.1187 67.64L55.2987 69.432H59.4427V71H53.1707ZM62.3435 71V62.768H60.4815V61.2H63.9535V71H62.3435ZM64.553 71L68.627 61.2H70.545L74.605 71H72.897L71.889 68.536H67.269L66.275 71H64.553ZM67.885 67.024H71.287L69.579 62.838L67.885 67.024ZM75.8416 73.1V69.04H77.4516V73.1H75.8416ZM82.4148 71V69.278L85.5648 66.31C86.7268 65.204 87.1468 64.686 87.1468 64.07C87.1468 63.16 86.5308 62.614 85.5368 62.614C84.4308 62.614 83.8148 63.356 83.8148 64.406V64.518H82.2188V64.406C82.2188 62.236 83.5068 61.06 85.4668 61.06C87.4828 61.06 88.7428 62.25 88.7428 64.084C88.7428 65.134 88.2108 66.002 86.3628 67.64L84.5428 69.432H88.6868V71H82.4148ZM90.0574 71V69.278L93.2074 66.31C94.3694 65.204 94.7894 64.686 94.7894 64.07C94.7894 63.16 94.1734 62.614 93.1794 62.614C92.0734 62.614 91.4574 63.356 91.4574 64.406V64.518H89.8614V64.406C89.8614 62.236 91.1494 61.06 93.1094 61.06C95.1254 61.06 96.3854 62.25 96.3854 64.084C96.3854 65.134 95.8534 66.002 94.0054 67.64L92.1854 69.432H96.3294V71H90.0574ZM97.7693 71V61.2H100.737C102.879 61.2 104.027 62.264 104.027 63.846C104.027 64.728 103.663 65.47 102.949 65.96C103.803 66.45 104.251 67.248 104.251 68.214C104.251 69.866 103.075 71 100.821 71H97.7693ZM100.863 69.474C102.011 69.474 102.669 68.942 102.669 68.116C102.669 67.276 102.011 66.73 100.863 66.73H99.3793V69.474H100.863ZM100.765 65.26C101.843 65.26 102.445 64.756 102.445 63.986C102.445 63.216 101.843 62.726 100.765 62.726H99.3793V65.26H100.765ZM104.282 73.1L109.252 61.2H111.002L106.032 73.1H104.282ZM115.777 71.14C112.949 71.14 110.807 68.97 110.807 66.086C110.807 63.216 112.949 61.06 115.777 61.06C117.793 61.06 119.403 62.166 120.187 63.734L118.815 64.434C118.213 63.37 117.107 62.614 115.777 62.614C113.859 62.614 112.375 64.098 112.375 66.072C112.375 68.074 113.859 69.586 115.777 69.586C117.093 69.586 118.199 68.83 118.801 67.78L120.173 68.48C119.417 70.048 117.793 71.14 115.777 71.14ZM121.519 73.1V69.04H123.129V73.1H121.519ZM131.285 71.14C129.227 71.14 127.897 69.95 127.897 68.172C127.897 67.15 128.443 66.352 129.339 65.946C128.555 65.554 128.079 64.812 128.079 63.86C128.079 62.236 129.339 61.06 131.285 61.06C133.175 61.06 134.421 62.222 134.421 63.86C134.421 64.812 133.959 65.554 133.203 65.946C134.071 66.352 134.603 67.15 134.603 68.172C134.603 69.964 133.287 71.14 131.285 71.14ZM131.285 69.67C132.349 69.67 133.021 69.11 133.021 68.13C133.021 67.22 132.321 66.576 131.285 66.576C130.221 66.576 129.493 67.22 129.493 68.13C129.493 69.096 130.207 69.67 131.285 69.67ZM131.285 65.358C132.223 65.358 132.853 64.784 132.853 63.944C132.853 63.118 132.209 62.544 131.271 62.544C130.305 62.544 129.647 63.118 129.647 63.944C129.647 64.784 130.305 65.358 131.285 65.358ZM138.842 71.14C137.232 71.14 136.098 70.202 135.636 68.844L136.994 68.466C137.344 69.166 137.96 69.67 138.828 69.67C139.99 69.67 140.69 68.732 140.69 67.808C140.69 66.828 139.962 66.044 138.828 66.044C138.128 66.044 137.442 66.436 137.036 66.716L135.692 66.296V61.2H141.698V62.754H137.274L137.288 65.204C137.666 65.05 138.296 64.756 138.954 64.756C140.774 64.756 142.188 65.932 142.188 67.836C142.188 69.586 140.886 71.14 138.842 71.14ZM143.34 73.1V69.04H144.95V73.1H143.34ZM151.621 71V62.768H149.759V61.2H153.231V71H151.621ZM159.304 71.14C156.504 71.14 154.488 69.068 154.488 66.086C154.488 63.118 156.518 61.06 159.304 61.06C162.104 61.06 164.12 63.132 164.12 66.086C164.12 69.054 162.104 71.14 159.304 71.14ZM159.304 69.614C161.194 69.614 162.538 68.186 162.538 66.086C162.538 63.986 161.194 62.586 159.304 62.586C157.428 62.586 156.07 63.986 156.07 66.086C156.07 68.186 157.4 69.614 159.304 69.614ZM168.182 71C166.25 71 164.934 69.684 164.934 67.738H166.544C166.544 68.788 167.216 69.474 168.182 69.474C169.26 69.474 169.89 68.774 169.89 67.808C169.89 66.814 169.176 66.086 168.042 66.086H167.454V65.05L169.414 62.712H165.074V61.2H171.276V62.614L169.33 65.022C170.618 65.316 171.486 66.408 171.486 67.892C171.486 69.67 170.198 71 168.182 71ZM171.836 71L175.91 61.2H177.828L181.888 71H180.18L179.172 68.536H174.552L173.558 71H171.836ZM175.168 67.024H178.57L176.862 62.838L175.168 67.024ZM181.364 73.1L186.334 61.2H188.084L183.114 73.1H181.364ZM188.619 71V61.2H191.587C193.729 61.2 194.877 62.264 194.877 63.846C194.877 64.728 194.513 65.47 193.799 65.96C194.653 66.45 195.101 67.248 195.101 68.214C195.101 69.866 193.925 71 191.671 71H188.619ZM191.713 69.474C192.861 69.474 193.519 68.942 193.519 68.116C193.519 67.276 192.861 66.73 191.713 66.73H190.229V69.474H191.713ZM191.615 65.26C192.693 65.26 193.295 64.756 193.295 63.986C193.295 63.216 192.693 62.726 191.615 62.726H190.229V65.26H191.615ZM196.482 73.1V69.04H198.092V73.1H196.482ZM15.408 89V80.768H13.546V79.2H17.018V89H15.408ZM23.0915 89.14C20.2915 89.14 18.2755 87.068 18.2755 84.086C18.2755 81.118 20.3055 79.06 23.0915 79.06C25.8915 79.06 27.9075 81.132 27.9075 84.086C27.9075 87.054 25.8915 89.14 23.0915 89.14ZM23.0915 87.614C24.9815 87.614 26.3255 86.186 26.3255 84.086C26.3255 81.986 24.9815 80.586 23.0915 80.586C21.2155 80.586 19.8575 81.986 19.8575 84.086C19.8575 86.186 21.1875 87.614 23.0915 87.614ZM32.1462 89.14C30.5362 89.14 29.4022 88.202 28.9402 86.844L30.2982 86.466C30.6482 87.166 31.2642 87.67 32.1322 87.67C33.2942 87.67 33.9942 86.732 33.9942 85.808C33.9942 84.828 33.2662 84.044 32.1322 84.044C31.4322 84.044 30.7462 84.436 30.3402 84.716L28.9962 84.296V79.2H35.0022V80.754H30.5782L30.5922 83.204C30.9702 83.05 31.6002 82.756 32.2582 82.756C34.0782 82.756 35.4922 83.932 35.4922 85.836C35.4922 87.586 34.1902 89.14 32.1462 89.14ZM36.6444 91.1V87.04H38.2544V91.1H36.6444ZM44.9256 89V80.768H43.0636V79.2H46.5356V89H44.9256ZM52.6091 89.14C49.8091 89.14 47.7931 87.068 47.7931 84.086C47.7931 81.118 49.8231 79.06 52.6091 79.06C55.4091 79.06 57.4251 81.132 57.4251 84.086C57.4251 87.054 55.4091 89.14 52.6091 89.14ZM52.6091 87.614C54.4991 87.614 55.8431 86.186 55.8431 84.086C55.8431 81.986 54.4991 80.586 52.6091 80.586C50.7331 80.586 49.3751 81.986 49.3751 84.086C49.3751 86.186 50.7051 87.614 52.6091 87.614ZM61.9298 89.14C59.9418 89.14 58.4858 87.754 58.4858 85.92C58.4858 85.15 58.6678 84.422 59.2558 83.442L61.7898 79.2H63.5958L61.6218 82.49L61.9018 82.476C63.8618 82.476 65.2338 83.89 65.2338 85.822C65.2338 87.74 63.8198 89.14 61.9298 89.14ZM61.8878 87.614C62.9238 87.614 63.7218 86.83 63.7218 85.78C63.7218 84.744 62.9378 83.96 61.8598 83.96C60.7958 83.96 60.0118 84.772 60.0118 85.808C60.0118 86.844 60.8238 87.614 61.8878 87.614Z" fill="white"/>
<path d="M87.828 37V28.684H85.49V27.2H91.762V28.684H89.438V37H87.828ZM95.3168 37.07C93.3848 37.07 92.2228 35.936 92.2228 33.682V30H93.8328V33.654C93.8328 34.942 94.3928 35.502 95.3028 35.502C96.1988 35.502 96.7448 34.942 96.7448 33.654V30H98.3548V33.682C98.3548 35.936 97.2348 37.07 95.3168 37.07ZM100.173 39.1L101.881 35.516L99.1514 30H100.915L102.763 33.668L104.513 30H106.277L101.937 39.1H100.173ZM110.158 37.154C108.1 37.154 106.476 35.586 106.476 33.5C106.476 31.568 108.002 29.86 110.144 29.86C112.412 29.86 113.994 31.764 113.686 33.99H108.086C108.296 34.928 109.108 35.67 110.158 35.67C110.914 35.67 111.53 35.334 112.02 34.76L113.252 35.53C112.664 36.454 111.53 37.154 110.158 37.154ZM108.156 29.664L107.456 28.698L109.318 27.312H110.928L112.818 28.726L112.076 29.664L110.116 28.25L108.156 29.664ZM108.478 26.738L108.142 25.534L111.74 24.568L112.076 25.772L108.478 26.738ZM108.142 32.744H112.09C111.852 31.862 111.124 31.33 110.158 31.33C109.164 31.33 108.408 31.862 108.142 32.744ZM114.973 37V30H116.401V30.91C116.849 30.224 117.563 29.874 118.529 29.874C120.237 29.874 121.105 31.008 121.105 33.164V37H119.495V33.248C119.495 32.072 119.005 31.442 118.039 31.442C117.087 31.442 116.583 32.072 116.583 33.248V37H114.973ZM125.361 37L127.769 33.5L125.403 30H127.293L128.945 32.464L130.583 30H132.459L130.107 33.5L132.501 37H130.597L128.945 34.536L127.279 37H125.361ZM136.422 37.154C134.364 37.154 132.74 35.586 132.74 33.5C132.74 31.568 134.266 29.86 136.408 29.86C138.676 29.86 140.258 31.764 139.95 33.99H134.35C134.56 34.928 135.372 35.67 136.422 35.67C137.178 35.67 137.794 35.334 138.284 34.76L139.516 35.53C138.928 36.454 137.794 37.154 136.422 37.154ZM134.406 32.744H138.354C138.116 31.862 137.388 31.33 136.422 31.33C135.428 31.33 134.672 31.862 134.406 32.744ZM148.504 37.098C147.37 37.098 146.656 36.58 146.222 35.852L146.194 37H144.668V27.2H146.278V31.092C146.726 30.392 147.44 29.902 148.504 29.902C150.716 29.902 151.892 31.736 151.892 33.5C151.892 35.25 150.702 37.098 148.504 37.098ZM148.294 35.614C149.596 35.614 150.338 34.55 150.338 33.5C150.338 32.45 149.596 31.386 148.294 31.386C147.062 31.386 146.376 32.282 146.278 33.262L146.264 33.612C146.32 34.634 147.02 35.614 148.294 35.614ZM156.225 37.07C154.293 37.07 153.131 35.936 153.131 33.682V30H154.741V33.654C154.741 34.942 155.301 35.502 156.211 35.502C157.107 35.502 157.653 34.942 157.653 33.654V30H159.263V33.682C159.263 35.936 158.143 37.07 156.225 37.07ZM161.082 39.1L162.79 35.516L160.06 30H161.824L163.672 33.668L165.422 30H167.186L162.846 39.1H161.082ZM161.978 29.244L161.642 28.04L165.24 27.074L165.576 28.278L161.978 29.244ZM168.55 37V31.484H166.996V30H168.55V28.11H170.16V30H171.7V31.484H170.16V37H168.55Z" fill="white"/>
<defs>
<clipPath id="clip0_2703_50">
<rect width="44" height="28" fill="white" transform="translate(13 15)"/>
</clipPath>
</defs>
</svg>
