<svg width="268" height="114" viewBox="0 0 268 114" fill="none" xmlns="http://www.w3.org/2000/svg">
<rect width="268" height="114" rx="10" fill="#8CC63F"/>
<g clip-path="url(#clip0_2703_78)">
<path d="M56.9656 24.9903L56.9066 24.8696L55.6622 22.1948L53.0259 16.5536L52.3374 15.0804L52.3029 15H47.0304V15.0151H40.0315V15H34.7541V15.0151H26.6928V15H21.4154V15.0151H13.0295V17.0312H13V40.2246H18.0266V40.1392H19.6743C19.7579 41.7632 21.0219 43.005 22.6745 43.005C24.3271 43.005 25.5518 41.7682 25.6354 40.1392H43.863C43.9466 41.7632 45.2106 43.005 46.8632 43.005C48.5158 43.005 49.7404 41.7682 49.8241 40.1392H56.9902L56.9557 24.9903H56.9656ZM51.7324 25.0758L51.939 25.5182L52.2193 26.1165V27.4389H44.6892V24.9903L44.6302 24.8696L43.3859 22.1948L42.4612 20.2189H49.4601L51.7275 25.0758H51.7324ZM39.4561 25.0758L39.6626 25.5182L40.061 26.373L40.5578 27.4389H31.3456V24.9903L31.2866 24.8696L30.0423 22.1948L29.1176 20.2189H37.1838L39.4512 25.0758H39.4561ZM26.1174 25.0758L26.3239 25.5182L26.7223 26.373L27.2191 27.4389H18.0266V20.2189H23.8451L26.1125 25.0758H26.1174Z" fill="white"/>
</g>
<path d="M18.32 63.14C15.52 63.14 13.504 61.068 13.504 58.086C13.504 55.118 15.534 53.06 18.32 53.06C21.12 53.06 23.136 55.132 23.136 58.086C23.136 61.054 21.12 63.14 18.32 63.14ZM18.32 61.614C20.21 61.614 21.554 60.186 21.554 58.086C21.554 55.986 20.21 54.586 18.32 54.586C16.444 54.586 15.086 55.986 15.086 58.086C15.086 60.186 16.416 61.614 18.32 61.614ZM25.4842 63V54.768H23.6222V53.2H27.0942V63H25.4842ZM28.6737 65.1V61.04H30.2837V65.1H28.6737ZM35.2469 63V61.278L38.3969 58.31C39.5589 57.204 39.9789 56.686 39.9789 56.07C39.9789 55.16 39.3629 54.614 38.3689 54.614C37.2629 54.614 36.6469 55.356 36.6469 56.406V56.518H35.0509V56.406C35.0509 54.236 36.3389 53.06 38.2989 53.06C40.3149 53.06 41.5749 54.25 41.5749 56.084C41.5749 57.134 41.0429 58.002 39.1949 59.64L37.3749 61.432H41.5189V63H35.2469ZM44.4197 63V54.768H42.5577V53.2H46.0297V63H44.4197ZM46.6292 63L50.7032 53.2H52.6212L56.6812 63H54.9732L53.9652 60.536H49.3452L48.3512 63H46.6292ZM49.9612 59.024H53.3632L51.6552 54.838L49.9612 59.024ZM57.9178 65.1V61.04H59.5278V65.1H57.9178ZM67.543 63C65.611 63 64.295 61.684 64.295 59.738H65.905C65.905 60.788 66.577 61.474 67.543 61.474C68.621 61.474 69.251 60.774 69.251 59.808C69.251 58.814 68.537 58.086 67.403 58.086H66.815V57.05L68.775 54.712H64.435V53.2H70.637V54.614L68.691 57.022C69.979 57.316 70.847 58.408 70.847 59.892C70.847 61.67 69.559 63 67.543 63ZM72.3036 63L76.2236 54.768H71.7716V53.2H78.6176L74.0396 63H72.3036ZM78.0018 65.1V61.04H79.6118V65.1H78.0018ZM87.613 63.14C86.003 63.14 84.869 62.202 84.407 60.844L85.765 60.466C86.115 61.166 86.731 61.67 87.599 61.67C88.761 61.67 89.461 60.732 89.461 59.808C89.461 58.828 88.733 58.044 87.599 58.044C86.899 58.044 86.213 58.436 85.807 58.716L84.463 58.296V53.2H90.469V54.754H86.045L86.059 57.204C86.437 57.05 87.067 56.756 87.725 56.756C89.545 56.756 90.959 57.932 90.959 59.836C90.959 61.586 89.657 63.14 87.613 63.14ZM92.2372 63L96.1572 54.768H91.7052V53.2H98.5512L93.9732 63H92.2372ZM97.9354 65.1V61.04H99.5454V65.1H97.9354ZM107.813 63.14C105.825 63.14 104.369 61.754 104.369 59.92C104.369 59.15 104.551 58.422 105.139 57.442L107.673 53.2H109.479L107.505 56.49L107.785 56.476C109.745 56.476 111.117 57.89 111.117 59.822C111.117 61.74 109.703 63.14 107.813 63.14ZM107.771 61.614C108.807 61.614 109.605 60.83 109.605 59.78C109.605 58.744 108.821 57.96 107.743 57.96C106.679 57.96 105.895 58.772 105.895 59.808C105.895 60.844 106.707 61.614 107.771 61.614ZM112.096 63V61.278L115.246 58.31C116.408 57.204 116.828 56.686 116.828 56.07C116.828 55.16 116.212 54.614 115.218 54.614C114.112 54.614 113.496 55.356 113.496 56.406V56.518H111.9V56.406C111.9 54.236 113.188 53.06 115.148 53.06C117.164 53.06 118.424 54.25 118.424 56.084C118.424 57.134 117.892 58.002 116.044 59.64L114.224 61.432H118.368V63H112.096ZM119.838 65.1V61.04H121.448V65.1H119.838ZM129.715 63.14C127.727 63.14 126.271 61.754 126.271 59.92C126.271 59.15 126.453 58.422 127.041 57.442L129.575 53.2H131.381L129.407 56.49L129.687 56.476C131.647 56.476 133.019 57.89 133.019 59.822C133.019 61.74 131.605 63.14 129.715 63.14ZM129.673 61.614C130.709 61.614 131.507 60.83 131.507 59.78C131.507 58.744 130.723 57.96 129.645 57.96C128.581 57.96 127.797 58.772 127.797 59.808C127.797 60.844 128.609 61.614 129.673 61.614ZM137.576 63.14C135.588 63.14 134.132 61.754 134.132 59.92C134.132 59.15 134.314 58.422 134.902 57.442L137.436 53.2H139.242L137.268 56.49L137.548 56.476C139.508 56.476 140.88 57.89 140.88 59.822C140.88 61.74 139.466 63.14 137.576 63.14ZM137.534 61.614C138.57 61.614 139.368 60.83 139.368 59.78C139.368 58.744 138.584 57.96 137.506 57.96C136.442 57.96 135.658 58.772 135.658 59.808C135.658 60.844 136.47 61.614 137.534 61.614ZM142.26 65.1V61.04H143.87V65.1H142.26ZM149.085 63L153.005 54.768H148.553V53.2H155.399L150.821 63H149.085ZM155.723 63V61.278L158.873 58.31C160.035 57.204 160.455 56.686 160.455 56.07C160.455 55.16 159.839 54.614 158.845 54.614C157.739 54.614 157.123 55.356 157.123 56.406V56.518H155.527V56.406C155.527 54.236 156.815 53.06 158.775 53.06C160.791 53.06 162.051 54.25 162.051 56.084C162.051 57.134 161.519 58.002 159.671 59.64L157.851 61.432H161.995V63H155.723ZM163.465 65.1V61.04H165.075V65.1H163.465ZM173.23 63.14C171.172 63.14 169.842 61.95 169.842 60.172C169.842 59.15 170.388 58.352 171.284 57.946C170.5 57.554 170.024 56.812 170.024 55.86C170.024 54.236 171.284 53.06 173.23 53.06C175.12 53.06 176.366 54.222 176.366 55.86C176.366 56.812 175.904 57.554 175.148 57.946C176.016 58.352 176.548 59.15 176.548 60.172C176.548 61.964 175.232 63.14 173.23 63.14ZM173.23 61.67C174.294 61.67 174.966 61.11 174.966 60.13C174.966 59.22 174.266 58.576 173.23 58.576C172.166 58.576 171.438 59.22 171.438 60.13C171.438 61.096 172.152 61.67 173.23 61.67ZM173.23 57.358C174.168 57.358 174.798 56.784 174.798 55.944C174.798 55.118 174.154 54.544 173.216 54.544C172.25 54.544 171.592 55.118 171.592 55.944C171.592 56.784 172.25 57.358 173.23 57.358ZM180.749 53.06C182.737 53.06 184.193 54.446 184.193 56.28C184.193 57.05 184.011 57.778 183.423 58.758L180.889 63H179.083L181.057 59.71L180.777 59.724C178.817 59.724 177.445 58.31 177.445 56.378C177.445 54.46 178.859 53.06 180.749 53.06ZM180.791 54.586C179.755 54.586 178.957 55.37 178.957 56.42C178.957 57.456 179.741 58.24 180.819 58.24C181.883 58.24 182.667 57.428 182.667 56.392C182.667 55.356 181.855 54.586 180.791 54.586ZM184.164 65.1V61.04H185.774V65.1H184.164ZM193.901 53.06C195.889 53.06 197.345 54.446 197.345 56.28C197.345 57.05 197.163 57.778 196.575 58.758L194.041 63H192.235L194.209 59.71L193.929 59.724C191.969 59.724 190.597 58.31 190.597 56.378C190.597 54.46 192.011 53.06 193.901 53.06ZM193.943 54.586C192.907 54.586 192.109 55.37 192.109 56.42C192.109 57.456 192.893 58.24 193.971 58.24C195.035 58.24 195.819 57.428 195.819 56.392C195.819 55.356 195.007 54.586 193.943 54.586ZM200.101 63V54.768H198.239V53.2H201.711V63H200.101ZM203.291 65.1V61.04H204.901V65.1H203.291ZM211.572 63V54.768H209.71V53.2H213.182V63H211.572ZM219.256 63.14C216.456 63.14 214.44 61.068 214.44 58.086C214.44 55.118 216.47 53.06 219.256 53.06C222.056 53.06 224.072 55.132 224.072 58.086C224.072 61.054 222.056 63.14 219.256 63.14ZM219.256 61.614C221.146 61.614 222.49 60.186 222.49 58.086C222.49 55.986 221.146 54.586 219.256 54.586C217.38 54.586 216.022 55.986 216.022 58.086C216.022 60.186 217.352 61.614 219.256 61.614ZM225.177 63V61.278L228.327 58.31C229.489 57.204 229.909 56.686 229.909 56.07C229.909 55.16 229.293 54.614 228.299 54.614C227.193 54.614 226.577 55.356 226.577 56.406V56.518H224.981V56.406C224.981 54.236 226.269 53.06 228.229 53.06C230.245 53.06 231.505 54.25 231.505 56.084C231.505 57.134 230.973 58.002 229.125 59.64L227.305 61.432H231.449V63H225.177ZM232.918 65.1V61.04H234.528V65.1H232.918ZM15.408 81V72.768H13.546V71.2H17.018V81H15.408ZM20.1795 81V72.768H18.3175V71.2H21.7895V81H20.1795ZM27.639 81V78.466H23.019V77.304L25.861 71.2H27.625L24.951 76.954H27.639V74H29.249V76.954H31.097V78.466H29.249V81H27.639ZM31.9686 83.1V79.04H33.5786V83.1H31.9686ZM40.2498 81V72.768H38.3878V71.2H41.8598V81H40.2498ZM43.3133 81V79.278L46.4633 76.31C47.6253 75.204 48.0453 74.686 48.0453 74.07C48.0453 73.16 47.4293 72.614 46.4353 72.614C45.3293 72.614 44.7133 73.356 44.7133 74.406V74.518H43.1173V74.406C43.1173 72.236 44.4053 71.06 46.3653 71.06C48.3813 71.06 49.6413 72.25 49.6413 74.084C49.6413 75.134 49.1093 76.002 47.2613 77.64L45.4413 79.432H49.5853V81H43.3133ZM53.7754 81C51.8434 81 50.5274 79.684 50.5274 77.738H52.1374C52.1374 78.788 52.8094 79.474 53.7754 79.474C54.8534 79.474 55.4834 78.774 55.4834 77.808C55.4834 76.814 54.7694 76.086 53.6354 76.086H53.0474V75.05L55.0074 72.712H50.6674V71.2H56.8694V72.614L54.9234 75.022C56.2114 75.316 57.0794 76.408 57.0794 77.892C57.0794 79.67 55.7914 81 53.7754 81ZM58.41 83.1V79.04H60.02V83.1H58.41ZM66.6912 81V72.768H64.8292V71.2H68.3012V81H66.6912ZM69.7547 81V79.278L72.9047 76.31C74.0667 75.204 74.4867 74.686 74.4867 74.07C74.4867 73.16 73.8707 72.614 72.8767 72.614C71.7707 72.614 71.1547 73.356 71.1547 74.406V74.518H69.5587V74.406C69.5587 72.236 70.8467 71.06 72.8067 71.06C74.8227 71.06 76.0827 72.25 76.0827 74.084C76.0827 75.134 75.5507 76.002 73.7027 77.64L71.8827 79.432H76.0267V81H69.7547ZM81.2327 81V78.466H76.6127V77.304L79.4547 71.2H81.2187L78.5447 76.954H81.2327V74H82.8427V76.954H84.6907V78.466H82.8427V81H81.2327ZM85.5623 83.1V79.04H87.1723V83.1H85.5623ZM93.8435 81V72.768H91.9815V71.2H95.4535V81H93.8435ZM99.945 81.14C98.335 81.14 97.201 80.202 96.739 78.844L98.097 78.466C98.447 79.166 99.063 79.67 99.931 79.67C101.093 79.67 101.793 78.732 101.793 77.808C101.793 76.828 101.065 76.044 99.931 76.044C99.231 76.044 98.545 76.436 98.139 76.716L96.795 76.296V71.2H102.801V72.754H98.377L98.391 75.204C98.769 75.05 99.399 74.756 100.057 74.756C101.877 74.756 103.291 75.932 103.291 77.836C103.291 79.586 101.989 81.14 99.945 81.14ZM107.482 81.14C105.424 81.14 104.094 79.95 104.094 78.172C104.094 77.15 104.64 76.352 105.536 75.946C104.752 75.554 104.276 74.812 104.276 73.86C104.276 72.236 105.536 71.06 107.482 71.06C109.372 71.06 110.618 72.222 110.618 73.86C110.618 74.812 110.156 75.554 109.4 75.946C110.268 76.352 110.8 77.15 110.8 78.172C110.8 79.964 109.484 81.14 107.482 81.14ZM107.482 79.67C108.546 79.67 109.218 79.11 109.218 78.13C109.218 77.22 108.518 76.576 107.482 76.576C106.418 76.576 105.69 77.22 105.69 78.13C105.69 79.096 106.404 79.67 107.482 79.67ZM107.482 75.358C108.42 75.358 109.05 74.784 109.05 73.944C109.05 73.118 108.406 72.544 107.468 72.544C106.502 72.544 105.844 73.118 105.844 73.944C105.844 74.784 106.502 75.358 107.482 75.358ZM118.512 84.78C116.538 82.638 115.488 80.188 115.488 77.5C115.488 74.812 116.538 72.362 118.512 70.22L119.744 71.214C118.036 73.16 117.098 75.19 117.098 77.5C117.098 79.852 118.106 81.91 119.744 83.786L118.512 84.78ZM125.389 81.14C122.561 81.14 120.419 78.97 120.419 76.086C120.419 73.216 122.561 71.06 125.389 71.06C127.405 71.06 129.015 72.166 129.799 73.734L128.427 74.434C127.825 73.37 126.719 72.614 125.389 72.614C123.471 72.614 121.987 74.098 121.987 76.072C121.987 78.074 123.471 79.586 125.389 79.586C126.705 79.586 127.811 78.83 128.413 77.78L129.785 78.48C129.029 80.048 127.405 81.14 125.389 81.14ZM131.143 81V71.2H132.739L137.849 78.256V71.2H139.459V81H137.849L132.753 73.958V81H131.143ZM145.817 81.14C142.919 81.14 140.749 78.97 140.749 76.086C140.749 73.216 142.919 71.06 145.817 71.06C147.609 71.06 149.149 71.9 150.031 73.244L148.771 74.14C148.155 73.202 147.077 72.6 145.817 72.6C143.843 72.6 142.359 74.098 142.359 76.072C142.359 78.074 143.843 79.6 145.817 79.6C147.553 79.6 149.023 78.466 149.191 76.856H144.991V75.316H150.829C150.857 75.596 150.885 75.904 150.885 76.128C150.843 79.012 148.687 81.14 145.817 81.14ZM156.611 81.14C153.811 81.14 151.795 79.068 151.795 76.086C151.795 73.118 153.825 71.06 156.611 71.06C159.411 71.06 161.427 73.132 161.427 76.086C161.427 79.054 159.411 81.14 156.611 81.14ZM156.611 79.614C158.501 79.614 159.845 78.186 159.845 76.086C159.845 73.986 158.501 72.586 156.611 72.586C154.735 72.586 153.377 73.986 153.377 76.086C153.377 78.186 154.707 79.614 156.611 79.614ZM162.532 81V79.278L165.682 76.31C166.844 75.204 167.264 74.686 167.264 74.07C167.264 73.16 166.648 72.614 165.654 72.614C164.548 72.614 163.932 73.356 163.932 74.406V74.518H162.336V74.406C162.336 72.236 163.624 71.06 165.584 71.06C167.6 71.06 168.86 72.25 168.86 74.084C168.86 75.134 168.328 76.002 166.48 77.64L164.66 79.432H168.804V81H162.532ZM169.978 83.786C171.616 81.91 172.624 79.852 172.624 77.5C172.624 75.19 171.686 73.16 169.978 71.214L171.21 70.22C173.184 72.362 174.234 74.812 174.234 77.5C174.234 80.188 173.184 82.638 171.21 84.78L169.978 83.786ZM175.81 83.1V79.04H177.42V83.1H175.81ZM184.092 81V72.768H182.23V71.2H185.702V81H184.092ZM190.459 81.14C188.471 81.14 187.015 79.754 187.015 77.92C187.015 77.15 187.197 76.422 187.785 75.442L190.319 71.2H192.125L190.151 74.49L190.431 74.476C192.391 74.476 193.763 75.89 193.763 77.822C193.763 79.74 192.349 81.14 190.459 81.14ZM190.417 79.614C191.453 79.614 192.251 78.83 192.251 77.78C192.251 76.744 191.467 75.96 190.389 75.96C189.325 75.96 188.541 76.772 188.541 77.808C188.541 78.844 189.353 79.614 190.417 79.614ZM198.041 81C196.109 81 194.793 79.684 194.793 77.738H196.403C196.403 78.788 197.075 79.474 198.041 79.474C199.119 79.474 199.749 78.774 199.749 77.808C199.749 76.814 199.035 76.086 197.901 76.086H197.313V75.05L199.273 72.712H194.933V71.2H201.135V72.614L199.189 75.022C200.477 75.316 201.345 76.408 201.345 77.892C201.345 79.67 200.057 81 198.041 81ZM16.78 102.78C14.806 100.638 13.756 98.188 13.756 95.5C13.756 92.812 14.806 90.362 16.78 88.22L18.012 89.214C16.304 91.16 15.366 93.19 15.366 95.5C15.366 97.852 16.374 99.91 18.012 101.786L16.78 102.78ZM23.6563 99.14C20.8283 99.14 18.6863 96.97 18.6863 94.086C18.6863 91.216 20.8283 89.06 23.6563 89.06C25.6723 89.06 27.2823 90.166 28.0663 91.734L26.6943 92.434C26.0923 91.37 24.9863 90.614 23.6563 90.614C21.7383 90.614 20.2543 92.098 20.2543 94.072C20.2543 96.074 21.7383 97.586 23.6563 97.586C24.9723 97.586 26.0783 96.83 26.6803 95.78L28.0523 96.48C27.2963 98.048 25.6723 99.14 23.6563 99.14ZM29.4103 99V89.2H31.0063L36.1163 96.256V89.2H37.7263V99H36.1163L31.0203 91.958V99H29.4103ZM44.0844 99.14C41.1864 99.14 39.0164 96.97 39.0164 94.086C39.0164 91.216 41.1864 89.06 44.0844 89.06C45.8764 89.06 47.4164 89.9 48.2984 91.244L47.0384 92.14C46.4224 91.202 45.3444 90.6 44.0844 90.6C42.1104 90.6 40.6264 92.098 40.6264 94.072C40.6264 96.074 42.1104 97.6 44.0844 97.6C45.8204 97.6 47.2904 96.466 47.4584 94.856H43.2584V93.316H49.0964C49.1244 93.596 49.1524 93.904 49.1524 94.128C49.1104 97.012 46.9544 99.14 44.0844 99.14ZM54.8786 99.14C52.0786 99.14 50.0626 97.068 50.0626 94.086C50.0626 91.118 52.0926 89.06 54.8786 89.06C57.6786 89.06 59.6946 91.132 59.6946 94.086C59.6946 97.054 57.6786 99.14 54.8786 99.14ZM54.8786 97.614C56.7686 97.614 58.1126 96.186 58.1126 94.086C58.1126 91.986 56.7686 90.586 54.8786 90.586C53.0026 90.586 51.6446 91.986 51.6446 94.086C51.6446 96.186 52.9746 97.614 54.8786 97.614ZM60.6141 99L64.5341 90.768H60.0821V89.2H66.9281L62.3501 99H60.6141ZM67.4115 101.786C69.0495 99.91 70.0575 97.852 70.0575 95.5C70.0575 93.19 69.1195 91.16 67.4115 89.214L68.6435 88.22C70.6175 90.362 71.6675 92.812 71.6675 95.5C71.6675 98.188 70.6175 100.638 68.6435 102.78L67.4115 101.786ZM73.244 101.1V97.04H74.854V101.1H73.244ZM83.2908 99V89.2H86.2588C88.4008 89.2 89.5488 90.264 89.5488 91.846C89.5488 92.728 89.1848 93.47 88.4708 93.96C89.3248 94.45 89.7728 95.248 89.7728 96.214C89.7728 97.866 88.5968 99 86.3428 99H83.2908ZM86.3848 97.474C87.5328 97.474 88.1908 96.942 88.1908 96.116C88.1908 95.276 87.5328 94.73 86.3848 94.73H84.9008V97.474H86.3848ZM86.2868 93.26C87.3648 93.26 87.9668 92.756 87.9668 91.986C87.9668 91.216 87.3648 90.726 86.2868 90.726H84.9008V93.26H86.2868ZM91.0291 99V89.2H94.0671C96.0691 89.2 97.3991 90.152 97.3991 92.07C97.3991 93.694 96.4191 94.688 94.7951 94.912L98.1831 99H96.1531L92.6391 94.716V99H91.0291ZM93.9831 93.484C95.1171 93.484 95.8171 92.994 95.8171 92.084C95.8171 91.118 95.1031 90.726 93.9831 90.726H92.6391V93.484H93.9831ZM100.402 99V90.684H98.0642V89.2H104.336V90.684H102.012V99H100.402ZM109.388 99.14C106.588 99.14 104.572 97.068 104.572 94.086C104.572 91.118 106.602 89.06 109.388 89.06C112.188 89.06 114.204 91.132 114.204 94.086C114.204 97.054 112.188 99.14 109.388 99.14ZM109.388 97.614C111.278 97.614 112.622 96.186 112.622 94.086C112.622 91.986 111.278 90.586 109.388 90.586C107.512 90.586 106.154 91.986 106.154 94.086C106.154 96.186 107.484 97.614 109.388 97.614ZM116.553 99V90.768H114.691V89.2H118.163V99H116.553Z" fill="white"/>
<path d="M90.2871 101.1H122.346V101.8H90.2871V101.1Z" fill="white"/>
<a href="https://vi.m.wikipedia.org/wiki/Xe_bu%C3%BDt_nhanh_H%C3%A0_N%E1%BB%99i">
<rect fill="black" fill-opacity="0" x="77.2871" y="36.25" width="32.0589" height="17.5"/>
</a>
<path d="M87.828 37V28.684H85.49V27.2H91.762V28.684H89.438V37H87.828ZM95.3168 37.07C93.3848 37.07 92.2228 35.936 92.2228 33.682V30H93.8328V33.654C93.8328 34.942 94.3928 35.502 95.3028 35.502C96.1988 35.502 96.7448 34.942 96.7448 33.654V30H98.3548V33.682C98.3548 35.936 97.2348 37.07 95.3168 37.07ZM100.173 39.1L101.881 35.516L99.1514 30H100.915L102.763 33.668L104.513 30H106.277L101.937 39.1H100.173ZM110.158 37.154C108.1 37.154 106.476 35.586 106.476 33.5C106.476 31.568 108.002 29.86 110.144 29.86C112.412 29.86 113.994 31.764 113.686 33.99H108.086C108.296 34.928 109.108 35.67 110.158 35.67C110.914 35.67 111.53 35.334 112.02 34.76L113.252 35.53C112.664 36.454 111.53 37.154 110.158 37.154ZM108.156 29.664L107.456 28.698L109.318 27.312H110.928L112.818 28.726L112.076 29.664L110.116 28.25L108.156 29.664ZM108.478 26.738L108.142 25.534L111.74 24.568L112.076 25.772L108.478 26.738ZM108.142 32.744H112.09C111.852 31.862 111.124 31.33 110.158 31.33C109.164 31.33 108.408 31.862 108.142 32.744ZM114.973 37V30H116.401V30.91C116.849 30.224 117.563 29.874 118.529 29.874C120.237 29.874 121.105 31.008 121.105 33.164V37H119.495V33.248C119.495 32.072 119.005 31.442 118.039 31.442C117.087 31.442 116.583 32.072 116.583 33.248V37H114.973ZM125.361 37L127.769 33.5L125.403 30H127.293L128.945 32.464L130.583 30H132.459L130.107 33.5L132.501 37H130.597L128.945 34.536L127.279 37H125.361ZM136.422 37.154C134.364 37.154 132.74 35.586 132.74 33.5C132.74 31.568 134.266 29.86 136.408 29.86C138.676 29.86 140.258 31.764 139.95 33.99H134.35C134.56 34.928 135.372 35.67 136.422 35.67C137.178 35.67 137.794 35.334 138.284 34.76L139.516 35.53C138.928 36.454 137.794 37.154 136.422 37.154ZM134.406 32.744H138.354C138.116 31.862 137.388 31.33 136.422 31.33C135.428 31.33 134.672 31.862 134.406 32.744ZM148.504 37.098C147.37 37.098 146.656 36.58 146.222 35.852L146.194 37H144.668V27.2H146.278V31.092C146.726 30.392 147.44 29.902 148.504 29.902C150.716 29.902 151.892 31.736 151.892 33.5C151.892 35.25 150.702 37.098 148.504 37.098ZM148.294 35.614C149.596 35.614 150.338 34.55 150.338 33.5C150.338 32.45 149.596 31.386 148.294 31.386C147.062 31.386 146.376 32.282 146.278 33.262L146.264 33.612C146.32 34.634 147.02 35.614 148.294 35.614ZM156.225 37.07C154.293 37.07 153.131 35.936 153.131 33.682V30H154.741V33.654C154.741 34.942 155.301 35.502 156.211 35.502C157.107 35.502 157.653 34.942 157.653 33.654V30H159.263V33.682C159.263 35.936 158.143 37.07 156.225 37.07ZM161.082 39.1L162.79 35.516L160.06 30H161.824L163.672 33.668L165.422 30H167.186L162.846 39.1H161.082ZM161.978 29.244L161.642 28.04L165.24 27.074L165.576 28.278L161.978 29.244ZM168.55 37V31.484H166.996V30H168.55V28.11H170.16V30H171.7V31.484H170.16V37H168.55Z" fill="white"/>
<defs>
<clipPath id="clip0_2703_78">
<rect width="44" height="28" fill="white" transform="translate(13 15)"/>
</clipPath>
</defs>
</svg>
